SplineFontDB: 3.0
FontName: AnkaCoder-b
FullName: Anka/Coder Bold
FamilyName: Anka/Coder
Weight: Bold
Copyright: Copyright (c) 2010, Andrey Makarov (makarov@bmstu.ru, mka-at-mailru@mail.ru),\nwith Reserved Font Name Anka/Coder.\n---------------------------------\nThe Anka/* are members of Anna Shugol name font family; March 2010
Version: 001.100
ItalicAngle: 0
UnderlinePosition: -292
UnderlineWidth: 150
Ascent: 1638
Descent: 410
LayerCount: 2
Layer: 0 0 "Back"  1
Layer: 1 0 "Fore"  0
XUID: [1021 77 1780377344 7603971]
UseXUID: 1
BaseHoriz: 0
FSType: 8
OS2Version: 1
OS2_WeightWidthSlopeOnly: 0
OS2_UseTypoMetrics: 1
CreationTime: 1260467214
ModificationTime: 1351158041
PfmFamily: 49
TTFWeight: 700
TTFWidth: 5
LineGap: 0
VLineGap: 0
Panose: 2 11 8 9 2 5 2 2 2 4
OS2TypoAscent: 0
OS2TypoAOffset: 1
OS2TypoDescent: 0
OS2TypoDOffset: 1
OS2TypoLinegap: 0
OS2WinAscent: 0
OS2WinAOffset: 1
OS2WinDescent: 0
OS2WinDOffset: 1
HheadAscent: 0
HheadAOffset: 1
HheadDescent: 0
HheadDOffset: 1
OS2SubXSize: 553
OS2SubYSize: 1229
OS2SubXOff: 0
OS2SubYOff: 283
OS2SupXSize: 553
OS2SupYSize: 1229
OS2SupXOff: 0
OS2SupYOff: 977
OS2StrikeYSize: 102
OS2StrikeYPos: 530
OS2FamilyClass: 1285
OS2Vendor: 'AVM1'
OS2CodePages: 40000097.cfd60000
OS2UnicodeRanges: 800002ef.000079eb.00000000.00000000
MacStyle: 1
DEI: 91125
ShortTable: maxp 16
  0
  0
  0
  0
  0
  0
  0
  2
  1
  0
  9
  0
  256
  0
  0
  0
EndShort
TtTable: prep
PUSHW_1
 511
SCANCTRL
SVTCA[y-axis]
MPPEM
PUSHB_1
 8
LT
IF
PUSHB_2
 1
 1
INSTCTRL
EIF
PUSHB_2
 70
 6
CALL
IF
POP
PUSHB_1
 16
EIF
MPPEM
PUSHB_1
 20
GT
IF
POP
PUSHB_1
 128
EIF
SCVTCI
PUSHB_1
 6
CALL
NOT
IF
EIF
EndTTInstrs
TtTable: fpgm
PUSHB_1
 0
FDEF
PUSHB_1
 0
SZP0
MPPEM
PUSHB_1
 42
LT
IF
PUSHB_1
 74
SROUND
EIF
PUSHB_1
 0
SWAP
MIAP[rnd]
RTG
PUSHB_1
 6
CALL
IF
RTDG
EIF
MPPEM
PUSHB_1
 42
LT
IF
RDTG
EIF
DUP
MDRP[rp0,rnd,grey]
PUSHB_1
 1
SZP0
MDAP[no-rnd]
RTG
ENDF
PUSHB_1
 1
FDEF
DUP
DUP
MDRP[rp0,min,white]
MDAP[rnd]
PUSHB_1
 7
CALL
NOT
IF
DUP
DUP
GC[orig]
SWAP
GC[cur]
SUB

StartChar: exclam
Encoding: 33 33 1
Width: 1229
VWidth: 1708
GlyphClass: 2
Flags: W
HStem: -136 390<492.595 737.057>
VStem: 420 389<-63.0881 181.919> 485 264<898.469 1382.88> 518 198<433 790.097>
LayerCount: 2
Fore
SplineSet
809 59 m 0xc0
 809 -44 729 -136 614 -136 c 0
 503 -136 420 -46 420 59 c 0
 420 161 497 254 614 254 c 0
 728 254 809 164 809 59 c 0xc0
612 1429 m 0
 680 1429 749 1364 749 1255 c 1xa0
 716 433 l 1
 518 433 l 1x90
 485 1256 l 1xa0
 485 1364 549 1429 612 1429 c 0
EndSplineSet
EndChar

StartChar: quotedbl
Encoding: 34 34 2
Width: 1229
VWidth: 1708
GlyphClass: 2
Flags: W
HStem: 960 504<308.244 390.68 798.244 880.68>
LayerCount: 2
Fore
SplineSet
394 1010 m 2
 378 982 334 960 295 960 c 3
 230 960 196 1021 196 1066 c 3
 196 1073 199 1085 201 1091 c 2
 271 1362 l 2
 287 1415 349 1464 414 1464 c 3
 500 1464 543 1397 543 1325 c 3
 543 1302 539 1272 529 1255 c 2
 394 1010 l 2
884 1010 m 2
 868 982 824 960 785 960 c 3
 720 960 686 1021 686 1066 c 3
 686 1073 689 1085 691 1091 c 2
 761 1362 l 2
 777 1415 839 1464 904 1464 c 3
 990 1464 1033 1397 1033 1325 c 3
 1033 1302 1029 1272 1019 1255 c 2
 884 1010 l 2
EndSplineSet
EndChar

StartChar: numbersign
Encoding: 35 35 3
Width: 1229
VWidth: 1708
GlyphClass: 2
Flags: W
HStem: -0 21G<154 371.923 597 814.923> 311 210<101 215 470 658 913 1027> 868 210<209 324 579 766 1021 1135>
LayerCount: 2
Fore
SplineSet
470 521 m 1
 699 521 l 1
 766 868 l 1
 538 868 l 1
 470 521 l 1
368 -0 m 1
 297 0 225 0 154 -0 c 1
 215 311 l 1
 60 311 l 1
 101 521 l 1
 256 521 l 1
 324 868 l 1
 168 868 l 1
 209 1078 l 1
 365 1078 l 1
 418 1350 l 1
 632 1350 l 1
 579 1078 l 1
 807 1078 l 1
 860 1350 l 1
 1074 1350 l 1
 1021 1078 l 1
 1176 1078 l 1
 1135 868 l 1
 980 868 l 1
 913 521 l 1
 1068 521 l 1
 1027 311 l 1
 872 311 l 1
 811 -0 l 1
 740 0 668 0 597 0 c 1
 658 311 l 1
 429 311 l 1
 368 -0 l 1
EndSplineSet
EndChar

StartChar: dollar
Encoding: 36 36 4
Width: 1229
VWidth: 2334
GlyphClass: 2
Flags: W
HStem: -20 211<347.206 511 721 830.914> 1206 212<401.186 511 721 862.996>
VStem: 139 210<945.414 1153.71> 511 210<-93 -16 196 594 889 1206 1415.65 1494> 932 210<278.525 491.62 1060 1142.81>
LayerCount: 2
Fore
SplineSet
1142 350 m 2
 1142 200 1002 26 721 -16 c 1
 721 -93 l 1
 511 -93 l 1
 511 -20 l 1
 57 24 45 225 40 338 c 1
 250 338 l 1
 262 233 452 198 511 191 c 1
 511 667 l 1
 391 709 l 2
 235 763 139 846 139 1033 c 2
 139 1060 l 2
 139 1252 283 1387 511 1418 c 1
 511 1494 l 1
 721 1494 l 1
 721 1420 l 1
 1001 1395 1133 1242 1133 1060 c 1
 923 1060 l 1
 923 1179 776 1202 721 1209 c 1
 721 816 l 1
 818 783 l 2
 1038 708 1142 540 1142 378 c 2
 1142 350 l 2
721 196 m 1
 869 227 932 310 932 350 c 2
 932 378 l 2
 932 461 867 541 746 585 c 2
 721 594 l 1
 721 196 l 1
511 889 m 1
 511 1206 l 1
 418 1188 349 1141 349 1060 c 2
 349 1033 l 2
 349 955 407 925 459 907 c 2
 511 889 l 1
EndSplineSet
EndChar

StartChar: percent
Encoding: 37 37 5
Width: 1229
VWidth: 1708
GlyphClass: 2
Flags: W
HStem: -11 179<853.81 987.51> 371 179<848.651 988.488> 859 179<253.81 387.51> 1241 179<248.651 388.488> 1384 20G<1007.66 1048.94>
VStem: 47 184<1054.89 1225.92> 401 184<1049.77 1230.48> 647 184<184.891 355.923> 1001 184<179.769 360.399>
LayerCount: 2
Fore
SplineSet
316 1241 m 3xf780
 261 1241 231 1175 231 1142 c 3
 231 1113 261 1038 316 1038 c 3
 381 1038 401 1097 401 1142 c 3
 401 1197 374 1241 316 1241 c 3xf780
585 1141 m 3
 585 988 471 859 318 859 c 3
 166 859 47 984 47 1141 c 3
 47 1296 166 1420 318 1420 c 3
 474 1420 585 1293 585 1141 c 3
916 371 m 3
 861 371 831 305 831 272 c 3
 831 243 861 168 916 168 c 3
 981 168 1001 227 1001 272 c 3
 1001 326 974 371 916 371 c 3
1185 271 m 3
 1185 118 1071 -11 918 -11 c 3
 766 -11 647 114 647 271 c 3
 647 426 766 550 918 550 c 3
 1074 550 1185 423 1185 271 c 3
1023 1404 m 1xef80
 1189 1276 l 1
 208 -3 l 1
 42 125 l 1
 1023 1404 l 1xef80
EndSplineSet
EndChar

StartChar: ampersand
Encoding: 38 38 6
Width: 1229
VWidth: 2334
GlyphClass: 2
Flags: W
HStem: -25 210<352.939 774.891> 1215 210<481.533 771.963>
VStem: 40 211<276.167 450.815> 251 210<998.68 1189.28> 790 210<1033.85 1189.34>
LayerCount: 2
Fore
SplineSet
604 1215 m 2
 486 1215 461 1157 461 1119 c 2
 461 1099 l 2
 461 1090 486 1008 571 908 c 1
 703 997 l 2
 745 1025 790 1077 790 1101 c 2
 790 1134 l 2
 790 1170 744 1215 630 1215 c 2
 604 1215 l 2
251 1149 m 2
 251 1248 336 1425 604 1425 c 2
 630 1425 l 2
 722 1425 1000 1400 1000 1144 c 2
 1000 1091 l 2
 1000 994 883 865 821 823 c 2
 701 742 l 1
 941 439 l 1
 1072 642 l 1
 1248 528 l 1
 1078 265 l 1
 1225 79 l 1
 1061 -51 l 1
 947 93 l 1
 860 18 742 -25 597 -25 c 2
 573 -25 l 2
 456 -25 40 12 40 350 c 2
 40 378 l 2
 40 527 156 629 283 714 c 2
 396 790 l 1
 367 829 251 993 251 1129 c 2
 251 1149 l 2
816 259 m 1
 527 625 l 1
 412 547 l 2
 303 473 251 412 251 378 c 2
 251 350 l 2
 251 236 441 185 573 185 c 2
 597 185 l 2
 695 185 767 214 816 259 c 1
EndSplineSet
EndChar

StartChar: quotesingle
Encoding: 39 39 7
Width: 1229
VWidth: 1708
GlyphClass: 2
Flags: W
HStem: 960 504<551.737 633.878>
VStem: 440 350
LayerCount: 2
Fore
SplineSet
637 1010 m 2
 622 982 580 960 538 960 c 3
 473 960 440 1021 440 1066 c 3
 440 1073 440 1086 440 1091 c 2
 518 1362 l 2
 528 1415 593 1464 660 1464 c 3
 744 1464 790 1397 790 1325 c 3
 790 1302 785 1272 775 1255 c 2
 637 1010 l 2
EndSplineSet
EndChar

StartChar: parenleft
Encoding: 40 40 8
Width: 1229
VWidth: 1708
GlyphClass: 2
Flags: W
VStem: 361 210<502.631 924.909>
LayerCount: 2
Fore
SplineSet
571 708 m 3
 571 427 803 180 1054 6 c 1
 934 -166 l 1
 613 57 361 358 361 708 c 3
 361 1108 654 1406 942 1571 c 1
 1046 1389 l 1
 784 1238 571 998 571 708 c 3
EndSplineSet
EndChar

StartChar: parenright
Encoding: 41 41 9
Width: 1229
VWidth: 1708
GlyphClass: 2
Flags: W
VStem: 661 210<502.585 924.943>
LayerCount: 2
Fore
SplineSet
871 708 m 3
 871 358 618 56 294 -167 c 1
 176 7 l 1
 428 180 661 427 661 708 c 3
 661 998 448 1239 183 1389 c 1
 287 1571 l 1
 578 1405 871 1108 871 708 c 3
EndSplineSet
EndChar

StartChar: asterisk
Encoding: 42 42 10
Width: 1229
VWidth: 1708
GlyphClass: 2
Flags: W
HStem: 613 205<182.123 279.273 950.727 1047.88>
VStem: 510 210<745 1050.63>
LayerCount: 2
Fore
SplineSet
915 367 m 2
 929 348 935 326 935 305 c 0
 935 272 920 240 892 220 c 0
 873 206 851 200 830 200 c 0
 797 200 765 215 745 243 c 2
 615 422 l 1
 485 243 l 2
 465 215 433 200 400 200 c 0
 379 200 357 206 338 220 c 0
 310 240 295 272 295 305 c 0
 295 326 301 348 315 367 c 2
 445 545 l 1
 235 613 l 2
 191 627 163 669 163 713 c 0
 163 724 164 735 168 746 c 0
 182 790 224 818 268 818 c 0
 279 818 290 817 301 813 c 2
 510 745 l 1
 510 965 l 2
 510 1023 557 1070 615 1070 c 0
 673 1070 720 1023 720 965 c 2
 720 745 l 1
 929 813 l 2
 940 817 951 818 962 818 c 0
 1006 818 1048 790 1062 746 c 0
 1066 735 1067 724 1067 713 c 0
 1067 669 1039 627 995 613 c 2
 785 545 l 1
 915 367 l 2
EndSplineSet
EndChar

StartChar: plus
Encoding: 43 43 11
Width: 1229
VWidth: 1708
GlyphClass: 2
Flags: W
HStem: 489 210<234 510 720 996>
VStem: 510 210<182 489 699 1001>
LayerCount: 2
Fore
SplineSet
996 699 m 1
 996 489 l 1
 720 489 l 1
 720 182 l 1
 510 182 l 1
 510 489 l 1
 234 489 l 1
 234 699 l 1
 510 699 l 1
 510 1001 l 1
 720 1001 l 1
 720 699 l 1
 996 699 l 1
EndSplineSet
EndChar

StartChar: comma
Encoding: 44 44 12
Width: 1229
VWidth: 1947
GlyphClass: 2
Flags: W
HStem: -334 74<464.125 515.006>
VStem: 570 239<-154.982 109>
LayerCount: 2
Fore
SplineSet
533 -73 m 0
 488 -60 420 -4 420 56 c 3
 420 158 497 252 614 252 c 3
 728 252 809 162 809 56 c 3
 809 -140 730 -306 468 -334 c 1
 448 -260 l 1
 497 -242 570 -197 570 -141 c 3
 570 -120 553 -79 533 -73 c 0
EndSplineSet
EndChar

StartChar: hyphen
Encoding: 45 45 13
Width: 1229
VWidth: 1708
GlyphClass: 2
Flags: W
HStem: 489 210<234 996>
LayerCount: 2
Fore
SplineSet
996 699 m 1
 996 489 l 1
 234 489 l 1
 234 699 l 1
 996 699 l 1
EndSplineSet
EndChar

StartChar: period
Encoding: 46 46 14
Width: 1229
VWidth: 1708
GlyphClass: 2
Flags: W
HStem: -136 76<642 649 652 658 661 666 668 669.967> -46 6<645 650> -38 2<646 648> -34 2<645 648>
VStem: 620 4<-40 -34 -32 -30> 630 2<-40 -32> 634 2<-40 -32> 638 2<-40 -32> 642 2<-38 -36> 644 8<-52 -48> 646 2<-38 -36> 650 2<-58 -54 -48 -46> 658 2<-58 -52> 662 2<-58 -50> 666 2<-58 -52> 670 2<-58 -52> 674 2<-58 -52> 678 2<-58 -52> 682 2<-58 -52>
LayerCount: 2
Fore
SplineSet
688 -58 m 25xff8fe0
 686 -58 l 25
 686 -46 l 25
 684 -46 l 25
 684 -60 l 25
 688 -60 l 25
 688 -58 l 25xff8fe0
680 -58 m 9
 678 -58 l 17
 678 -52 l 9
 680 -52 l 1
 680 -58 l 9
618 -40 m 9
 620 -40 l 25
 620 -34 l 25
 624 -34 l 25
 624 -40 l 25
 626 -40 l 25
 626 -26 l 25
 620 -26 l 17
 618 -30 l 1
 618 -40 l 9
621 -28 m 9
 624 -28 l 25
 624 -32 l 25
 620 -32 l 17
 620 -30 l 1
 621 -28 l 9
632 -32 m 25
 632 -40 l 25
 634 -40 l 17
 634 -32 l 1
 633 -30 l 9
 628 -30 l 17
 628 -40 l 9
 630 -40 l 17
 630 -32 l 9
 632 -32 l 25
640 -32 m 25
 640 -40 l 25
 642 -40 l 17
 642 -32 l 1
 641 -30 l 9
 636 -30 l 17
 636 -40 l 9
 638 -40 l 25
 638 -32 l 25
 640 -32 l 25
646 -36 m 25xffafe0
 648 -36 l 25
 648 -38 l 25
 646 -38 l 25
 646 -36 l 25xffafe0
645 -40 m 9
 650 -40 l 17
 650 -32 l 1xffbfe0
 649 -30 l 9
 644 -30 l 25
 644 -32 l 25
 648 -32 l 25
 648 -34 l 25
 645 -34 l 17
 644 -36 l 1
 644 -38 l 1
 645 -40 l 9
656 -52 m 25
 656 -60 l 25
 658 -60 l 17
 658 -52 l 1
 657 -50 l 1
 654 -50 l 1
 654 -46 l 1
 652 -46 l 9
 652 -60 l 25
 654 -60 l 25
 654 -52 l 25
 656 -52 l 25
649 -52 m 1
 644 -52 l 25
 644 -48 l 25
 650 -48 l 1
 650 -46 l 9
 643 -46 l 17
 642 -48 l 1
 642 -52 l 1
 643 -54 l 9
 648 -54 l 17
 648 -58 l 1
 642 -58 l 1
 642 -60 l 9
 649 -60 l 17
 650 -58 l 1
 650 -54 l 1
 649 -52 l 1
664 -58 m 25
 662 -58 l 25
 662 -50 l 25
 660 -50 l 17
 660 -58 l 1
 661 -60 l 9
 666 -60 l 25
 666 -50 l 25
 664 -50 l 25
 664 -58 l 25
670 -58 m 25
 670 -52 l 25
 672 -52 l 25
 672 -58 l 25
 670 -58 l 25
669 -50 m 17
 668 -52 l 1
 668 -58 l 1
 669 -60 l 9
 672 -60 l 25
 672 -62 l 25
 668 -62 l 25
 668 -64 l 25
 673 -64 l 17
 674 -62 l 1
 674 -50 l 9
 669 -50 l 17
677 -50 m 17
 676 -52 l 1
 676 -58 l 1
 677 -60 l 9
 681 -60 l 17
 682 -58 l 1
 682 -52 l 1
 681 -50 l 9
 677 -50 l 17
809 59 m 0
 809 -44 729 -136 614 -136 c 0
 503 -136 420 -46 420 59 c 0
 420 161 497 254 614 254 c 0
 728 254 809 164 809 59 c 0
EndSplineSet
EndChar

StartChar: slash
Encoding: 47 47 15
Width: 1229
VWidth: 1708
GlyphClass: 2
Flags: W
LayerCount: 2
Fore
SplineSet
901 1474 m 1
 1087 1376 l 1
 328 -74 l 1
 142 24 l 1
 901 1474 l 1
EndSplineSet
EndChar

StartChar: zero
Encoding: 48 48 16
Width: 1229
VWidth: 1708
GlyphClass: 2
Flags: W
HStem: -25 210<467.608 774.442> 1215 210<454.031 783.142>
VStem: 116 210<550.362 1053.11> 909 210<360.218 881.865>
LayerCount: 2
Fore
SplineSet
902 884 m 1
 402 304 l 1
 449 224 520 185 616 185 c 3
 813 185 909 299 909 717 c 3
 909 780 907 835 902 884 c 1
1119 717 m 3
 1119 312 1028 -25 616 -25 c 3
 447 -25 334 40 259 138 c 1
 122 -21 l 1
 17 178 l 1
 160 344 l 1
 125 467 116 602 116 717 c 3
 116 1098 202 1425 616 1425 c 3
 782 1425 895 1373 972 1287 c 1
 1110 1448 l 1
 1209 1241 l 1
 1076 1087 l 1
 1108 978 1119 851 1119 717 c 3
616 1215 m 3
 416 1215 326 1109 326 717 c 3
 326 655 329 598 334 547 c 1
 831 1124 l 1
 783 1191 712 1215 616 1215 c 3
EndSplineSet
EndChar

StartChar: one
Encoding: 49 49 17
Width: 1229
VWidth: 1708
GlyphClass: 2
Flags: W
HStem: -0 21G<645 855> 1405 20G<689.455 855>
VStem: 645 210<0 1131>
LayerCount: 2
Fore
SplineSet
855 1425 m 1
 855 0 l 1
 645 -0 l 1
 645 1131 l 1
 516 1051 l 1
 457 1124 l 1
 706 1425 l 1
 855 1425 l 1
EndSplineSet
EndChar

StartChar: two
Encoding: 50 50 18
Width: 1229
VWidth: 2334
GlyphClass: 2
Flags: W
HStem: 0 210<378 1099> 1215 210<399.809 829.2>
VStem: 889 210<915.385 1162.36>
LayerCount: 2
Fore
SplineSet
889 1061 m 2
 889 1197 747 1215 627 1215 c 2
 604 1215 l 2
 416 1215 376 1165 341 1110 c 1
 163 1222 l 1
 250 1360 370 1425 604 1425 c 2
 627 1425 l 2
 1019 1425 1099 1205 1099 1059 c 2
 1099 1024 l 2
 1099 967 1068 822 956 729 c 2
 470 333 l 2
 435 304 402 259 378 210 c 1
 1099 210 l 1
 1099 0 l 1
 130 0 l 1
 130 209 l 1
 141 294 260 432 336 495 c 2
 822 891 l 2
 872 933 889 1009 889 1024 c 2
 889 1061 l 2
EndSplineSet
EndChar

StartChar: three
Encoding: 51 51 19
Width: 1229
VWidth: 2334
GlyphClass: 2
Flags: W
HStem: -25 210<410.099 804.909> 684 210<400 755.266> 1215 210<411.801 784.871>
VStem: 828 210<960.522 1175.41> 889 210<269.117 607.285>
LayerCount: 2
Fore
SplineSet
828 1087 m 2xf0
 828 1207 687 1215 627 1215 c 2
 604 1215 l 2
 463 1215 375 1162 351 1121 c 1
 171 1227 l 1
 250 1362 431 1425 604 1425 c 2
 627 1425 l 2
 950 1425 1038 1222 1038 1087 c 2
 1038 1050 l 2xf0
 1038 1024 1026 903 932 814 c 1
 1044 738 1099 613 1099 461 c 2
 1099 443 l 2
 1099 179 958 -25 627 -25 c 2
 604 -25 l 2
 234 -25 130 182 130 320 c 1
 340 320 l 1
 340 266 402 185 604 185 c 2
 627 185 l 2
 832 185 889 287 889 443 c 2
 889 461 l 2xe8
 889 594 831 683 630 684 c 2
 400 684 l 1
 400 894 l 1
 630 894 l 2
 737 894 828 980 828 1050 c 2
 828 1087 l 2xf0
EndSplineSet
EndChar

StartChar: four
Encoding: 52 52 20
Width: 1229
VWidth: 1708
GlyphClass: 2
Flags: W
HStem: -0 21G<797 1007> 328 210<420 797 1007 1160> 1405 20G<833.306 1007>
VStem: 797 210<0 328 538 1018>
LayerCount: 2
Fore
SplineSet
797 1018 m 1
 420 538 l 1
 797 538 l 1
 797 1018 l 1
131 510 m 1
 849 1425 l 1
 1007 1425 l 1
 1007 538 l 1
 1160 538 l 1
 1160 328 l 1
 1007 328 l 1
 1007 0 l 1
 797 -0 l 1
 797 328 l 1
 131 328 l 1
 131 510 l 1
EndSplineSet
EndChar

StartChar: five
Encoding: 53 53 21
Width: 1229
VWidth: 2334
GlyphClass: 2
Flags: W
HStem: -25 210<355.346 799.832> 749 210<463.193 800.178> 1190 210<450 1068>
VStem: 889 210<279.061 663.333>
LayerCount: 2
Fore
SplineSet
163 713 m 1
 270 1400 l 1
 1068 1400 l 1
 1068 1190 l 1
 450 1190 l 1
 406 913 l 1
 472 943 541 959 604 959 c 2
 627 959 l 2
 944 959 1099 760 1099 508 c 2
 1099 452 l 2
 1099 137 914 -25 627 -25 c 2
 536 -25 l 2
 342 -25 138 71 60 219 c 1
 257 302 l 1
 299 245 409 185 536 185 c 2
 627 185 l 2
 792 185 889 250 889 452 c 2
 889 508 l 2
 889 646 825 749 627 749 c 2
 604 749 l 2
 531 749 422 703 370 612 c 1
 163 713 l 1
EndSplineSet
EndChar

StartChar: six
Encoding: 54 54 22
Width: 1229
VWidth: 2334
GlyphClass: 2
Flags: W
HStem: -25 210<439.734 794.957> 749 210<438.151 805.973> 1215 210<449.969 860.398>
VStem: 130 210<280.817 649.558 892 1110.1> 889 210<272.46 664.056>
LayerCount: 2
Fore
SplineSet
874 1155 m 1
 843 1209 711 1215 627 1215 c 2
 604 1215 l 2
 393 1215 340 1066 340 944 c 2
 340 892 l 1
 412 935 501 959 604 959 c 2
 627 959 l 2
 902 959 1099 813 1099 489 c 2
 1099 433 l 2
 1099 198 962 -25 627 -25 c 2
 604 -25 l 2
 339 -25 130 137 130 433 c 2
 130 944 l 2
 130 1218 307 1425 604 1425 c 2
 627 1425 l 2
 759 1425 955 1416 1050 1269 c 1
 874 1155 l 1
340 489 m 2
 340 433 l 2
 340 235 481 185 604 185 c 2
 627 185 l 2
 828 185 889 296 889 433 c 2
 889 489 l 2
 889 689 792 749 627 749 c 2
 604 749 l 2
 393 749 340 609 340 489 c 2
EndSplineSet
EndChar

StartChar: seven
Encoding: 55 55 23
Width: 1229
VWidth: 1708
GlyphClass: 2
Flags: W
HStem: 0 21G<243 516> 1190 210<130 844>
VStem: 243 217<0 132.874>
LayerCount: 2
Fore
SplineSet
243 0 m 1
 350 431 570 802 844 1190 c 1
 130 1190 l 1
 130 1400 l 1
 1099 1400 l 1
 1099 1185 l 1
 798 770 572 410 460 -0 c 1
 388 0 315 0 243 0 c 1
EndSplineSet
EndChar

StartChar: eight
Encoding: 56 56 24
Width: 1229
VWidth: 2334
GlyphClass: 2
Flags: W
HStem: -25 210<438.933 787.159> 684 210<470.841 764.075> 1215 210<452.439 785.243>
VStem: 130 210<279.459 601.688> 194 210<957.447 1168.28> 828 210<955.37 1167.91> 889 210<280.116 605.475>
LayerCount: 2
Fore
SplineSet
340 452 m 2xf2
 340 404 l 2
 340 237 491 185 604 185 c 2
 627 185 l 2
 789 185 889 274 889 404 c 2
 889 452 l 2
 889 579 837 683 630 684 c 2
 602 684 l 2
 403 683 340 586 340 452 c 2xf2
1038 1107 m 2xec
 1038 1060 l 2xec
 1038 968 1002 881 940 814 c 1
 1062 730 1099 591 1099 452 c 2
 1099 404 l 2
 1099 177 941 -25 627 -25 c 2
 604 -25 l 2
 337 -25 130 147 130 404 c 2
 130 452 l 2xf2
 130 603 186 730 297 809 c 1
 232 877 194 966 194 1061 c 2
 194 1108 l 2
 194 1383 515 1425 604 1425 c 2
 627 1425 l 2
 951 1425 1038 1227 1038 1107 c 2xec
828 1092 m 2
 828 1125 801 1215 627 1215 c 2
 604 1215 l 2
 490 1215 404 1155 404 1093 c 2
 404 1061 l 2
 404 981 475 894 602 894 c 2
 630 894 l 2
 758 894 828 981 828 1060 c 2
 828 1092 l 2
EndSplineSet
EndChar

StartChar: nine
Encoding: 57 57 25
Width: 1229
VWidth: 2334
GlyphClass: 2
Flags: W
HStem: -25 210<375.99 793.843> 446 210<428.92 811.19> 1215 210<434.09 795.426>
VStem: 130 210<746.667 1125.15> 889 210<268.904 500 730.336 1129.08>
LayerCount: 2
Fore
SplineSet
360 247 m 1
 397 186 549 185 604 185 c 2
 627 185 l 2
 831 185 889 290 889 437 c 2
 889 500 l 1
 820 465 732 446 627 446 c 2
 604 446 l 2
 312 446 130 628 130 901 c 2
 130 991 l 2
 130 1219 296 1425 604 1425 c 2
 627 1425 l 2
 903 1425 1099 1255 1099 991 c 2
 1099 437 l 2
 1099 183 959 -25 627 -25 c 2
 604 -25 l 2
 471 -25 272 -14 180 137 c 1
 360 247 l 1
889 901 m 2
 889 991 l 2
 889 1170 742 1215 627 1215 c 2
 604 1215 l 2
 425 1215 340 1115 340 991 c 2
 340 901 l 2
 340 765 407 656 604 656 c 2
 627 656 l 2
 821 656 889 730 889 901 c 2
EndSplineSet
EndChar

StartChar: less
Encoding: 60 60 28
Width: 1229
VWidth: 1708
GlyphClass: 2
Flags: W
LayerCount: 2
Fore
SplineSet
272 709 m 1
 959 1159 l 1
 959 908 l 1
 479 594 l 1
 959 279 l 1
 959 28 l 1
 272 479 l 1
 272 709 l 1
EndSplineSet
EndChar

StartChar: equal
Encoding: 61 61 29
Width: 1229
VWidth: 1708
GlyphClass: 2
Flags: W
HStem: 303 210<234 996> 715 210<234 996>
LayerCount: 2
Fore
SplineSet
996 513 m 1
 996 303 l 1
 234 303 l 1
 234 513 l 1
 996 513 l 1
996 925 m 1
 996 715 l 1
 234 715 l 1
 234 925 l 1
 996 925 l 1
EndSplineSet
EndChar

StartChar: greater
Encoding: 62 62 30
Width: 1229
VWidth: 1708
GlyphClass: 2
Flags: W
LayerCount: 2
Fore
SplineSet
272 1160 m 1
 959 710 l 1
 959 478 l 1
 272 27 l 1
 272 278 l 1
 753 594 l 1
 272 909 l 1
 272 1160 l 1
EndSplineSet
EndChar

StartChar: question
Encoding: 63 63 31
Width: 1229
VWidth: 1708
GlyphClass: 2
Flags: W
HStem: -160 338<500.31 727.307> 1215 210<402.269 841.361>
VStem: 446 337<-103.705 123.538> 511 210<352 562.868> 889 210<919.547 1167.71>
LayerCount: 2
Fore
SplineSet
604 1215 m 2xd8
 552 1215 343 1209 340 1087 c 1
 130 1091 l 1
 133 1229 213 1425 604 1425 c 2
 627 1425 l 2
 910 1425 1099 1314 1099 1089 c 2
 1099 1024 l 2
 1099 894 1047 811 957 733 c 2
 782 582 l 2
 732 538 722 495 721 483 c 2
 721 352 l 1
 511 352 l 1
 511 483 l 2
 511 512 526 639 646 742 c 2
 821 893 l 2
 864 930 889 968 889 1024 c 2
 889 1089 l 2
 889 1183 767 1215 627 1215 c 2
 604 1215 l 2xd8
783 9 m 0xe8
 783 -81 714 -160 614 -160 c 0
 518 -160 446 -82 446 9 c 0
 446 97 512 178 614 178 c 0
 713 178 783 100 783 9 c 0xe8
EndSplineSet
EndChar

StartChar: at
Encoding: 64 64 32
Width: 1229
VWidth: 1708
GlyphClass: 2
Flags: W
HStem: -25 210<454.862 911.504> 336 210<719.361 946.149> 880 210<733.215 972> 1215 210<437.739 916.415>
VStem: 0 209<469.59 957.069> 479 210<573.78 835.636> 977 210<352 368 582.16 880 1090 1161.42>
LayerCount: 2
Fore
SplineSet
972 1090 m 1
 972 1192 825 1215 616 1215 c 3
 365 1215 209 1003 209 717 c 3
 209 351 421 185 616 185 c 3
 776 185 874 200 932 242 c 1
 1056 72 l 1
 922 -25 616 -25 616 -25 c 3
 297 -25 0 242 0 717 c 3
 0 1136 250 1425 616 1425 c 3
 1146 1425 1187 1218 1187 1090 c 2
 1187 352 l 1
 977 352 l 1
 977 368 l 1
 924 346 882 336 819 336 c 27
 619 336 479 519 479 719 c 27
 479 915 603 1090 818 1090 c 2
 972 1090 l 1
977 880 m 1
 947 880 l 2
 759 879 689 852 689 704 c 3
 689 576 748 546 821 546 c 3
 901 546 977 605 977 631 c 2
 977 880 l 1
EndSplineSet
EndChar

StartChar: B
Encoding: 66 66 33
Width: 1229
VWidth: 1947
GlyphClass: 2
Flags: W
HStem: 0 210<340 838.424> 663 210<340 784.457> 1190 210<340 803.304>
VStem: 130 210<210 663 873 1190> 822 210<910.965 1160.44> 889 210<261.96 612.328>
LayerCount: 2
Fore
SplineSet
822 1089 m 2xf8
 822 1162 804 1190 561 1190 c 2
 340 1190 l 1
 340 873 l 1
 561 873 l 2
 813 873 822 937 822 1024 c 2
 822 1089 l 2xf8
889 487 m 2xf4
 889 642 785 663 627 663 c 2
 340 663 l 1
 340 210 l 1
 627 210 l 2
 870 210 889 298 889 350 c 2
 889 487 l 2xf4
1099 350 m 2
 1099 287 1083 0 627 0 c 2
 130 0 l 1
 130 1400 l 1
 561 1400 l 2
 795 1400 1032 1365 1032 1089 c 2
 1032 1024 l 2xf8
 1032 971 1030 874 960 789 c 1
 1054 721 1099 619 1099 487 c 2
 1099 350 l 2
EndSplineSet
EndChar

StartChar: C
Encoding: 67 67 34
Width: 1229
VWidth: 1947
GlyphClass: 2
Flags: W
HStem: -25 210<482.287 794.848> 1043 21G<880.5 962.5> 1215 210<470.587 811.827>
VStem: 130 210<375.949 1058.83>
LayerCount: 2
Fore
SplineSet
652 -25 m 2
 621 -25 l 2
 425 -25 130 84 130 684 c 2
 130 746 l 2
 130 1099 225 1425 620 1425 c 2
 652 1425 l 2
 868 1425 1029 1326 1100 1107 c 1
 900 1043 l 1
 861 1163 789 1215 652 1215 c 2
 620 1215 l 2
 434 1215 340 1100 340 746 c 2
 340 684 l 2
 340 406 408 185 621 185 c 2
 652 185 l 2
 757 185 838 227 885 363 c 1
 1083 295 l 1
 1015 100 874 -25 652 -25 c 2
EndSplineSet
EndChar

StartChar: D
Encoding: 68 68 35
Width: 1229
VWidth: 1947
GlyphClass: 2
Flags: W
HStem: 0 210<340 753.125> 1190 210<340 767.426>
VStem: 130 210<210 1190> 889 210<374.839 1053.2>
LayerCount: 2
Fore
SplineSet
602 1190 m 2
 340 1190 l 1
 340 210 l 1
 602 210 l 2
 716 210 889 252 889 660 c 2
 889 757 l 2
 889 1096 805 1190 602 1190 c 2
1099 757 m 2
 1099 660 l 2
 1099 101 801 0 602 0 c 2
 130 0 l 1
 130 1400 l 1
 602 1400 l 2
 1000 1400 1099 1120 1099 757 c 2
EndSplineSet
EndChar

StartChar: E
Encoding: 69 69 36
Width: 1229
VWidth: 1708
GlyphClass: 2
Flags: W
HStem: 0 211<340 1099> 663 210<340 938> 1190 210<340 1099>
VStem: 130 210<211 663 873 1190>
LayerCount: 2
Fore
SplineSet
340 663 m 1
 340 211 l 1
 1099 211 l 1
 1099 0 l 1
 130 0 l 1
 130 1400 l 1
 1099 1400 l 1
 1099 1190 l 1
 340 1190 l 1
 340 873 l 1
 938 873 l 1
 938 663 l 1
 340 663 l 1
EndSplineSet
EndChar

StartChar: F
Encoding: 70 70 37
Width: 1229
VWidth: 1708
GlyphClass: 2
Flags: W
HStem: -25 21G<130 340> 663 210<340 938> 1190 210<340 1099>
VStem: 130 210<-25 663 873 1190>
LayerCount: 2
Fore
SplineSet
340 663 m 1
 340 -25 l 1
 130 -25 l 1
 130 1400 l 1
 1099 1400 l 1
 1099 1190 l 1
 340 1190 l 1
 340 873 l 1
 938 873 l 1
 938 663 l 1
 340 663 l 1
EndSplineSet
EndChar

StartChar: G
Encoding: 71 71 38
Width: 1229
VWidth: 1947
GlyphClass: 2
Flags: W
HStem: -25 210<486.35 814.842> 505 210<675 889> 1043 21G<880.5 962.5> 1215 210<471.038 811.827>
VStem: 130 210<379.819 1043.19> 889 210<255 505 1102.71 1137.01>
LayerCount: 2
Fore
SplineSet
1099 255 m 1
 1007 18 774 -25 652 -25 c 2
 627 -25 l 2
 428 -25 130 94 130 684 c 2
 130 746 l 2
 130 1238 329 1425 627 1425 c 2
 652 1425 l 2
 868 1425 1029 1326 1100 1107 c 1
 900 1043 l 1
 861 1163 789 1215 652 1215 c 2
 627 1215 l 2
 439 1215 340 1097 340 746 c 2
 340 684 l 2
 340 481 381 185 627 185 c 2
 652 185 l 2
 784 185 861 250 889 298 c 1
 889 505 l 1
 675 505 l 1
 675 715 l 1
 1099 715 l 1
 1099 255 l 1
EndSplineSet
EndChar

StartChar: H
Encoding: 72 72 39
Width: 1229
VWidth: 1947
GlyphClass: 2
Flags: W
HStem: 0 21G<130 340 889 1099> 612 210<340 889> 1380 20G<130 340 889 1099>
VStem: 130 210<0 612 822 1400> 889 210<0 612 822 1400>
LayerCount: 2
Fore
SplineSet
340 -0 m 1
 130 0 l 1
 130 1400 l 1
 340 1400 l 1
 340 822 l 1
 889 822 l 1
 889 1400 l 1
 1099 1400 l 1
 1099 -0 l 1
 889 0 l 1
 889 612 l 1
 340 612 l 1
 340 -0 l 1
EndSplineSet
EndChar

StartChar: I
Encoding: 73 73 40
Width: 1229
VWidth: 1947
GlyphClass: 2
Flags: W
HStem: 0 210<230 511 721 999> 1190 210<230 511 721 999>
VStem: 511 210<210 1190>
LayerCount: 2
Fore
SplineSet
999 1400 m 1
 999 1190 l 1
 721 1190 l 1
 721 210 l 1
 999 210 l 1
 999 0 l 1
 230 0 l 1
 230 210 l 1
 511 210 l 1
 511 1190 l 1
 230 1190 l 1
 230 1400 l 1
 999 1400 l 1
EndSplineSet
EndChar

StartChar: J
Encoding: 74 74 41
Width: 1229
VWidth: 1947
GlyphClass: 2
Flags: W
HStem: -25 210<323.147 629.926> 1190 210<404 687 897 1099>
VStem: 687 210<237.715 1190>
LayerCount: 2
Fore
SplineSet
1099 1400 m 1
 1099 1190 l 1
 897 1190 l 1
 897 368 l 2
 897 140 744 -25 505 -25 c 2
 482 -25 l 2
 293 -25 167 39 100 187 c 1
 292 273 l 1
 315 222 349 185 482 185 c 2
 505 185 l 2
 652 185 687 286 687 368 c 2
 687 1190 l 1
 404 1190 l 1
 404 1400 l 1
 1099 1400 l 1
EndSplineSet
EndChar

StartChar: K
Encoding: 75 75 42
Width: 1229
VWidth: 1947
GlyphClass: 2
Flags: W
HStem: -0 21G<129 339 917.92 1189> 1380 20G<129 339 874.472 1172>
VStem: 129 210<0 451 769 1400>
LayerCount: 2
Fore
SplineSet
129 0 m 1
 129 1400 l 1
 339 1400 l 1
 339 769 l 1
 892 1400 l 1
 1172 1400 l 1
 634 787 l 1
 1189 -0 l 1
 1103 0 1018 0 932 -0 c 1
 492 625 l 1
 339 451 l 1
 339 -0 l 1
 129 0 l 1
EndSplineSet
EndChar

StartChar: L
Encoding: 76 76 43
Width: 1229
VWidth: 1947
GlyphClass: 2
Flags: W
HStem: 0 211<340 1099> 1380 20G<130 340>
VStem: 130 210<211 1400>
LayerCount: 2
Fore
SplineSet
340 211 m 1
 1099 211 l 1
 1099 0 l 1
 130 0 l 1
 130 1400 l 1
 340 1400 l 1
 340 211 l 1
EndSplineSet
EndChar

StartChar: M
Encoding: 77 77 44
Width: 1229
VWidth: 1947
GlyphClass: 2
Flags: W
HStem: 0 21G<66 279.061 950.958 1164> 1380 20G<206.957 430.805 799.255 1023.04>
LayerCount: 2
Fore
SplineSet
66 0 m 1
 209 1400 l 1
 425 1400 l 1
 616 742 l 1
 805 1400 l 1
 1021 1400 l 1
 1164 0 l 1
 1094 0 1023 0 953 0 c 1
 866 852 l 1
 687 232 l 1
 545 232 l 1
 365 854 l 1
 277 0 l 1
 66 0 l 1
EndSplineSet
EndChar

StartChar: N
Encoding: 78 78 45
Width: 1229
VWidth: 1947
GlyphClass: 2
Flags: W
HStem: -0 21G<130 340 908.743 1099> 1380 20G<130 321.262 889 1099>
VStem: 130 210<0 948> 889 210<454 1400>
LayerCount: 2
Fore
SplineSet
340 0 m 1
 130 -0 l 1
 130 1400 l 1
 309 1400 l 1
 889 454 l 1
 889 1400 l 1
 1099 1400 l 1
 1099 -0 l 1
 1040 0 980 0 921 -0 c 1
 340 948 l 1
 340 0 l 1
EndSplineSet
EndChar

StartChar: O
Encoding: 79 79 46
Width: 1229
VWidth: 1947
GlyphClass: 2
Flags: W
HStem: -25 210<473.361 759.225> 1215 210<458.609 775.11>
VStem: 130 210<369.758 1073.76> 889 210<369.083 1073.03>
LayerCount: 2
Fore
SplineSet
625 1215 m 2
 608 1215 l 2
 420 1215 340 1101 340 746 c 2
 340 684 l 2
 340 350 424 185 609 185 c 2
 625 185 l 2
 809 186 889 350 889 684 c 2
 889 748 l 2
 889 1102 814 1215 625 1215 c 2
1099 748 m 2
 1099 684 l 2
 1099 66 815 -24 625 -25 c 2
 609 -25 l 2
 417 -25 130 68 130 684 c 2
 130 746 l 2
 130 1098 211 1425 608 1425 c 2
 625 1425 l 2
 1025 1425 1099 1095 1099 748 c 2
EndSplineSet
EndChar

StartChar: P
Encoding: 80 80 47
Width: 1229
VWidth: 1947
GlyphClass: 2
Flags: W
HStem: 0 21G<130 340> 582 210<340 831.064> 1190 210<340 854.734>
VStem: 130 210<0 582 792 1190> 889 210<849.121 1155.72>
LayerCount: 2
Fore
SplineSet
627 792 m 2
 842 792 889 858 889 986 c 2
 889 1060 l 2
 889 1149 855 1190 627 1190 c 2
 340 1190 l 1
 340 792 l 1
 627 792 l 2
1099 1060 m 2
 1099 986 l 2
 1099 744 966 582 627 582 c 2
 340 582 l 1
 340 -0 l 1
 130 0 l 1
 130 1400 l 1
 627 1400 l 2
 992 1400 1099 1280 1099 1060 c 2
EndSplineSet
EndChar

StartChar: Q
Encoding: 81 81 48
Width: 1229
VWidth: 1947
GlyphClass: 2
Flags: W
HStem: -25 210<473.361 639.939> 1215 210<458.609 775.11>
VStem: 130 210<369.758 1073.76> 889 210<353.173 1073.03>
LayerCount: 2
Fore
SplineSet
1081 -85 m 1
 907 -203 l 1
 770 -4 l 1
 720 -20 670 -25 625 -25 c 2
 609 -25 l 2
 417 -25 130 68 130 684 c 2
 130 746 l 2
 130 1098 211 1425 608 1425 c 2
 625 1425 l 2
 1025 1425 1099 1095 1099 748 c 2
 1099 684 l 2
 1099 389 1034 214 946 112 c 1
 1081 -85 l 1
625 1215 m 2
 608 1215 l 2
 420 1215 340 1101 340 746 c 2
 340 684 l 2
 340 350 424 185 609 185 c 2
 625 185 l 2
 630 185 636 185 641 185 c 1
 529 348 l 1
 703 466 l 1
 819 297 l 1
 867 380 889 508 889 684 c 2
 889 748 l 2
 889 1102 814 1215 625 1215 c 2
EndSplineSet
EndChar

StartChar: R
Encoding: 82 82 49
Width: 1229
VWidth: 1947
GlyphClass: 2
Flags: W
HStem: 0 21G<130 340 938.789 1203> 598 210<340 557> 1190 210<340 854.734>
VStem: 130 210<0 598 808 1190> 889 210<846.805 1146.82>
LayerCount: 2
Fore
SplineSet
1099 943 m 2
 1099 862 1078 664 799 612 c 1
 1203 0 l 1
 1119 0 1036 0 952 0 c 1
 557 598 l 1
 340 598 l 1
 340 -0 l 1
 130 0 l 1
 130 1400 l 1
 627 1400 l 2
 992 1400 1099 1280 1099 1060 c 2
 1099 943 l 2
627 808 m 2
 846 808 889 853 889 943 c 2
 889 1060 l 2
 889 1132 867 1190 627 1190 c 2
 340 1190 l 1
 340 808 l 1
 627 808 l 2
EndSplineSet
EndChar

StartChar: S
Encoding: 83 83 50
Width: 1229
VWidth: 2334
GlyphClass: 2
Flags: W
HStem: -25 210<439.489 793.459> 1215 210<475.278 820.395>
VStem: 128 210<272.972 368> 195 210<909.936 1147.69> 889 210<274.477 507.97>
LayerCount: 2
Fore
SplineSet
604 185 m 2xe8
 627 185 l 2
 867 185 889 368 889 368 c 2
 889 396 l 2
 889 469 858 530 755 566 c 2
 399 691 l 2
 209 758 195 959 195 1033 c 2
 195 1060 l 2
 195 1227 346 1425 613 1425 c 2
 622 1425 l 2
 848 1425 1001 1347 1067 1207 c 1
 877 1117 l 1
 843 1188 739 1215 622 1215 c 2
 613 1215 l 2
 456 1215 405 1107 405 1060 c 2
 405 1033 l 2xd8
 405 965 444 898 469 889 c 2
 827 764 l 2
 950 721 1099 616 1099 396 c 2
 1099 368 l 2
 1099 235 993 -25 627 -25 c 2
 604 -25 l 2
 339 -25 128 159 128 368 c 1
 338 368 l 1
 338 292 440 185 604 185 c 2xe8
EndSplineSet
EndChar

StartChar: T
Encoding: 84 84 51
Width: 1229
VWidth: 1947
GlyphClass: 2
Flags: W
HStem: -0 21G<511 721> 1190 210<130 511 721 1099>
VStem: 511 210<0 1190>
LayerCount: 2
Fore
SplineSet
1099 1400 m 1
 1099 1190 l 1
 721 1190 l 1
 721 0 l 1
 511 -0 l 1
 511 1190 l 1
 130 1190 l 1
 130 1400 l 1
 1099 1400 l 1
EndSplineSet
EndChar

StartChar: U
Encoding: 85 85 52
Width: 1229
VWidth: 1947
GlyphClass: 2
Flags: W
HStem: -25 210<435.251 796.696> 1380 20G<130 340 889 1099>
VStem: 130 210<274.34 1400> 889 210<274.711 1400>
LayerCount: 2
Fore
SplineSet
340 396 m 2
 340 283 421 185 604 185 c 2
 627 185 l 2
 809 185 889 282 889 396 c 2
 889 1400 l 1
 1099 1400 l 1
 1099 396 l 2
 1099 174 935 -25 627 -25 c 2
 604 -25 l 2
 299 -25 130 173 130 396 c 2
 130 1400 l 1
 340 1400 l 1
 340 396 l 2
EndSplineSet
EndChar

StartChar: V
Encoding: 86 86 53
Width: 1229
VWidth: 1708
GlyphClass: 2
Flags: W
HStem: -25 21G<508.628 723.414> 1380 20G<61 287.381 946.581 1174>
LayerCount: 2
Fore
SplineSet
515 -25 m 1
 61 1400 l 1
 281 1400 l 1
 616 350 l 1
 953 1400 l 1
 1174 1400 l 1
 717 -25 l 1
 515 -25 l 1
EndSplineSet
EndChar

StartChar: W
Encoding: 87 87 54
Width: 1229
VWidth: 1947
GlyphClass: 2
Flags: W
HStem: 0 21G<211.986 434.667 796.364 1019.04> 1380 20G<73 286.021 946.957 1160>
LayerCount: 2
Fore
SplineSet
214 0 m 1
 73 1400 l 1
 284 1400 l 1
 369 559 l 1
 543 1174 l 1
 689 1174 l 1
 863 558 l 1
 949 1400 l 1
 1160 1400 l 1
 1017 -0 l 1
 945 0 874 0 802 -0 c 1
 616 660 l 1
 429 0 l 1
 357 0 286 0 214 0 c 1
EndSplineSet
EndChar

StartChar: X
Encoding: 88 88 55
Width: 1229
VWidth: 1947
GlyphClass: 2
Flags: W
HStem: 0 21G<76 332.919 900.04 1157> 1380 20G<76 332.919 900.04 1157>
LayerCount: 2
Fore
SplineSet
76 0 m 1
 494 700 l 1
 76 1400 l 1
 321 1400 l 1
 616 905 l 1
 912 1400 l 1
 1157 1400 l 1
 739 700 l 1
 1157 -0 l 1
 1075 0 994 0 912 -0 c 1
 616 495 l 1
 321 -0 l 1
 239 0 158 0 76 0 c 1
EndSplineSet
EndChar

StartChar: Y
Encoding: 89 89 56
Width: 1229
VWidth: 1947
GlyphClass: 2
Flags: W
HStem: -25 21G<511 721> 1380 20G<73 315.612 917.357 1160>
VStem: 511 210<-25 489>
LayerCount: 2
Fore
SplineSet
511 -25 m 1
 511 489 l 1
 73 1400 l 1
 306 1400 l 1
 616 755 l 1
 927 1400 l 1
 1160 1400 l 1
 721 489 l 1
 721 -25 l 1
 511 -25 l 1
EndSplineSet
EndChar

StartChar: Z
Encoding: 90 90 57
Width: 1229
VWidth: 1947
GlyphClass: 2
Flags: W
HStem: 0 211<400 1099> 1190 210<130 833>
LayerCount: 2
Fore
SplineSet
130 1190 m 1
 130 1400 l 1
 1099 1400 l 1
 1099 1204 l 1
 400 211 l 1
 1099 211 l 1
 1099 0 l 1
 130 0 l 1
 130 192 l 1
 833 1190 l 1
 130 1190 l 1
EndSplineSet
EndChar

StartChar: bracketleft
Encoding: 91 91 58
Width: 1229
VWidth: 1947
GlyphClass: 2
Flags: W
HStem: -185 210<571 892> 1375 210<571 892>
VStem: 361 531<-185 25 1375 1585> 361 210<25 1375>
LayerCount: 2
Fore
SplineSet
571 1375 m 1xd0
 571 25 l 1xd0
 892 25 l 1
 892 -185 l 1
 361 -185 l 1
 361 1585 l 1
 892 1585 l 1
 892 1375 l 1xe0
 571 1375 l 1xd0
EndSplineSet
EndChar

StartChar: backslash
Encoding: 92 92 59
Width: 1229
VWidth: 1708
GlyphClass: 2
Flags: W
LayerCount: 2
Fore
SplineSet
142 1376 m 1
 328 1474 l 1
 1087 24 l 1
 901 -74 l 1
 142 1376 l 1
EndSplineSet
EndChar

StartChar: bracketright
Encoding: 93 93 60
Width: 1229
VWidth: 1947
GlyphClass: 2
Flags: W
HStem: -185 210<310 661> 1375 210<310 661>
VStem: 310 561<-185 25 1375 1585> 661 210<25 1375>
LayerCount: 2
Fore
SplineSet
310 1585 m 1xe0
 871 1585 l 1
 871 -185 l 1
 310 -185 l 1
 310 25 l 1xe0
 661 25 l 1
 661 1375 l 1xd0
 310 1375 l 1
 310 1585 l 1xe0
EndSplineSet
EndChar

StartChar: asciicircum
Encoding: 94 94 61
Width: 1229
VWidth: 1947
GlyphClass: 2
Flags: W
HStem: 900 525
LayerCount: 2
Fore
SplineSet
713 1425 m 1
 1026 1030 l 1
 862 900 l 1
 616 1209 l 1
 370 900 l 1
 206 1030 l 1
 519 1425 l 1
 713 1425 l 1
EndSplineSet
EndChar

StartChar: underscore
Encoding: 95 95 62
Width: 1229
VWidth: 1947
GlyphClass: 2
Flags: W
HStem: -197 210<272 959>
LayerCount: 2
Fore
SplineSet
959 13 m 1
 959 -197 l 1
 272 -197 l 1
 272 13 l 1
 959 13 l 1
EndSplineSet
EndChar

StartChar: grave
Encoding: 96 96 63
Width: 1229
VWidth: 1708
GlyphClass: 2
Flags: W
HStem: 972 491
VStem: 369 492
LayerCount: 2
Fore
SplineSet
842 1139 m 2
 856 1123 861 1100 861 1076 c 3
 861 1048 853 1019 835 1000 c 0
 814 980 785 972 759 972 c 3
 733 972 710 979 694 991 c 2
 421 1214 l 2
 390 1239 369 1282 369 1329 c 3
 369 1364 380 1399 406 1425 c 0
 432 1451 468 1463 502 1463 c 3
 549 1463 593 1440 619 1411 c 2
 842 1139 l 2
EndSplineSet
EndChar

StartChar: a
Encoding: 97 97 64
Width: 1229
VWidth: 1947
GlyphClass: 2
Flags: W
HStem: -25 210<374.433 792.523> 0 21G<889 1099> 453 210<405.455 889> 839 210<400.776 827.652>
VStem: 130 210<223.428 399.448> 889 210<0 48 266.073 453 663 782.295>
LayerCount: 2
Fore
SplineSet
130 350 m 2xbc
 130 455 222 663 604 663 c 2
 889 663 l 1
 889 677 l 2
 889 747 858 839 627 839 c 2
 604 839 l 2
 445 839 382 795 359 758 c 1
 179 866 l 1
 258 997 417 1049 604 1049 c 2
 627 1049 l 2
 1015 1049 1099 826 1099 677 c 2
 1099 -0 l 1
 889 0 l 1x7c
 889 48 l 1
 822 11 732 -25 627 -25 c 2
 604 -25 l 2
 287 -25 130 162 130 296 c 2
 130 350 l 2xbc
604 453 m 2
 375 453 341 352 340 347 c 2
 340 296 l 2
 340 234 390 185 604 185 c 2
 627 185 l 2xbc
 799 185 889 305 889 326 c 2
 889 453 l 1
 604 453 l 2
EndSplineSet
EndChar

StartChar: b
Encoding: 98 98 65
Width: 1229
VWidth: 2334
GlyphClass: 2
Flags: W
HStem: -25 210<459.61 791.858> 0 21G<130 340> 839 210<433.457 797.109> 1380 20G<130 340>
VStem: 130 210<0 54 301.602 749.358 986 1400> 889 210<287.213 748.573>
LayerCount: 2
Fore
SplineSet
604 1049 m 2x7c
 627 1049 l 2
 945 1049 1099 843 1099 592 c 2
 1099 452 l 2
 1099 178 924 -25 627 -25 c 2
 604 -25 l 2xbc
 506 -25 416 4 340 54 c 1
 340 -0 l 1
 130 0 l 1
 130 1400 l 1
 340 1400 l 1
 340 986 l 1
 412 1027 501 1049 604 1049 c 2x7c
340 452 m 2
 340 302 457 185 604 185 c 2
 627 185 l 2
 837 185 889 329 889 452 c 2
 889 592 l 2
 889 716 837 839 627 839 c 2
 604 839 l 2
 406 839 340 729 340 592 c 2
 340 452 l 2
EndSplineSet
EndChar

StartChar: c
Encoding: 99 99 66
Width: 1229
VWidth: 2334
GlyphClass: 2
Flags: W
HStem: -25 210<452.277 819.064> 838 210<432.578 837.197>
VStem: 130 210<290.472 748.121>
LayerCount: 2
Fore
SplineSet
878 748 m 1
 859 783 815 838 627 838 c 2
 604 838 l 2
 404 838 340 727 340 592 c 2
 340 433 l 2
 340 283 456 185 604 185 c 2
 627 185 l 2
 738 185 843 213 878 285 c 1
 1068 193 l 1
 1000 53 842 -25 627 -25 c 2
 604 -25 l 2
 343 -25 130 163 130 433 c 2
 130 592 l 2
 130 845 289 1048 604 1048 c 2
 627 1048 l 2
 885 1048 1000 965 1070 832 c 1
 878 748 l 1
EndSplineSet
EndChar

StartChar: d
Encoding: 100 100 67
Width: 1229
VWidth: 1947
GlyphClass: 2
Flags: W
HStem: -25 210<452.277 798.229> 0 21G<889 1099> 839 210<438.347 797.109> 1380 20G<889 1099>
VStem: 130 210<290.844 745.773> 889 210<0 36 270.689 748.596 987 1400>
LayerCount: 2
Fore
SplineSet
604 1049 m 2xbc
 627 1049 l 2
 732 1049 819 1026 889 987 c 1
 889 1400 l 1
 1099 1400 l 1
 1099 -0 l 1
 889 0 l 1x7c
 889 36 l 1
 820 -3 734 -25 627 -25 c 2
 604 -25 l 2
 343 -25 130 164 130 433 c 2
 130 592 l 2
 130 863 307 1049 604 1049 c 2xbc
340 592 m 2
 340 433 l 2
 340 282 456 185 604 185 c 2
 627 185 l 2xbc
 828 185 889 296 889 433 c 2
 889 592 l 2
 889 716 837 839 627 839 c 2
 604 839 l 2
 406 839 340 729 340 592 c 2
EndSplineSet
EndChar

StartChar: e
Encoding: 101 101 68
Width: 1229
VWidth: 1947
GlyphClass: 2
Flags: W
HStem: -25 210<438.347 826.207> 453 210<340 889> 839 210<424.914 806.642>
VStem: 130 210<274.948 453 663 760.303>
LayerCount: 2
Fore
SplineSet
340 453 m 1
 340 378 l 2
 340 302 413 185 604 185 c 2
 627 185 l 2
 796 185 861 242 880 290 c 1
 1076 214 l 1
 1020 70 867 -25 627 -25 c 2
 604 -25 l 2
 307 -25 130 176 130 378 c 2
 130 649 l 2
 130 875 302 1049 604 1049 c 2
 627 1049 l 2
 931 1049 1099 874 1099 649 c 2
 1099 453 l 1
 340 453 l 1
340 663 m 1
 889 663 l 1
 881 803 745 839 627 839 c 2
 604 839 l 2
 489 839 349 803 340 663 c 1
EndSplineSet
EndChar

StartChar: f
Encoding: 102 102 69
Width: 1229
VWidth: 1947
GlyphClass: 2
Flags: W
HStem: 0 21G<377 587> 728 210<235 377 587 901> 1215 210<609.716 850.314>
VStem: 377 210<0 728 938 1191.16>
LayerCount: 2
Fore
SplineSet
726 1215 m 2
 609 1215 587 1141 587 1133 c 2
 587 938 l 1
 901 938 l 1
 901 728 l 1
 587 728 l 1
 587 -0 l 1
 377 0 l 1
 377 728 l 1
 235 728 l 1
 235 938 l 1
 377 938 l 1
 377 1133 l 2
 377 1191 413 1425 726 1425 c 2
 750 1425 l 2
 876 1425 1009 1340 1065 1245 c 1
 883 1139 l 1
 866 1168 803 1215 750 1215 c 2
 726 1215 l 2
EndSplineSet
EndChar

StartChar: g
Encoding: 103 103 70
Width: 1229
VWidth: 1947
GlyphClass: 2
Flags: W
HStem: -454 210<404.887 823.182> -18 210<418.142 844.591> 295 210<437.367 789.629> 839 210<424.141 806.226> 1014 20G<1084 1125>
VStem: 130 210<-187.406 -85.2574 591.031 760.774> 148 210<158.534 337.648> 889 210<-182.048 -63.3547 586.541 767.846>
LayerCount: 2
Fore
SplineSet
215 462 m 1xeb
 180 502 130 572 130 662 c 2
 130 705 l 2
 130 1020 536 1049 604 1049 c 2
 627 1049 l 2xf5
 750 1049 849 1012 920 970 c 1
 970 1005 1043 1034 1125 1034 c 1
 1125 824 l 1
 1108 824 1089 821 1073 815 c 1
 1089 782 1099 745 1099 705 c 2
 1099 662 l 2
 1099 372 774 295 627 295 c 2
 604 295 l 2
 522 295 448 316 390 340 c 1
 376 328 358 289 358 278 c 2
 358 216 l 2xeb
 358 206 383 169 402 158 c 1
 467 180 537 192 604 192 c 2
 627 192 l 2
 942 192 1099 1 1099 -127 c 2
 1099 -147 l 2
 1099 -406 687 -454 627 -454 c 2
 604 -454 l 2
 252 -454 130 -263 130 -147 c 2
 130 -127 l 2xed
 130 -62 160 -3 209 45 c 1
 169 90 148 161 148 216 c 2
 148 278 l 2
 148 343 178 419 215 462 c 1xeb
889 705 m 2
 889 732 813 839 627 839 c 2
 604 839 l 2
 464 839 340 757 340 705 c 2
 340 662 l 2
 340 618 438 505 604 505 c 2
 627 505 l 2
 762 505 889 596 889 662 c 2
 889 705 l 2
627 -244 m 2
 779 -244 889 -173 889 -147 c 2
 889 -133 l 2
 889 -65 798 -18 627 -18 c 2
 604 -18 l 2
 426 -18 340 -119 340 -127 c 2
 340 -147 l 2
 340 -154 396 -244 604 -244 c 2
 627 -244 l 2
EndSplineSet
EndChar

StartChar: h
Encoding: 104 104 71
Width: 1229
VWidth: 2334
GlyphClass: 2
Flags: W
HStem: -0 21G<130 340 889 1099> 839 210<464.794 805.44> 1380 20G<130 340>
VStem: 130 210<0 705.403 958 1400> 889 210<0 765.814>
LayerCount: 2
Fore
SplineSet
604 839 m 2
 415 839 340 636 340 592 c 2
 340 -0 l 1
 130 -0 l 1
 130 1400 l 1
 340 1400 l 1
 340 958 l 1
 407 1006 494 1049 604 1049 c 2
 627 1049 l 2
 928 1049 1099 870 1099 677 c 2
 1099 0 l 1
 889 -0 l 1
 889 677 l 2
 889 763 793 839 627 839 c 2
 604 839 l 2
EndSplineSet
EndChar

StartChar: k
Encoding: 107 107 74
Width: 1229
VWidth: 1947
GlyphClass: 2
Flags: W
HStem: -0 21G<130 340 873.08 1165> 1405 20G<130 340>
VStem: 130 210<0 343 623 1425>
LayerCount: 2
Fore
SplineSet
130 0 m 1
 130 1425 l 1
 340 1425 l 1
 340 623 l 1
 925 1139 l 1
 1063 981 l 1
 646 613 l 1
 1165 0 l 1
 1073 0 982 0 890 -0 c 1
 489 474 l 1
 340 343 l 1
 340 -0 l 1
 130 0 l 1
EndSplineSet
EndChar

StartChar: l
Encoding: 108 108 75
Width: 1229
VWidth: 1947
GlyphClass: 2
Flags: W
HStem: 0 210<235 511 721 994> 1190 210<235 511>
VStem: 511 210<210 1190>
LayerCount: 2
Fore
SplineSet
235 1400 m 1
 721 1400 l 1
 721 210 l 1
 994 210 l 1
 994 0 l 1
 235 0 l 1
 235 210 l 1
 511 210 l 1
 511 1190 l 1
 235 1190 l 1
 235 1400 l 1
EndSplineSet
EndChar

StartChar: m
Encoding: 109 109 76
Width: 1229
VWidth: 2334
GlyphClass: 2
Flags: W
HStem: 0 21G<66 276 511 721 957 1167> 839 210<319.089 507.226 758.798 944.054> 1004 20G<66 276>
VStem: 66 210<0 796.26 1004 1024> 511 210<0 803.433> 957 210<0 823.045>
LayerCount: 2
Fore
SplineSet
645 968 m 1xdc
 736 1048 800 1049 842 1049 c 2
 856 1049 l 2
 1036 1049 1167 934 1167 761 c 2
 1167 0 l 1
 957 0 l 1
 957 761 l 2
 957 783 947 839 856 839 c 2
 842 839 l 2
 746 839 721 726 721 677 c 2
 721 -0 l 1
 511 -0 l 1
 511 761 l 2
 511 817 493 839 433 839 c 2
 418 839 l 2xdc
 313 839 276 738 276 685 c 2
 276 0 l 1
 66 0 l 1
 66 1024 l 1
 276 1024 l 1
 276 1004 l 1xbc
 321 1027 354 1043 418 1049 c 2
 433 1049 l 2
 521 1049 594 1020 645 968 c 1xdc
EndSplineSet
EndChar

StartChar: n
Encoding: 110 110 77
Width: 1229
VWidth: 2334
GlyphClass: 2
Flags: W
HStem: -0 21G<130 340 889 1099> 839 210<482.804 816.689> 1004 20G<130 340>
VStem: 130 210<0 688.365 952 1024> 889 210<0 778.873>
LayerCount: 2
Fore
SplineSet
889 668 m 2xd8
 889 805 759 839 627 839 c 2
 604 839 l 2xd8
 454 839 340 644 340 573 c 2
 340 -0 l 1
 130 -0 l 1
 130 1024 l 1
 340 1024 l 1xb8
 340 952 l 1
 414 1010 503 1049 604 1049 c 2
 627 1049 l 2
 928 1049 1099 897 1099 668 c 2
 1099 0 l 1
 889 -0 l 1
 889 668 l 2xd8
EndSplineSet
EndChar

StartChar: o
Encoding: 111 111 78
Width: 1229
VWidth: 1947
GlyphClass: 2
Flags: W
HStem: -25 210<442.303 784.072> 838 210<431.939 795.246>
VStem: 130 210<287.568 742.874> 889 210<294.075 743.535>
LayerCount: 2
Fore
SplineSet
640 838 m 2
 587 838 l 2
 438 838 340 765 340 558 c 2
 340 484 l 2
 340 317 400 185 589 185 c 2
 636 185 l 2
 790 185 889 264 889 483 c 2
 889 559 l 2
 889 766 789 838 640 838 c 2
1099 559 m 2
 1099 483 l 2
 1099 196 952 -25 636 -25 c 2
 589 -25 l 2
 276 -25 130 203 130 484 c 2
 130 558 l 2
 130 842 283 1048 587 1048 c 2
 640 1048 l 2
 944 1048 1099 843 1099 559 c 2
EndSplineSet
EndChar

StartChar: p
Encoding: 112 112 79
Width: 1229
VWidth: 1947
GlyphClass: 2
Flags: W
HStem: -385 21G<130 340> -25 210<450.218 791.858> 839 210<433.457 797.109> 1004 20G<130 340>
VStem: 130 210<-385 48 288.174 749.358 986 1024> 889 210<287.213 748.573>
LayerCount: 2
Fore
SplineSet
340 -385 m 1xec
 130 -385 l 1
 130 1024 l 1
 340 1024 l 1xdc
 340 986 l 1
 412 1027 501 1049 604 1049 c 2
 627 1049 l 2
 945 1049 1099 843 1099 592 c 2
 1099 452 l 2
 1099 178 924 -25 627 -25 c 2
 604 -25 l 2
 506 -25 416 1 340 48 c 1
 340 -385 l 1xec
340 433 m 2
 340 282 456 185 604 185 c 2
 627 185 l 2
 837 185 889 329 889 452 c 2
 889 592 l 2
 889 716 837 839 627 839 c 2
 604 839 l 2xec
 406 839 340 729 340 592 c 2
 340 433 l 2
EndSplineSet
EndChar

StartChar: q
Encoding: 113 113 80
Width: 1229
VWidth: 1947
GlyphClass: 2
Flags: W
HStem: -385 21G<889 1099> -25 210<451.958 790.214> 839 210<439.121 797.109> 1004 20G<889 1099>
VStem: 130 210<299.921 743.719> 889 210<-385 42 287.213 748.596 987 1024>
LayerCount: 2
Fore
SplineSet
604 1049 m 2xec
 627 1049 l 2xec
 732 1049 819 1026 889 987 c 1
 889 1024 l 1
 1099 1024 l 1xdc
 1099 -385 l 1
 889 -385 l 1
 889 42 l 1
 818 -1 730 -25 627 -25 c 2
 604 -25 l 2
 341 -25 130 174 130 443 c 2
 130 592 l 2
 130 887 309 1049 604 1049 c 2xec
340 592 m 2
 340 443 l 2
 340 288 460 185 604 185 c 2
 627 185 l 2
 837 185 889 329 889 452 c 2
 889 592 l 2
 889 716 837 839 627 839 c 2
 604 839 l 2
 406 839 340 729 340 592 c 2
EndSplineSet
EndChar

StartChar: r
Encoding: 114 114 81
Width: 1229
VWidth: 1947
GlyphClass: 2
Flags: W
HStem: -0 21G<130 340> 839 210<553.574 905.11> 1004 20G<130 340>
VStem: 130 210<0 618.867 899 1024>
LayerCount: 2
Fore
SplineSet
723 839 m 2xd0
 700 839 l 2xd0
 516 839 340 628 340 473 c 2
 340 -0 l 1
 130 -0 l 1
 130 1024 l 1
 340 1024 l 1xb0
 340 899 l 1
 440 989 566 1049 700 1049 c 2
 723 1049 l 2
 892 1049 1012 1005 1089 904 c 1
 923 776 l 1
 902 803 860 839 723 839 c 2xd0
EndSplineSet
EndChar

StartChar: s
Encoding: 115 115 82
Width: 1229
VWidth: 1947
GlyphClass: 2
Flags: W
HStem: -25 210<399.747 857.196> 839 210<406.31 803.431>
VStem: 130 210<248.52 331> 171 210<705.374 808.292> 889 210<224.804 371.183>
LayerCount: 2
Fore
SplineSet
627 185 m 2xe8
 783 185 889 222 889 273 c 2
 889 316 l 2
 889 329 868 367 831 377 c 2
 387 493 l 2
 226 535 171 671 171 759 c 2
 171 770 l 2
 171 882 243 1049 604 1049 c 2
 627 1049 l 2
 787 1049 972 982 1058 846 c 1
 880 734 l 1
 851 779 757 839 627 839 c 2
 604 839 l 2
 429 839 381 784 381 770 c 2
 381 759 l 2xd8
 381 751 392 709 437 697 c 2
 883 581 l 2
 1003 550 1099 435 1099 316 c 2
 1099 273 l 2
 1099 57 877 -25 627 -25 c 2
 563 -25 l 2
 380 -25 130 97 130 331 c 1
 340 331 l 1
 340 304 370 185 563 185 c 2
 627 185 l 2xe8
EndSplineSet
EndChar

StartChar: t
Encoding: 116 116 83
Width: 1229
VWidth: 1947
GlyphClass: 2
Flags: W
HStem: -25 210<598.447 819.479> 799 210<131 382 608 901> 1405 20G<427.51 639>
VStem: 348 210<228.352 518.499>
LayerCount: 2
Fore
SplineSet
723 -25 m 2
 700 -25 l 2
 514 -25 348 124 348 314 c 1
 382 799 l 1
 131 799 l 1
 131 1009 l 1
 398 1009 l 1
 429 1425 l 1
 639 1425 l 1
 608 1009 l 1
 901 1009 l 1
 901 799 l 1
 593 799 l 1
 558 326 l 1
 558 314 l 2
 558 248 621 185 700 185 c 2
 723 185 l 2
 801 185 841 250 852 274 c 1
 1044 188 l 1
 1003 97 894 -25 723 -25 c 2
EndSplineSet
EndChar

StartChar: u
Encoding: 117 117 84
Width: 1229
VWidth: 2334
GlyphClass: 2
Flags: W
HStem: -25 210<405.991 726.767> 0 21G<889 1099> 1004 20G<130 340 889 1099>
VStem: 130 210<253.224 1024> 889 210<0 93 366.096 1024>
LayerCount: 2
Fore
SplineSet
601 185 m 2xb8
 778 185 886 419 889 480 c 1
 889 1024 l 1
 1099 1024 l 1
 1099 -0 l 1
 889 0 l 1x78
 889 93 l 1
 815 31 720 -25 601 -25 c 2
 576 -25 l 2
 260 -25 130 167 130 378 c 2
 130 1024 l 1
 340 1024 l 1
 340 378 l 2
 340 280 381 185 576 185 c 2
 601 185 l 2xb8
EndSplineSet
EndChar

StartChar: v
Encoding: 118 118 85
Width: 1229
VWidth: 1947
GlyphClass: 2
Flags: W
HStem: -25 21G<539.039 692.961> 1004 20G<78 316.967 915.034 1154>
LayerCount: 2
Fore
SplineSet
548 -25 m 1
 78 1024 l 1
 308 1024 l 1
 616 337 l 1
 924 1024 l 1
 1154 1024 l 1
 684 -25 l 1
 548 -25 l 1
EndSplineSet
EndChar

StartChar: w
Encoding: 119 119 86
Width: 1229
VWidth: 1947
GlyphClass: 2
Flags: W
HStem: 0 21G<213.934 400.116 831.884 1018.09> 1004 20G<60 276.043 956.92 1173>
LayerCount: 2
Fore
SplineSet
217 0 m 1
 60 1024 l 1
 273 1024 l 1
 357 472 l 1
 538 919 l 1
 694 919 l 1
 875 472 l 1
 960 1024 l 1
 1173 1024 l 1
 1015 -0 l 1
 957 0 898 0 840 -0 c 1
 616 552 l 1
 392 -0 l 1
 334 0 275 0 217 0 c 1
EndSplineSet
EndChar

StartChar: x
Encoding: 120 120 87
Width: 1229
VWidth: 1947
GlyphClass: 2
Flags: W
HStem: 0 21G<76 360.941 872 1156> 1004 20G<70 354.92 878.023 1163>
LayerCount: 2
Fore
SplineSet
76 0 m 1
 482 508 l 1
 70 1024 l 1
 339 1024 l 1
 616 676 l 1
 894 1024 l 1
 1163 1024 l 1
 751 508 l 1
 1156 0 l 1
 1066 0 978 0 888 0 c 1
 616 340 l 1
 345 -0 l 1
 255 0 166 0 76 0 c 1
EndSplineSet
EndChar

StartChar: y
Encoding: 121 121 88
Width: 1229
VWidth: 1947
GlyphClass: 2
Flags: W
HStem: -399 210<312.836 537.986> 1004 20G<83 341.152 949.151 1178>
LayerCount: 2
Fore
SplineSet
1178 1024 m 1
 779 -142 l 2
 725 -300 608 -399 444 -399 c 2
 417 -399 l 2
 329 -399 209 -342 124 -266 c 2
 105 -249 l 1
 243 -91 l 1
 273 -117 l 2
 319 -157 381 -189 417 -189 c 2
 444 -189 l 2
 506 -189 551 -159 579 -78 c 2
 642 106 l 1
 83 1024 l 1
 329 1024 l 1
 730 364 l 1
 956 1024 l 1
 1178 1024 l 1
EndSplineSet
EndChar

StartChar: z
Encoding: 122 122 89
Width: 1229
VWidth: 1947
GlyphClass: 2
Flags: W
HStem: 0 210<435 1097> 814 210<148 759>
LayerCount: 2
Fore
SplineSet
129 207 m 1
 759 814 l 1
 148 814 l 1
 148 1024 l 1
 1097 1024 l 1
 1097 847 l 1
 435 210 l 1
 1097 210 l 1
 1097 0 l 1
 129 0 l 1
 129 207 l 1
EndSplineSet
EndChar

StartChar: braceleft
Encoding: 123 123 90
Width: 1229
VWidth: 1947
GlyphClass: 2
Flags: W
HStem: -185 210<729.229 920> 612 210<309 448.114> 1375 210<728.486 920>
VStem: 482 210<65.488 580.261 843.064 1336.66>
LayerCount: 2
Fore
SplineSet
374 822 m 2
 417 822 482 845 482 940 c 2
 482 1221 l 2
 482 1442 633 1585 837 1585 c 2
 920 1585 l 1
 920 1375 l 1
 837 1375 l 2
 761 1375 692 1336 692 1221 c 2
 692 940 l 2
 692 906 689 803 602 709 c 1
 669 624 692 518 692 436 c 2
 692 183 l 2
 692 64 762 25 837 25 c 2
 920 25 l 1
 920 -185 l 1
 837 -185 l 2
 635 -185 482 -42 482 183 c 2
 482 436 l 2
 482 460 475 612 374 612 c 2
 309 612 l 1
 309 822 l 1
 374 822 l 2
EndSplineSet
EndChar

StartChar: bar
Encoding: 124 124 91
Width: 1229
VWidth: 1947
GlyphClass: 2
Flags: W
VStem: 510 210<-77 1477>
LayerCount: 2
Fore
SplineSet
510 1477 m 1
 720 1477 l 1
 720 -77 l 1
 510 -77 l 1
 510 1477 l 1
EndSplineSet
EndChar

StartChar: braceright
Encoding: 125 125 92
Width: 1229
VWidth: 1947
GlyphClass: 2
Flags: W
HStem: -185 210<309 490.771> 612 210<771.886 920> 1375 210<309 491.514>
VStem: 528 210<65.488 582.159 843.064 1336.66>
LayerCount: 2
Fore
SplineSet
618 709 m 1
 531 803 528 906 528 940 c 2
 528 1221 l 2
 528 1336 459 1375 383 1375 c 2
 309 1375 l 1
 309 1585 l 1
 383 1585 l 2
 587 1585 738 1442 738 1221 c 2
 738 940 l 2
 738 845 803 822 846 822 c 2
 920 822 l 1
 920 612 l 1
 846 612 l 2
 745 612 738 460 738 436 c 2
 738 183 l 2
 738 -42 585 -185 383 -185 c 2
 309 -185 l 1
 309 25 l 1
 383 25 l 2
 458 25 528 64 528 183 c 2
 528 436 l 2
 528 530 556 630 618 709 c 1
EndSplineSet
EndChar

StartChar: asciitilde
Encoding: 126 126 93
Width: 1229
VWidth: 1947
GlyphClass: 2
Flags: W
HStem: 706 210<692.082 808.346> 842 210<435.376 558>
LayerCount: 2
Fore
SplineSet
464 1052 m 2x40
 478 1052 l 2x40
 573 1052 598 1038 660 986 c 2
 728 929 l 2
 739 920 746 916 753 916 c 2
 767 916 l 2
 767 916 801 929 813 974 c 1
 1015 920 l 1
 979 787 866 706 767 706 c 2
 753 706 l 2x80
 701 706 630 737 594 767 c 2
 522 828 l 2
 512 837 501 842 487 842 c 2
 476 842 l 2
 463 842 439 819 417 774 c 1
 219 846 l 2
 219 846 307 1052 464 1052 c 2x40
EndSplineSet
EndChar

StartChar: cent
Encoding: 162 162 96
Width: 1229
VWidth: 2334
GlyphClass: 2
Flags: W
HStem: -25 208<648 851.181> 840 209<438.734 612>
VStem: 130 210<291.962 746.16>
LayerCount: 2
Fore
SplineSet
1068 165 m 1
 1014 0 714 -25 627 -25 c 2
 590 -25 l 1
 559 -138 l 1
 357 -82 l 1
 386 22 l 1
 234 95 130 245 130 433 c 2
 130 592 l 2
 130 864 308 1049 604 1049 c 2
 670 1049 l 1
 710 1195 l 1
 912 1139 l 1
 878 1017 l 1
 994 986 1058 884 1070 850 c 1
 878 766 l 1
 868 784 860 798 822 814 c 1
 648 183 l 1
 821 186 863 227 878 257 c 1
 1068 165 l 1
443 231 m 1
 612 840 l 1
 604 840 l 2
 405 840 340 728 340 592 c 2
 340 433 l 2
 340 345 380 274 443 231 c 1
EndSplineSet
EndChar

StartChar: sterling
Encoding: 163 163 97
Width: 1229
VWidth: 1947
GlyphClass: 2
Flags: W
HStem: -25 210<634.809 972.89> 46 209<506 624.81> 611 210<130 201 575 884> 1215 210<398.49 813.882>
VStem: 130 210<923.41 1161.64> 377 210<376.013 609.5>
LayerCount: 2
Fore
SplineSet
587 473 m 2xbc
 587 411 564 321 506 255 c 1x7c
 547 253 609 244 659 219 c 2
 706 194 l 2
 712 191 761 185 775 185 c 2
 823 185 l 2
 884 185 930 202 975 231 c 1
 1089 55 l 1
 1015 7 931 -25 823 -25 c 2
 775 -25 l 2xbc
 709 -25 639 -6 610 8 c 2
 563 33 l 2
 548 41 515 46 481 46 c 2
 443 46 l 2x7c
 346 46 236 35 161 -7 c 2
 122 -29 l 1
 20 155 l 1
 75 185 l 2
 194 250 377 364 377 473 c 2
 377 516 l 2
 377 539 369 580 355 611 c 1
 130 611 l 1
 130 821 l 1
 201 821 l 1
 166 879 130 961 130 1043 c 2
 130 1078 l 2
 130 1217 204 1425 604 1425 c 2
 627 1425 l 2
 761 1425 914 1387 1011 1285 c 1
 859 1139 l 1
 829 1170 756 1215 627 1215 c 2
 604 1215 l 2
 501 1215 340 1198 340 1078 c 2
 340 1043 l 2
 340 998 375 935 399 902 c 2
 462 821 l 1
 884 821 l 1
 884 611 l 1
 575 611 l 1
 583 579 587 547 587 516 c 2
 587 473 l 2xbc
EndSplineSet
EndChar

StartChar: euro
Encoding: 8364 8364 98
Width: 1229
VWidth: 1947
GlyphClass: 2
Flags: W
HStem: -25 210<485.913 797.272> 429 210<100 214 424 647> 729 210<148 214 424 824> 1040 21G<870.5 956.333> 1215 210<494.566 822.025>
VStem: 214 210<244.394 429 639 729 939 1147.9>
LayerCount: 2
Fore
SplineSet
148 729 m 1
 148 939 l 1
 214 939 l 1
 214 1060 l 2
 214 1206 334 1425 654 1425 c 2
 680 1425 l 2
 925 1425 1033 1293 1091 1100 c 1
 889 1040 l 1
 852 1163 812 1215 680 1215 c 2
 654 1215 l 2
 451 1215 424 1091 424 1060 c 2
 424 939 l 1
 824 939 l 1
 824 729 l 1
 424 729 l 1
 424 639 l 1
 647 639 l 1
 647 429 l 1
 424 429 l 1
 424 377 l 2
 424 262 481 185 655 185 c 2
 680 185 l 2
 781 185 825 226 872 352 c 1
 1068 278 l 1
 1009 120 913 -25 680 -25 c 2
 655 -25 l 2
 340 -25 214 169 214 377 c 2
 214 429 l 1
 100 429 l 1
 100 639 l 1
 214 639 l 1
 214 729 l 1
 148 729 l 1
EndSplineSet
EndChar

StartChar: yen
Encoding: 165 165 99
Width: 1229
VWidth: 1947
GlyphClass: 2
Flags: W
HStem: 16 180<231 511 721 994> 317 180<231 507 725 994> 1380 20G<73 315.612 917.357 1160>
VStem: 511 210<-160 16 196 317>
LayerCount: 2
Fore
SplineSet
994 497 m 1
 994 317 l 1
 721 317 l 1
 721 196 l 1
 994 196 l 1
 994 16 l 1
 721 16 l 1
 721 -160 l 1
 511 -160 l 1
 511 16 l 1
 231 16 l 1
 231 196 l 1
 511 196 l 1
 511 317 l 1
 231 317 l 1
 231 497 l 1
 507 497 l 1
 73 1400 l 1
 306 1400 l 1
 616 755 l 1
 927 1400 l 1
 1160 1400 l 1
 725 497 l 1
 994 497 l 1
EndSplineSet
EndChar

StartChar: section
Encoding: 167 167 101
Width: 1229
VWidth: 1947
GlyphClass: 2
Flags: W
HStem: -199 210<515.906 774.224> 289 210<423.618 796.273> 872 210<462.578 796.125> 1385 210<458.148 714.328>
VStem: 130 210<573.158 795.291> 196 210<1133.55 1333.48> 833 210<67.3318 248.223> 889 210<575.367 791.536>
LayerCount: 2
Fore
SplineSet
627 1082 m 2xf4
 1041 1082 1099 784 1099 709 c 2
 1099 666 l 2xf5
 1099 640 1099 503 949 390 c 1
 1035 309 1043 217 1043 196 c 2
 1043 175 l 2
 1043 -22 890 -199 665 -199 c 2
 643 -199 l 2
 469 -199 306 -84 240 69 c 1
 432 153 l 1
 468 70 559 11 643 11 c 2
 665 11 l 2
 772 11 833 92 833 175 c 2
 833 196 l 2
 833 243 731 289 627 289 c 2
 604 289 l 2
 292 289 130 486 130 666 c 2
 130 709 l 2xfa
 130 726 130 900 295 992 c 1
 196 1086 196 1177 196 1204 c 2
 196 1225 l 2
 196 1403 339 1595 566 1595 c 2
 589 1595 l 2
 761 1595 920 1481 987 1334 c 1
 795 1246 l 1
 759 1325 672 1385 589 1385 c 2
 566 1385 l 2
 463 1385 406 1294 406 1225 c 2
 406 1204 l 2
 406 1147 501 1082 605 1082 c 2
 627 1082 l 2xf4
889 709 m 2
 889 787 766 872 627 872 c 2
 604 872 l 2
 448 872 340 788 340 709 c 2
 340 666 l 2xf9
 340 606 406 499 604 499 c 2
 627 499 l 2
 778 499 889 580 889 666 c 2
 889 709 l 2
EndSplineSet
EndChar

StartChar: copyright
Encoding: 169 169 103
Width: 1229
VWidth: 1947
GlyphClass: 2
Flags: W
HStem: -5 190<422.289 808.997> 270 210<534.944 740.079> 694 210<534.388 739.346> 1021 190<436.676 796.293>
VStem: 6 190<404.97 772.46> 306 210<498.157 676.224> 1033 190<408.318 775.846>
LayerCount: 2
Fore
SplineSet
855 365 m 1
 839 345 761 270 624 270 c 3
 429 270 306 413 306 587 c 3
 306 765 426 904 624 904 c 3
 678 904 774 897 855 811 c 1
 703 667 l 1
 688 683 656 694 623 694 c 3
 571 694 516 667 516 587 c 3
 516 535 541 480 624 480 c 3
 669 480 697 503 703 509 c 1
 855 365 l 1
615 1021 m 3
 364 1021 196 796 196 587 c 3
 196 384 356 185 615 185 c 3
 878 185 1033 393 1033 587 c 3
 1033 794 873 1021 615 1021 c 3
1223 588 m 3
 1223 289 983 -5 615 -5 c 3
 250 -5 6 282 6 588 c 3
 6 896 253 1211 615 1211 c 3
 986 1211 1223 892 1223 588 c 3
EndSplineSet
EndChar

StartChar: ordfeminine
Encoding: 170 170 104
Width: 1229
VWidth: 1947
GlyphClass: 2
Flags: W
HStem: 158 210<235 994> 483 210<477.479 724.297> 899 210<486.07 761> 1268 210<489.927 725.401>
VStem: 247 210<718.844 867.746> 761 210<730.129 899 1109 1235.55>
LayerCount: 2
Fore
SplineSet
775 535 m 1
 704 486 645 483 617 483 c 2
 600 483 l 2
 381 483 247 621 247 766 c 2
 247 802 l 2
 247 887 328 1109 600 1109 c 2
 761 1109 l 1
 761 1125 l 2
 761 1164 751 1268 617 1268 c 2
 600 1268 l 2
 570 1268 500 1262 467 1196 c 1
 279 1290 l 1
 337 1405 453 1478 600 1478 c 2
 617 1478 l 2
 845 1478 971 1317 971 1125 c 2
 971 535 l 1
 775 535 l 1
617 693 m 2
 732 693 761 786 761 839 c 2
 761 899 l 1
 600 899 l 2
 502 899 457 840 457 802 c 2
 457 766 l 2
 457 748 497 693 600 693 c 2
 617 693 l 2
994 368 m 1
 994 158 l 1
 235 158 l 1
 235 368 l 1
 994 368 l 1
EndSplineSet
EndChar

StartChar: guillemotleft
Encoding: 171 171 105
Width: 1229
VWidth: 1947
GlyphClass: 2
Flags: W
LayerCount: 2
Fore
SplineSet
425 97 m 1
 243 403 l 1
 243 541 l 1
 425 848 l 1
 605 740 l 1
 453 483 l 1
 453 461 l 1
 605 205 l 1
 425 97 l 1
813 98 m 1
 632 403 l 1
 632 541 l 1
 813 847 l 1
 993 741 l 1
 842 483 l 1
 842 461 l 1
 993 204 l 1
 813 98 l 1
EndSplineSet
EndChar

StartChar: logicalnot
Encoding: 172 172 106
Width: 1229
VWidth: 1708
GlyphClass: 2
Flags: W
HStem: 489 210<234 769>
VStem: 769 210<235 489>
LayerCount: 2
Fore
SplineSet
234 699 m 1
 979 699 l 1
 979 235 l 1
 769 235 l 1
 769 489 l 1
 234 489 l 1
 234 699 l 1
EndSplineSet
EndChar

StartChar: softhyphen
Encoding: 173 173 107
Width: 1229
VWidth: 1947
GlyphClass: 2
Flags: W
HStem: 489 210<394 837>
VStem: 394 443<489 699>
LayerCount: 2
Fore
SplineSet
837 699 m 1
 837 489 l 1
 394 489 l 1
 394 699 l 1
 837 699 l 1
EndSplineSet
EndChar

StartChar: registered
Encoding: 174 174 108
Width: 1229
VWidth: 1947
GlyphClass: 2
Flags: W
HStem: -5 190<422.289 808.997> 731 150<575 713.623> 1021 190<436.676 796.293>
VStem: 6 190<404.97 772.46> 395 210<314 434> 395 180<592 731> 719 180<598.016 722.324> 1033 190<408.318 775.846>
LayerCount: 2
Fore
SplineSet
615 1021 m 3xf3
 364 1021 196 796 196 587 c 3
 196 384 356 185 615 185 c 3
 878 185 1033 393 1033 587 c 3
 1033 794 873 1021 615 1021 c 3xf3
1223 588 m 3
 1223 289 983 -5 615 -5 c 3
 250 -5 6 282 6 588 c 3
 6 896 253 1211 615 1211 c 3
 986 1211 1223 892 1223 588 c 3
395 881 m 1xf7
 651 881 l 2
 832 881 899 802 899 678 c 2
 899 655 l 2
 899 571 857 520 818 491 c 1
 894 390 l 1
 716 278 l 1
 605 434 l 1
 605 314 l 1
 395 314 l 1xfb
 395 881 l 1xf7
575 592 m 1xf7
 651 592 l 2
 684 592 719 616 719 657 c 2
 719 667 l 2
 719 702 688 731 651 731 c 2
 575 731 l 1
 575 592 l 1xf7
EndSplineSet
EndChar

StartChar: degree
Encoding: 176 176 110
Width: 1229
VWidth: 1947
GlyphClass: 2
Flags: W
HStem: 777 210<519.214 710.977> 1228 210<521.636 709.636>
VStem: 285 210<1012.28 1203.64> 735 210<1012.37 1204.35>
LayerCount: 2
Fore
SplineSet
945 1108 m 3
 945 919 786 777 615 777 c 3
 424 777 285 919 285 1108 c 3
 285 1304 430 1438 615 1438 c 3
 784 1438 945 1308 945 1108 c 3
735 1108 m 3
 735 1174 692 1228 615 1228 c 3
 540 1228 495 1174 495 1108 c 3
 495 1030 542 987 615 987 c 3
 698 987 735 1042 735 1108 c 3
EndSplineSet
EndChar

StartChar: plusminus
Encoding: 177 177 111
Width: 1229
VWidth: 1947
GlyphClass: 2
Flags: W
HStem: 78 210<234 996> 733 210<234 510 720 996>
VStem: 510 210<426 733 943 1248>
LayerCount: 2
Fore
SplineSet
996 943 m 1
 996 733 l 1
 720 733 l 1
 720 426 l 1
 510 426 l 1
 510 733 l 1
 234 733 l 1
 234 943 l 1
 510 943 l 1
 510 1248 l 1
 720 1248 l 1
 720 943 l 1
 996 943 l 1
996 288 m 1
 996 78 l 1
 234 78 l 1
 234 288 l 1
 996 288 l 1
EndSplineSet
EndChar

StartChar: twosuperior
Encoding: 178 178 112
Width: 1229
VWidth: 2334
GlyphClass: 2
Flags: W
HStem: 536 210<630 880> 1238 210<573.56 708.945>
VStem: 716 210<1107.33 1231.62>
LayerCount: 2
Fore
SplineSet
378 1280 m 1
 402 1318 l 2
 439 1374 507 1448 635 1448 c 2
 647 1448 l 2
 821 1448 926 1345 926 1198 c 2
 926 1178 l 2
 926 1138 906 1053 837 976 c 2
 645 762 l 2
 641 758 634 751 630 746 c 1
 880 746 l 1
 880 536 l 1
 368 536 l 1
 368 692 l 1
 387 760 443 853 491 906 c 2
 687 1124 l 2
 709 1148 716 1175 716 1178 c 2
 716 1198 l 2
 716 1216 716 1238 647 1238 c 2
 635 1238 l 2
 606 1238 583 1213 559 1171 c 1
 378 1280 l 1
EndSplineSet
EndChar

StartChar: threesuperior
Encoding: 179 179 113
Width: 1229
VWidth: 2334
GlyphClass: 2
Flags: W
HStem: 519 210<534.357 674.089> 917 210<518 652.095> 1229 210<551.297 646.954>
VStem: 653 210<1127.89 1224.54> 681 210<741.112 911.135>
LayerCount: 2
Fore
SplineSet
610 1439 m 2xf0
 621 1439 l 2
 762 1439 863 1326 863 1194 c 2
 863 1173 l 2xf0
 863 1129 846 1078 815 1033 c 1
 864 976 891 901 891 833 c 2
 891 813 l 2
 891 633 763 519 601 519 c 2
 590 519 l 2
 458 519 320 640 320 792 c 1
 530 792 l 1
 530 761 569 729 590 729 c 2
 601 729 l 2
 628 729 681 733 681 813 c 2
 681 833 l 2xe8
 681 855 661 917 615 917 c 2
 518 917 l 1
 518 1127 l 1
 615 1127 l 2
 640 1127 653 1171 653 1173 c 2
 653 1194 l 2
 653 1211 645 1229 621 1229 c 2
 610 1229 l 2
 584 1229 557 1209 551 1196 c 1
 361 1284 l 1
 400 1369 500 1439 610 1439 c 2xf0
EndSplineSet
EndChar

StartChar: micro
Encoding: 181 181 115
Width: 1229
VWidth: 2334
GlyphClass: 2
Flags: W
HStem: -25 210<435.422 776.875> 1004 20G<130 340 889 1099>
VStem: 130 210<-252.993 41 277.453 1024> 889 210<294.753 1024>
LayerCount: 2
Fore
SplineSet
1099 128 m 2
 1099 90 1099 60 1120 45 c 1
 998 -125 l 1
 929 -76 902 -9 893 59 c 1
 826 15 739 -25 627 -25 c 2
 604 -25 l 2
 500 -25 411 0 340 41 c 1
 340 -25 l 2
 340 -204 325 -283 236 -409 c 1
 64 -287 l 1
 122 -205 130 -170 130 -25 c 2
 130 1024 l 1
 340 1024 l 1
 340 405 l 2
 340 293 422 185 604 185 c 2
 627 185 l 2
 818 185 889 355 889 405 c 2
 889 1024 l 1
 1099 1024 l 1
 1099 128 l 2
EndSplineSet
EndChar

StartChar: paragraph
Encoding: 182 182 116
Width: 1229
VWidth: 1947
GlyphClass: 2
Flags: W
HStem: 0 21G<511 721 889 1099> 1295 210<721 889>
VStem: 127 594<833.158 1292.5> 511 210<0 637> 889 210<0 1295>
LayerCount: 2
Fore
SplineSet
511 637 m 1xd8
 194 647 127 864 127 1055 c 2
 127 1117 l 2xe8
 127 1348 338 1505 519 1505 c 2
 1099 1505 l 1
 1099 0 l 1
 889 -0 l 1
 889 1295 l 1
 721 1295 l 1
 721 -0 l 1
 511 0 l 1
 511 637 l 1xd8
EndSplineSet
EndChar

StartChar: periodcentered
Encoding: 183 183 117
Width: 1229
VWidth: 1947
GlyphClass: 2
Flags: W
HStem: 552 390<492.595 737.057>
VStem: 420 389<624.912 869.919>
LayerCount: 2
Fore
SplineSet
809 747 m 0
 809 644 729 552 614 552 c 0
 503 552 420 642 420 747 c 0
 420 849 497 942 614 942 c 0
 728 942 809 852 809 747 c 0
EndSplineSet
EndChar

StartChar: onesuperior
Encoding: 185 185 119
Width: 1229
VWidth: 1708
GlyphClass: 2
Flags: W
HStem: 1405 20G<636.286 797>
VStem: 587 210<633 1183>
LayerCount: 2
Fore
SplineSet
797 1425 m 1
 797 633 l 1
 587 633 l 1
 587 1183 l 1
 497 1150 l 1
 449 1215 l 1
 656 1425 l 1
 797 1425 l 1
EndSplineSet
EndChar

StartChar: ordmasculine
Encoding: 186 186 120
Width: 1229
VWidth: 1947
GlyphClass: 2
Flags: W
HStem: 158 210<235 994> 488 210<497.757 729.03> 1273 210<498.519 730.135>
VStem: 214 210<782.687 1184.36> 798 210<770.904 1200.67>
LayerCount: 2
Fore
SplineSet
616 1273 m 3
 451 1273 424 1100 424 980 c 3
 424 739 534 698 616 698 c 3
 723 698 798 770 798 980 c 3
 798 1179 744 1273 616 1273 c 3
1008 980 m 3
 1008 581 773 488 616 488 c 3
 425 488 214 614 214 980 c 3
 214 1361 424 1483 616 1483 c 3
 773 1483 1008 1410 1008 980 c 3
994 368 m 1
 994 158 l 1
 235 158 l 1
 235 368 l 1
 994 368 l 1
EndSplineSet
EndChar

StartChar: guillemotright
Encoding: 187 187 121
Width: 1229
VWidth: 1947
GlyphClass: 2
Flags: W
LayerCount: 2
Fore
SplineSet
778 461 m 1
 778 483 l 1
 626 740 l 1
 806 848 l 1
 988 541 l 1
 988 403 l 1
 806 97 l 1
 626 205 l 1
 778 461 l 1
389 461 m 1
 389 483 l 1
 238 741 l 1
 418 847 l 1
 599 541 l 1
 599 403 l 1
 418 98 l 1
 238 204 l 1
 389 461 l 1
EndSplineSet
EndChar

StartChar: OE
Encoding: 338 338 122
Width: 1229
VWidth: 1947
GlyphClass: 2
Flags: W
HStem: 0 210<353.185 542.597 765 1099> 612 210<765 940> 1190 210<359.426 542.468 765 1099>
VStem: 130 210<226.6 1170.33> 555 385<612 822> 555 210<220.117 612 822 1179.3>
LayerCount: 2
Fore
SplineSet
441 1400 m 2xf4
 469 1400 l 2
 485 1400 527 1399 555 1386 c 1
 555 1400 l 1
 1099 1400 l 1
 1099 1190 l 1
 765 1190 l 1
 765 822 l 1xf4
 940 822 l 1
 940 612 l 1xf8
 765 612 l 1
 765 210 l 1
 1099 210 l 1
 1099 0 l 1
 555 0 l 1
 555 12 l 1
 529 4 500 0 469 0 c 2
 441 0 l 2
 239 0 130 159 130 300 c 2
 130 1090 l 2
 130 1359 348 1400 441 1400 c 2xf4
441 1190 m 2
 380 1190 340 1148 340 1090 c 2
 340 300 l 2
 340 282 351 210 441 210 c 2
 469 210 l 2
 542 210 555 281 555 300 c 2
 555 1090 l 2
 555 1173 498 1190 469 1190 c 2
 441 1190 l 2
EndSplineSet
EndChar

StartChar: oe
Encoding: 339 339 123
Width: 1229
VWidth: 1947
GlyphClass: 2
Flags: W
HStem: -25 210<349.316 501.974 730.361 880.503> 435 210<721 889> 839 210<346.35 502.036 730.023 881.069>
VStem: 130 210<196.049 829.219> 511 210<193.383 435 645 830.964> 889 210<195.048 268 645 829.552>
LayerCount: 2
Fore
SplineSet
340 757 m 2
 340 268 l 2
 340 190 395 185 428 185 c 3
 502 185 511 252 511 268 c 2
 511 757 l 2
 511 775 502 839 428 839 c 3
 400 839 340 834 340 757 c 2
721 268 m 2
 721 247 730 185 805 185 c 3
 834 185 889 190 889 268 c 1
 1099 268 l 1
 1099 107 989 -25 805 -25 c 3
 730 -25 665 0 616 41 c 1
 568 1 504 -25 428 -25 c 3
 237 -25 130 110 130 268 c 2
 130 757 l 2
 130 916 241 1049 428 1049 c 3
 503 1049 567 1025 616 984 c 1
 664 1024 729 1049 805 1049 c 3
 992 1049 1099 917 1099 757 c 2
 1099 435 l 1
 721 435 l 1
 721 268 l 2
721 757 m 2
 721 645 l 1
 889 645 l 1
 889 757 l 2
 889 835 836 839 805 839 c 3
 730 839 721 775 721 757 c 2
EndSplineSet
EndChar

StartChar: AE
Encoding: 198 198 132
Width: 1229
VWidth: 1947
GlyphClass: 2
Flags: W
HStem: 0 210<820 1099> 642 210<460 610 820 994> 1190 210<531.45 610 820 1099>
VStem: 610 210<210 642 852 1190>
LayerCount: 2
Fore
SplineSet
610 852 m 1
 610 1190 l 1
 552 1190 532 1159 525 1130 c 2
 460 852 l 1
 610 852 l 1
46 0 m 1
 321 1178 l 2
 365 1365 564 1400 610 1400 c 2
 1099 1400 l 1
 1099 1190 l 1
 820 1190 l 1
 820 852 l 1
 994 852 l 1
 994 642 l 1
 820 642 l 1
 820 210 l 1
 1099 210 l 1
 1099 0 l 1
 610 0 l 1
 610 642 l 1
 411 642 l 1
 262 -0 l 1
 190 0 118 0 46 0 c 1
EndSplineSet
EndChar

StartChar: Eth
Encoding: 208 208 142
Width: 1229
VWidth: 1947
GlyphClass: 2
Flags: W
HStem: 0 210<424 742.308> 635 210<80 214 424 577> 1190 210<424 757.817>
VStem: 214 210<210 635 845 1190> 887 210<387.495 1042.33>
LayerCount: 2
Fore
SplineSet
589 1190 m 2
 424 1190 l 1
 424 845 l 1
 577 845 l 1
 577 635 l 1
 424 635 l 1
 424 210 l 1
 589 210 l 2
 779 210 887 347 887 687 c 2
 887 746 l 2
 887 1104 784 1190 589 1190 c 2
1097 746 m 2
 1097 687 l 2
 1097 103 792 0 589 0 c 2
 214 0 l 1
 214 635 l 1
 80 635 l 1
 80 845 l 1
 214 845 l 1
 214 1400 l 1
 589 1400 l 2
 995 1400 1097 1104 1097 746 c 2
EndSplineSet
EndChar

StartChar: multiply
Encoding: 215 215 149
Width: 1229
VWidth: 1708
GlyphClass: 2
Flags: W
LayerCount: 2
Fore
SplineSet
809 967 m 1
 961 823 l 1
 760 610 l 1
 961 396 l 1
 809 252 l 1
 616 457 l 1
 422 252 l 1
 270 396 l 1
 471 610 l 1
 270 823 l 1
 422 967 l 1
 616 762 l 1
 809 967 l 1
EndSplineSet
EndChar

StartChar: Thorn
Encoding: 222 222 156
Width: 1229
VWidth: 1947
GlyphClass: 2
Flags: W
HStem: 0 21G<130 340> 345 210<340 796.309> 1105 210<340 805.983>
VStem: 130 210<0 345 555 1105 1315 1540> 889 210<637.986 1031.69>
LayerCount: 2
Fore
SplineSet
340 -0 m 1
 130 0 l 1
 130 1540 l 1
 340 1540 l 1
 340 1315 l 1
 627 1315 l 2
 959 1315 1099 1126 1099 883 c 2
 1099 759 l 2
 1099 536 934 345 627 345 c 2
 340 345 l 1
 340 -0 l 1
627 555 m 2
 809 555 889 646 889 759 c 2
 889 883 l 2
 889 1014 837 1105 627 1105 c 2
 340 1105 l 1
 340 555 l 1
 627 555 l 2
EndSplineSet
EndChar

StartChar: germandbls
Encoding: 223 223 157
Width: 1229
VWidth: 1947
GlyphClass: 2
Flags: W
HStem: -25 210<557.833 818.186> 663 210<536 771.145> 1215 210<390.555 789.145>
VStem: 130 210<-388 1165.12> 822 210<925.25 1175.41> 889 210<257.004 600.741>
LayerCount: 2
Fore
SplineSet
604 1215 m 2xf8
 360 1215 340 1126 340 1090 c 2
 340 -388 l 1
 130 -388 l 1
 130 1090 l 2
 130 1144 147 1425 604 1425 c 2
 627 1425 l 2
 963 1425 1032 1222 1032 1087 c 2
 1032 1053 l 2xf8
 1032 975 1023 878 943 790 c 1
 1045 722 1099 616 1099 487 c 2
 1099 387 l 2
 1099 165 935 -25 689 -25 c 2
 678 -25 l 2
 594 -25 516 -13 438 39 c 1
 556 213 l 1
 595 187 641 185 678 185 c 2
 689 185 l 2
 816 185 889 278 889 387 c 2
 889 487 l 2xf4
 889 628 757 663 627 663 c 2
 536 663 l 1
 536 873 l 1
 561 873 l 2
 821 873 822 971 822 1053 c 2
 822 1087 l 2
 822 1209 693 1215 627 1215 c 2
 604 1215 l 2xf8
EndSplineSet
EndChar

StartChar: ae
Encoding: 230 230 164
Width: 1229
VWidth: 1947
GlyphClass: 2
Flags: W
HStem: -25 210<313.015 499.035 732.194 912.43> 435 210<318.624 511 721 930> 839 210<319.859 496.706 735.294 913.979>
VStem: 93 210<204.879 414.726 757 816.497> 511 210<196.798 435 645 823.528> 930 210<204.866 268 645 817.042>
LayerCount: 2
Fore
SplineSet
418 839 m 3
 342 839 303 787 303 757 c 1
 93 757 l 1
 93 830 165 1049 418 1049 c 3
 500 1049 565 1022 616 979 c 1
 667 1022 732 1049 814 1049 c 3
 1065 1049 1140 862 1140 757 c 2
 1140 435 l 1
 721 435 l 1
 721 268 l 2
 721 231 751 185 814 185 c 3
 838 185 922 193 930 268 c 1
 1140 268 l 1
 1140 266 l 2
 1140 120 1012 -25 814 -25 c 3
 734 -25 666 3 615 46 c 1
 564 3 497 -25 418 -25 c 3
 235 -25 93 92 93 268 c 2
 93 341 l 2
 93 432 141 645 424 645 c 2
 511 645 l 1
 511 757 l 2
 511 793 466 839 418 839 c 3
721 645 m 1
 930 645 l 1
 930 757 l 2
 930 802 883 839 814 839 c 27
 766 839 721 792 721 757 c 2
 721 645 l 1
303 268 m 2
 303 193 387 185 418 185 c 3
 483 185 511 236 511 268 c 2
 511 435 l 1
 424 435 l 2
 320 435 303 371 303 341 c 2
 303 268 l 2
EndSplineSet
EndChar

StartChar: eth
Encoding: 240 240 174
Width: 1229
VWidth: 1947
GlyphClass: 2
Flags: W
HStem: -25 210<463.338 791.858> 721 210<450.712 753.432> 1401 20G<897.696 969.941>
VStem: 130 210<307.719 621.522> 889 210<287.213 618.172>
LayerCount: 2
Fore
SplineSet
604 931 m 2
 627 931 l 2
 673 931 717 926 757 916 c 1
 715 974 663 1034 604 1093 c 1
 268 991 l 1
 208 1193 l 1
 420 1257 l 1
 382 1288 341 1317 300 1346 c 1
 420 1518 l 1
 489 1470 573 1406 659 1329 c 1
 964 1421 l 1
 1024 1219 l 1
 828 1160 l 1
 978 993 1099 798 1099 613 c 2
 1099 452 l 2
 1099 178 924 -25 627 -25 c 2
 604 -25 l 2
 343 -25 130 182 130 452 c 2
 130 480 l 2
 130 721 309 931 604 931 c 2
889 452 m 2
 889 480 l 2
 889 588 815 721 627 721 c 2
 604 721 l 2
 427 721 340 607 340 480 c 2
 340 452 l 2
 340 302 457 185 604 185 c 2
 627 185 l 2
 837 185 889 329 889 452 c 2
EndSplineSet
EndChar

StartChar: divide
Encoding: 247 247 181
Width: 1229
VWidth: 1947
GlyphClass: 2
Flags: W
HStem: 96 291<523.4 726.465> 495 210<204 1026> 813 294<521.415 726.079>
VStem: 477 292<142.125 341.964 857.651 1062.35>
LayerCount: 2
Fore
SplineSet
1026 705 m 1
 1026 495 l 1
 204 495 l 1
 204 705 l 1
 1026 705 l 1
769 960 m 0
 769 890 709 813 625 813 c 0
 533 813 477 897 477 960 c 0
 477 1023 533 1107 625 1107 c 0
 709 1107 769 1030 769 960 c 0
769 243 m 0
 769 170 710 96 625 96 c 0
 541 96 477 173 477 243 c 0
 477 308 538 387 625 387 c 0
 712 387 769 308 769 243 c 0
EndSplineSet
EndChar

StartChar: oslash
Encoding: 248 248 182
Width: 1229
VWidth: 1947
GlyphClass: 2
Flags: W
HStem: -25 210<524.938 789.793> 838 210<445.631 709.968>
VStem: 156 210<349.646 755.935> 867 210<270.726 668.109>
LayerCount: 2
Fore
SplineSet
910 1119 m 1
 1082 999 l 1
 998 877 l 1
 1047 802 1077 698 1077 559 c 2
 1077 473 l 2
 1077 88 862 -25 636 -25 c 2
 589 -25 l 2
 523 -25 458 -15 399 10 c 1
 317 -108 l 1
 145 12 l 1
 237 145 l 1
 187 222 156 329 156 474 c 2
 156 558 l 2
 156 934 366 1048 587 1048 c 2
 640 1048 l 2
 709 1048 776 1037 836 1012 c 1
 910 1119 l 1
640 838 m 2
 587 838 l 2
 438 838 366 768 366 558 c 2
 366 474 l 2
 366 425 369 383 377 348 c 1
 711 831 l 1
 689 836 666 838 640 838 c 2
857 673 m 1
 524 191 l 1
 544 187 565 185 589 185 c 2
 636 185 l 2
 790 185 867 253 867 473 c 2
 867 559 l 2
 867 603 864 641 857 673 c 1
EndSplineSet
EndChar

StartChar: thorn
Encoding: 254 254 188
Width: 1229
VWidth: 1947
GlyphClass: 2
Flags: W
HStem: -385 21G<130 340> -25 210<432.912 792.68> 839 210<439.217 786.194> 1380 20G<130 340>
VStem: 130 210<-385 40 272.256 745.048 980 1400> 889 210<288.655 736.023>
LayerCount: 2
Fore
SplineSet
636 839 m 2
 598 839 l 2
 433 839 340 728 340 618 c 2
 340 393 l 2
 340 268 448 185 603 185 c 2
 630 185 l 2
 791 185 889 262 889 495 c 2
 889 532 l 2
 889 762 793 839 636 839 c 2
1099 532 m 2
 1099 495 l 2
 1099 198 957 -25 630 -25 c 2
 603 -25 l 2
 503 -25 413 -1 340 40 c 1
 340 -385 l 1
 130 -385 l 1
 130 1400 l 1
 340 1400 l 1
 340 980 l 1
 412 1023 500 1049 598 1049 c 2
 636 1049 l 2
 958 1049 1099 826 1099 532 c 2
EndSplineSet
EndChar

StartChar: minus
Encoding: 8722 8722 190
Width: 1229
VWidth: 1708
GlyphClass: 2
Flags: W
HStem: 489 210<235 994>
LayerCount: 2
Fore
SplineSet
994 699 m 1
 994 489 l 1
 235 489 l 1
 235 699 l 1
 994 699 l 1
EndSplineSet
EndChar

StartChar: gravemodifier
Encoding: 715 715 193
Width: 1229
VWidth: 2334
GlyphClass: 2
Flags: MW
HStem: 1319 407
VStem: 446 398
DStem2: 586 1726 446 1591 0.688188 -0.725532<1.60044 374.897>
LayerCount: 2
Fore
SplineSet
844 1454 m 5
 704 1319 l 5
 446 1591 l 5
 586 1726 l 5
 844 1454 l 5
EndSplineSet
EndChar

StartChar: acute
Encoding: 180 180 194
Width: 1229
VWidth: 1947
GlyphClass: 2
Flags: MW
HStem: 1189 477
VStem: 407 417
DStem2: 407 1303 565 1189 0.580814 0.814036<0 444.894>
LayerCount: 2
Fore
SplineSet
565 1189 m 5
 407 1303 l 5
 666 1666 l 5
 824 1552 l 5
 565 1189 l 5
EndSplineSet
EndChar

StartChar: circumflex
Encoding: 710 710 195
Width: 1229
VWidth: 1947
GlyphClass: 2
Flags: W
HStem: 1394 244
VStem: 326 580
LayerCount: 2
Fore
SplineSet
702 1638 m 1
 906 1526 l 1
 834 1394 l 1
 616 1514 l 1
 398 1394 l 1
 326 1526 l 1
 530 1638 l 1
 702 1638 l 1
EndSplineSet
EndChar

StartChar: tilde
Encoding: 732 732 196
Width: 1229
VWidth: 1947
GlyphClass: 2
Flags: W
HStem: 1447 150<644.194 811.389> 1537 150<420.331 586.865>
LayerCount: 2
Fore
SplineSet
290 1569 m 2x40
 360 1676 440 1687 478 1687 c 2
 494 1687 l 2x40
 515 1687 599 1682 655 1632 c 2
 674 1615 l 2
 678 1611 711 1597 735 1597 c 2
 752 1597 l 2
 766 1597 794 1610 815 1646 c 2
 829 1670 l 1
 959 1594 l 1
 945 1570 l 2
 875 1451 752 1447 752 1447 c 2
 735 1447 l 2x80
 670 1447 604 1477 574 1503 c 2
 556 1519 l 2
 547 1527 525 1537 494 1537 c 2
 478 1537 l 2
 474 1537 447 1535 416 1487 c 2
 399 1461 l 1
 273 1543 l 1
 290 1569 l 2x40
EndSplineSet
EndChar

StartChar: macronmodifier
Encoding: 713 713 197
Width: 1229
VWidth: 1947
GlyphClass: 2
Flags: W
HStem: 1463 150<388 841>
VStem: 388 453<1463 1613>
LayerCount: 2
Fore
SplineSet
388 1463 m 1
 388 1613 l 1
 841 1613 l 1
 841 1463 l 1
 388 1463 l 1
EndSplineSet
EndChar

StartChar: breve
Encoding: 728 728 198
Width: 1229
VWidth: 1947
GlyphClass: 2
Flags: W
HStem: 1405 150<483.79 744.458>
VStem: 326 578
LayerCount: 2
Fore
SplineSet
613 1405 m 0
 498 1405 396 1460 326 1544 c 1
 440 1640 l 1
 508 1559 587 1555 613 1555 c 0
 684 1555 746 1589 790 1641 c 1
 904 1545 l 1
 833 1460 730 1405 613 1405 c 0
EndSplineSet
EndChar

StartChar: dotaccent
Encoding: 729 729 199
Width: 1229
VWidth: 1947
GlyphClass: 2
Flags: W
HStem: 1350 314<501.271 719.296>
VStem: 454 314<1398.18 1615.82>
LayerCount: 2
Fore
SplineSet
454 1507 m 0
 454 1595 521 1664 610 1664 c 0
 698 1664 768 1595 768 1507 c 0
 768 1419 698 1350 610 1350 c 0
 521 1350 454 1419 454 1507 c 0
EndSplineSet
EndChar

StartChar: dieresis
Encoding: 168 168 200
Width: 1229
VWidth: 1947
GlyphClass: 2
Flags: W
HStem: 1371 304<258.947 461.349 771.81 972>
VStem: 212 295<1417.75 1632.17> 725 293<1417.36 1632.17>
LayerCount: 2
Fore
SplineSet
507 1526 m 0
 507 1444 441 1371 360 1371 c 0
 281 1371 212 1440 212 1526 c 0
 212 1617 285 1675 359 1675 c 0
 443 1675 507 1605 507 1526 c 0
1018 1526 m 0
 1018 1436 946 1371 872 1371 c 0
 794 1371 725 1441 725 1526 c 0
 725 1611 794 1675 872 1675 c 0
 944 1675 1018 1617 1018 1526 c 0
EndSplineSet
EndChar

StartChar: ring
Encoding: 730 730 202
Width: 1229
VWidth: 1947
GlyphClass: 2
Flags: W
HStem: 1223 110<529.515 684.788> 1517 110<529.515 684.788>
VStem: 405 110<1346.23 1503.77> 699 110<1348.51 1501.49>
LayerCount: 2
Fore
SplineSet
405 1425 m 0
 405 1537 493 1627 605 1627 c 0
 717 1627 809 1537 809 1425 c 0
 809 1313 717 1223 605 1223 c 0
 493 1223 405 1313 405 1425 c 0
515 1425 m 0
 515 1374 555 1333 606 1333 c 0
 657 1333 699 1374 699 1425 c 0
 699 1476 657 1517 606 1517 c 0
 555 1517 515 1476 515 1425 c 0
EndSplineSet
EndChar

StartChar: cedilla
Encoding: 184 184 203
Width: 1229
VWidth: 1947
GlyphClass: 2
Flags: W
HStem: -486 130<521.786 755.194> -187 205<577 722.208>
VStem: 577 150<-73.9863 18> 766 150<-341.816 -201.526>
LayerCount: 2
Fore
SplineSet
766 -270 m 27
 766 -212 724 -187 643 -187 c 2
 563 -187 l 1
 577 3 l 1
 577 18 l 1
 727 18 l 1
 727 -3 l 1
 723 -63 l 1
 857 -86 916 -160 916 -270 c 3
 916 -424 783 -486 655 -486 c 3
 555 -486 472 -449 405 -391 c 1
 503 -297 l 1
 542 -331 591 -356 655 -356 c 3
 722 -356 766 -325 766 -270 c 27
EndSplineSet
EndChar

StartChar: ogonek
Encoding: 731 731 204
Width: 1229
VWidth: 1947
GlyphClass: 2
Flags: W
HStem: -420 150<598.404 744.297>
VStem: 447 150<-268.071 -148.901>
LayerCount: 2
Fore
SplineSet
783 -371 m 1
 748 -400 701 -420 650 -420 c 3
 537 -420 447 -328 447 -216 c 3
 447 -161 469 -111 504 -74 c 2
 609 31 l 1
 609 72 l 1
 759 72 l 1
 759 -31 l 1
 612 -178 l 2
 603 -187 597 -201 597 -216 c 3
 597 -246 621 -270 650 -270 c 3
 663 -270 674 -266 685 -257 c 2
 711 -234 l 1
 811 -346 l 1
 783 -371 l 1
EndSplineSet
EndChar

StartChar: caron
Encoding: 711 711 205
Width: 1229
VWidth: 1947
GlyphClass: 2
Flags: W
HStem: 1422 244
VStem: 326 580
LayerCount: 2
Fore
SplineSet
616 1546 m 1
 834 1666 l 1
 906 1534 l 1
 702 1422 l 1
 530 1422 l 1
 326 1534 l 1
 398 1666 l 1
 616 1546 l 1
EndSplineSet
EndChar

StartChar: dotlessi
Encoding: 305 305 206
Width: 1229
VWidth: 1947
GlyphClass: 2
Flags: W
HStem: 0 210<235 511 721 994> 814 210<305 511>
VStem: 511 210<210 814>
LayerCount: 2
Fore
SplineSet
305 1024 m 1
 721 1024 l 1
 721 210 l 1
 994 210 l 1
 994 0 l 1
 235 0 l 1
 235 210 l 1
 511 210 l 1
 511 814 l 1
 305 814 l 1
 305 1024 l 1
EndSplineSet
EndChar

StartChar: currency
Encoding: 164 164 210
Width: 1229
VWidth: 1947
GlyphClass: 2
Flags: W
HStem: 361 210<498.891 734.263> 995 210<497.977 732.023>
VStem: 215 210<646.524 920.942> 805 210<641.355 920.942>
LayerCount: 2
Fore
SplineSet
624 995 m 2
 606 995 l 2
 523 995 425 909 425 800 c 2
 425 771 l 2
 425 664 517 571 606 571 c 2
 624 571 l 2
 713 571 805 653 805 771 c 2
 805 800 l 2
 805 909 707 995 624 995 c 2
1015 800 m 2
 1015 771 l 2
 1015 701 999 618 970 564 c 1
 1097 423 l 1
 941 283 l 1
 823 414 l 1
 764 380 695 361 624 361 c 2
 606 361 l 2
 537 361 469 381 409 416 c 1
 289 283 l 1
 133 423 l 1
 262 566 l 1
 232 620 215 703 215 771 c 2
 215 800 l 2
 215 869 234 918 267 979 c 1
 132 1135 l 1
 290 1273 l 1
 406 1139 l 1
 465 1180 534 1205 606 1205 c 2
 624 1205 l 2
 696 1205 765 1180 824 1139 c 1
 940 1273 l 1
 1098 1135 l 1
 963 979 l 1
 996 918 1015 869 1015 800 c 2
EndSplineSet
EndChar

StartChar: brokenbar
Encoding: 166 166 211
Width: 1229
VWidth: 1947
GlyphClass: 2
Flags: W
VStem: 510 210<-77 594 810 1477>
LayerCount: 2
Fore
SplineSet
510 1477 m 1
 720 1477 l 1
 720 810 l 1
 510 810 l 1
 510 1477 l 1
510 594 m 1
 720 594 l 1
 720 -77 l 1
 510 -77 l 1
 510 594 l 1
EndSplineSet
EndChar

StartChar: onequarter
Encoding: 188 188 212
Width: 1229
VWidth: 1708
GlyphClass: 2
Flags: W
HStem: -37 210<1099 1187> -37 189<766 889>
VStem: 178 210<783 1334> 889 210<-209 -37> 908 191<173 323>
LayerCount: 2
Fore
SplineSet
908 323 m 1x68
 766 152 l 1
 908 152 l 1
 908 323 l 1x68
901 1474 m 1
 1087 1376 l 1
 328 -74 l 1
 142 24 l 1
 901 1474 l 1
597 187 m 1
 897 571 l 1
 1099 571 l 1
 1099 173 l 1xa8
 1187 173 l 1
 1187 -37 l 1
 1099 -37 l 1xb0
 1099 -209 l 1
 889 -209 l 1
 889 -37 l 1x70
 597 -37 l 1
 597 187 l 1
388 1569 m 1
 388 783 l 1
 178 783 l 1
 178 1334 l 1
 83 1286 l 1
 31 1376 l 1
 256 1569 l 1
 388 1569 l 1
EndSplineSet
EndChar

StartChar: onehalf
Encoding: 189 189 213
Width: 1229
VWidth: 1708
GlyphClass: 2
Flags: W
HStem: -315 210<842 1125> 381 200<787.755 989.026>
VStem: 178 210<783 1334> 995 210<259.843 367.912>
LayerCount: 2
Fore
SplineSet
583 419 m 1
 627 481 706 581 885 581 c 2
 899 581 l 2
 942 581 1205 560 1205 338 c 2
 1205 318 l 2
 1205 316 1204 196 1093 104 c 2
 842 -105 l 1
 1125 -105 l 1
 1125 -315 l 1
 557 -315 l 1
 557 -113 l 1
 569 -85 629 -9 677 31 c 2
 959 266 l 2
 980 283 995 306 995 318 c 2
 995 338 l 2
 995 366 933 381 899 381 c 2
 885 381 l 2
 822 381 776 329 759 305 c 1
 583 419 l 1
841 1474 m 1
 1027 1376 l 1
 268 -74 l 1
 82 24 l 1
 841 1474 l 1
388 1569 m 1
 388 783 l 1
 178 783 l 1
 178 1334 l 1
 83 1286 l 1
 31 1376 l 1
 256 1569 l 1
 388 1569 l 1
EndSplineSet
EndChar

StartChar: threequarters
Encoding: 190 190 214
Width: 1229
VWidth: 1708
GlyphClass: 2
Flags: W
HStem: -37 210<1099 1187> -37 189<766 889> 718 210<224.357 364.089> 1116 210<208 342.095> 1428 210<241.297 336.954>
VStem: 343 210<1326.89 1423.54> 371 210<940.112 1110.13> 889 210<-209 -37> 908 191<173 323>
LayerCount: 2
Fore
SplineSet
300 1638 m 2x3c
 311 1638 l 2
 452 1638 553 1525 553 1393 c 2
 553 1372 l 2x3c
 553 1328 536 1277 505 1232 c 1
 554 1175 581 1100 581 1032 c 2
 581 1012 l 2
 581 832 453 718 291 718 c 2
 280 718 l 2
 148 718 10 839 10 991 c 1
 220 991 l 1
 220 960 259 928 280 928 c 2
 291 928 l 2
 318 928 371 932 371 1012 c 2
 371 1032 l 2x3a
 371 1054 351 1116 305 1116 c 2
 208 1116 l 1
 208 1326 l 1
 305 1326 l 2
 330 1326 343 1370 343 1372 c 2
 343 1393 l 2
 343 1410 335 1428 311 1428 c 2
 300 1428 l 2
 274 1428 247 1408 241 1395 c 1
 51 1483 l 1
 90 1568 190 1638 300 1638 c 2x3c
908 323 m 1x7880
 766 152 l 1
 908 152 l 1
 908 323 l 1x7880
597 187 m 1
 897 571 l 1
 1099 571 l 1
 1099 173 l 1xb880
 1187 173 l 1
 1187 -37 l 1
 1099 -37 l 1xb9
 1099 -209 l 1
 889 -209 l 1
 889 -37 l 1x79
 597 -37 l 1
 597 187 l 1
951 1474 m 1
 1137 1376 l 1
 378 -74 l 1
 192 24 l 1
 951 1474 l 1
EndSplineSet
EndChar

StartChar: Lslash
Encoding: 321 321 216
Width: 1229
VWidth: 1947
GlyphClass: 2
Flags: W
HStem: 0 211<418 1099> 1380 20G<208 418>
VStem: 208 210<211 437 708 1400>
LayerCount: 2
Fore
SplineSet
418 211 m 1
 1099 211 l 1
 1099 0 l 1
 208 0 l 1
 208 437 l 1
 106 410 l 1
 54 614 l 1
 208 654 l 1
 208 1400 l 1
 418 1400 l 1
 418 708 l 1
 835 817 l 1
 887 613 l 1
 418 491 l 1
 418 211 l 1
EndSplineSet
EndChar

StartChar: lslash
Encoding: 322 322 257
Width: 1229
VWidth: 1947
GlyphClass: 2
Flags: W
HStem: 0 210<235 511 721 994> 1190 210<235 511>
VStem: 511 210<210 480 746 1190>
LayerCount: 2
Fore
SplineSet
1018 817 m 1
 1066 613 l 1
 721 530 l 1
 721 210 l 1
 994 210 l 1
 994 0 l 1
 235 0 l 1
 235 210 l 1
 511 210 l 1
 511 480 l 1
 217 410 l 1
 169 614 l 1
 511 696 l 1
 511 1190 l 1
 235 1190 l 1
 235 1400 l 1
 721 1400 l 1
 721 746 l 1
 1018 817 l 1
EndSplineSet
EndChar

StartChar: dotlessj
Encoding: 567 567 260
Width: 1229
VWidth: 1947
GlyphClass: 2
Flags: W
HStem: -399 210<545.07 734.565> 814 210<431 764>
VStem: 301 210<-152.182 -70> 764 210<-158.545 814>
LayerCount: 2
Fore
SplineSet
974 -69 m 2
 974 -249 861 -399 636 -399 c 3
 453 -399 323 -307 301 -70 c 1
 511 -70 l 1
 519 -136 569 -189 636 -189 c 27
 704 -189 764 -138 764 -69 c 2
 764 814 l 1
 431 814 l 1
 431 1024 l 1
 974 1024 l 1
 974 -69 l 2
EndSplineSet
EndChar

StartChar: eng
Encoding: 331 331 261
Width: 1229
VWidth: 2334
GlyphClass: 2
Flags: W
HStem: -399 210<550.014 812.01> -0 21G<130 340> 839 210<489.023 816.689> 1004 20G<130 340>
VStem: 130 210<0 676.695 946 1024> 889 210<-113.241 778.873>
LayerCount: 2
Fore
SplineSet
510 -111 m 1xec
 575 -170 610 -189 635 -189 c 2
 704 -189 l 2
 822 -189 889 -77 889 18 c 2
 889 668 l 2
 889 805 759 839 627 839 c 2
 604 839 l 2xec
 457 839 340 628 340 554 c 2
 340 -0 l 1
 130 -0 l 1
 130 1024 l 1
 340 1024 l 1xdc
 340 946 l 1
 414 1007 504 1049 604 1049 c 2
 627 1049 l 2
 928 1049 1099 897 1099 668 c 2
 1099 18 l 2
 1099 -182 950 -399 704 -399 c 2
 635 -399 l 2
 528 -399 445 -334 368 -265 c 1
 510 -111 l 1xec
EndSplineSet
EndChar

StartChar: ellipsis
Encoding: 8230 8230 266
Width: 1229
VWidth: 1947
GlyphClass: 2
Flags: W
HStem: 12 201<119.099 275.18 538.04 693.841 955.378 1111.84>
VStem: 102 190<28.3537 196.445> 521 190<28.8501 196.445> 938 191<28.8501 196.445>
LayerCount: 2
Fore
SplineSet
1129 113 m 0
 1129 61 1088 12 1033 12 c 0
 980 12 938 59 938 113 c 0
 938 165 979 213 1033 213 c 0
 1089 213 1129 162 1129 113 c 0
292 113 m 0
 292 61 252 12 197 12 c 0
 143 12 102 59 102 113 c 0
 102 165 142 213 197 213 c 0
 252 213 292 162 292 113 c 0
711 113 m 0
 711 61 670 12 615 12 c 0
 562 12 521 59 521 113 c 0
 521 165 561 213 615 213 c 0
 671 213 711 162 711 113 c 0
EndSplineSet
EndChar

StartChar: uparrow
Encoding: 8593 8593 267
Width: 1229
VWidth: 1708
GlyphClass: 2
Flags: W
HStem: 1024 20G<535.598 694.402>
VStem: 535 160<177 794>
LayerCount: 2
Fore
SplineSet
695 177 m 1
 535 177 l 1
 535 794 l 1
 312 564 l 1
 198 676 l 1
 555 1044 l 1
 675 1044 l 1
 1032 676 l 1
 918 564 l 1
 695 794 l 1
 695 177 l 1
EndSplineSet
Validated: 3073
EndChar

StartChar: downarrow
Encoding: 8595 8595 268
Width: 1229
VWidth: 1708
GlyphClass: 2
Flags: W
VStem: 535 160<387 991>
LayerCount: 2
Fore
SplineSet
535 991 m 1
 695 991 l 1
 695 387 l 1
 915 633 l 1
 1035 527 l 1
 675 124 l 1
 555 124 l 1
 195 527 l 1
 315 633 l 1
 535 387 l 1
 535 991 l 1
EndSplineSet
Validated: 3073
EndChar

StartChar: spaceopenbox
Encoding: 9251 9251 269
Width: 1229
VWidth: 1708
GlyphClass: 2
Flags: W
HStem: -197 348<130 340 889 1099> -197 210<340 889>
VStem: 130 210<13 151> 889 210<13 151>
LayerCount: 2
Fore
SplineSet
1099 151 m 1xb0
 1099 -197 l 1
 130 -197 l 1
 130 151 l 1
 340 151 l 1xb0
 340 13 l 1
 889 13 l 1x70
 889 151 l 1
 1099 151 l 1xb0
EndSplineSet
EndChar

StartChar: foursuperior
Encoding: 8308 8308 271
Width: 1229
VWidth: 1947
GlyphClass: 2
Flags: W
HStem: 712 210<514 701 911 994> 1405 20G<666.964 911>
VStem: 701 210<542 712 922 1129>
LayerCount: 2
Fore
SplineSet
701 1129 m 1
 514 922 l 1
 701 922 l 1
 701 1129 l 1
235 926 m 1
 685 1425 l 1
 911 1425 l 1
 911 922 l 1
 994 922 l 1
 994 712 l 1
 911 712 l 1
 911 542 l 1
 701 542 l 1
 701 712 l 1
 235 712 l 1
 235 926 l 1
EndSplineSet
EndChar

StartChar: Eng
Encoding: 330 330 273
Width: 1229
VWidth: 2334
GlyphClass: 2
Flags: W
HStem: -399 210<537.578 812.01> -0 21G<130 340> 1215 210<491.748 806.241> 1380 20G<130 340>
VStem: 130 210<0 1041.17 1319 1400> 889 210<-113.241 1141.29>
LayerCount: 2
Fore
SplineSet
529 -134 m 1xec
 558 -172 604 -189 635 -189 c 2
 704 -189 l 2
 822 -189 889 -77 889 18 c 2
 889 1024 l 2
 889 1128 813 1215 627 1215 c 2
 604 1215 l 2xec
 458 1215 340 1000 340 890 c 2
 340 -0 l 1
 130 -0 l 1
 130 1400 l 1
 340 1400 l 1xdc
 340 1319 l 1
 414 1383 504 1425 604 1425 c 2
 627 1425 l 2
 930 1425 1099 1244 1099 1024 c 2
 1099 18 l 2
 1099 -182 950 -399 704 -399 c 2
 635 -399 l 2
 578 -399 457 -384 349 -242 c 1
 529 -134 l 1xec
EndSplineSet
EndChar

StartChar: dcroat
Encoding: 273 273 274
Width: 1229
VWidth: 1947
GlyphClass: 2
Flags: W
HStem: -25 210<430.618 760.759> 0 21G<833 1043> 809 210<415.784 760.362> 1105 210<571 833 1043 1161> 1380 20G<833 1043>
VStem: 130 210<277.959 729.388> 833 210<0 25 258.394 736.245 969 1105 1315 1400>
LayerCount: 2
Fore
SplineSet
577 1019 m 2xbe
 600 1019 l 2
 691 1019 769 1002 833 969 c 1
 833 1105 l 1
 571 1105 l 1
 571 1315 l 1
 833 1315 l 1
 833 1400 l 1
 1043 1400 l 1
 1043 1315 l 1
 1161 1315 l 1
 1161 1105 l 1
 1043 1105 l 1
 1043 -0 l 1
 833 0 l 1x7e
 833 25 l 1
 769 -8 692 -25 600 -25 c 2
 577 -25 l 2
 319 -25 130 159 130 433 c 2
 130 562 l 2
 130 840 284 1019 577 1019 c 2xbe
340 562 m 2
 340 433 l 2
 340 286 425 185 577 185 c 2
 600 185 l 2xbe
 739 185 833 235 833 433 c 2
 833 562 l 2
 833 760 738 809 600 809 c 2
 577 809 l 2
 439 809 340 760 340 562 c 2
EndSplineSet
EndChar

StartChar: bullet
Encoding: 8226 8226 280
Width: 1229
VWidth: 1947
GlyphClass: 2
Flags: W
HStem: 437 440<496.822 734.738>
VStem: 404 422<532.23 785.604>
LayerCount: 2
Fore
SplineSet
826 660 m 3
 826 550 731 437 615 437 c 3
 498 437 404 553 404 660 c 3
 404 770 503 877 615 877 c 3
 726 877 826 770 826 660 c 3
EndSplineSet
EndChar

StartChar: florin
Encoding: 402 402 281
Width: 1229
VWidth: 1947
GlyphClass: 2
Flags: W
HStem: -410 210<301.026 448.361> 701 210<304 528 753 994> 1215 210<781.398 981.436>
LayerCount: 2
Fore
SplineSet
958 1156 m 1
 915 1205 899 1215 855 1215 c 3
 810 1215 773 1195 767 1114 c 2
 753 911 l 1
 994 911 l 1
 994 701 l 1
 738 701 l 1
 684 -78 l 2
 665 -361 475 -410 377 -410 c 3
 248 -410 132 -314 95 -196 c 1
 295 -132 l 1
 306 -168 347 -200 377 -200 c 3
 442 -200 469 -138 474 -64 c 2
 528 701 l 1
 304 701 l 1
 304 911 l 1
 542 911 l 1
 557 1128 l 2
 570 1315 695 1425 855 1425 c 3
 984 1425 1055 1364 1112 1300 c 1
 958 1156 l 1
EndSplineSet
EndChar

StartChar: dagger
Encoding: 8224 8224 282
Width: 1229
VWidth: 1947
GlyphClass: 2
Flags: W
HStem: -385 21G<510 720> 814 210<71 510 720 1160> 1405 20G<510 720>
VStem: 510 210<-385 814 1024 1425>
LayerCount: 2
Fore
SplineSet
1160 1024 m 1
 1160 814 l 1
 720 814 l 1
 720 -385 l 1
 510 -385 l 1
 510 814 l 1
 71 814 l 1
 71 1024 l 1
 510 1024 l 1
 510 1425 l 1
 720 1425 l 1
 720 1024 l 1
 1160 1024 l 1
EndSplineSet
EndChar

StartChar: daggerdbl
Encoding: 8225 8225 283
Width: 1229
VWidth: 1947
GlyphClass: 2
Flags: W
HStem: -385 21G<510 720> 14 210<71 510 720 1160> 814 210<71 510 720 1160> 1405 20G<510 720>
VStem: 510 210<-385 14 224 814 1024 1425>
LayerCount: 2
Fore
SplineSet
1160 1024 m 1
 1160 814 l 1
 720 814 l 1
 720 224 l 1
 1160 224 l 1
 1160 14 l 1
 720 14 l 1
 720 -385 l 1
 510 -385 l 1
 510 14 l 1
 71 14 l 1
 71 224 l 1
 510 224 l 1
 510 814 l 1
 71 814 l 1
 71 1024 l 1
 510 1024 l 1
 510 1425 l 1
 720 1425 l 1
 720 1024 l 1
 1160 1024 l 1
EndSplineSet
EndChar

StartChar: trademark
Encoding: 8482 8482 284
Width: 1229
VWidth: 1947
GlyphClass: 2
Flags: W
HStem: 1205 195<90 225 415 540>
VStem: 225 190<466 1205> 540 180<466 646> 968 171<466 661 1353.96 1400>
LayerCount: 2
Fore
SplineSet
225 466 m 1
 225 1205 l 1
 90 1205 l 1
 90 1400 l 1
 734 1400 l 1
 845 1005 l 1
 955 1400 l 1
 1139 1400 l 1
 1139 466 l 1
 968 466 l 1
 968 661 l 1
 911 519 l 1
 783 519 l 1
 720 646 l 1
 720 466 l 1
 540 466 l 1
 540 1205 l 1
 415 1205 l 1
 415 466 l 1
 225 466 l 1
EndSplineSet
EndChar

StartChar: Ecyrillic
Encoding: 1028 1028 290
Width: 1229
VWidth: 1947
GlyphClass: 2
Flags: W
HStem: -25 210<473.361 763.542> 635 210<342 669> 1040 21G<843.5 928.333> 1215 210<458.609 774.682>
VStem: 130 539<655.506 844.092> 130 211<369.758 635 845 1073.76>
LayerCount: 2
Fore
SplineSet
669 845 m 1xf8
 669 635 l 1xf8
 341 635 l 1xf4
 349 334 433 185 609 185 c 2
 625 185 l 2
 719 186 795 221 843 351 c 1
 1041 279 l 1
 975 101 841 -24 625 -25 c 2
 609 -25 l 2
 417 -25 130 68 130 684 c 2
 130 746 l 2
 130 1098 211 1425 608 1425 c 2
 625 1425 l 2
 804 1425 988 1351 1063 1100 c 1
 861 1040 l 1
 826 1157 760 1215 625 1215 c 2
 608 1215 l 2
 439 1215 357 1122 342 845 c 1
 669 845 l 1xf8
EndSplineSet
EndChar

StartChar: Becyrillic
Encoding: 1041 1041 298
Width: 1229
VWidth: 1947
GlyphClass: 2
Flags: W
HStem: 0 210<340 793.405> 663 210<340 797.359> 1190 210<340 994>
VStem: 130 210<210 663 873 1190> 889 210<289.495 580.036>
LayerCount: 2
Fore
SplineSet
590 873 m 2
 893 873 1099 719 1099 487 c 2
 1099 396 l 2
 1099 201 942 0 590 0 c 2
 130 0 l 1
 130 1400 l 1
 994 1400 l 1
 994 1190 l 1
 340 1190 l 1
 340 873 l 1
 590 873 l 2
340 663 m 1
 340 210 l 1
 590 210 l 2
 723 210 889 253 889 396 c 2
 889 487 l 2
 889 593 774 663 590 663 c 2
 340 663 l 1
EndSplineSet
EndChar

StartChar: Gecyrillic
Encoding: 1043 1043 299
Width: 1229
VWidth: 1947
GlyphClass: 2
Flags: W
HStem: -0 21G<130 340> 1190 210<340 1099>
VStem: 130 210<0 1190>
LayerCount: 2
Fore
SplineSet
130 -0 m 1
 130 1400 l 1
 1099 1400 l 1
 1099 1190 l 1
 340 1190 l 1
 340 0 l 1
 130 -0 l 1
EndSplineSet
EndChar

StartChar: Decyrillic
Encoding: 1044 1044 300
Width: 1229
VWidth: 1947
GlyphClass: 2
Flags: W
HStem: 0 211<419 825> 1190 210<707.562 825>
VStem: 825 210<211 1190>
LayerCount: 2
Fore
SplineSet
419 211 m 1
 825 211 l 1
 825 1190 l 1
 793 1190 l 2
 708 1190 614 1047 583 915 c 2
 419 211 l 1
377 957 m 2
 443 1241 630 1400 793 1400 c 2
 1035 1400 l 1
 1035 211 l 1
 1148 211 l 1
 1148 12 l 1
 1043 -162 l 1
 938 -162 l 1
 938 0 l 1
 292 0 l 1
 292 -162 l 1
 188 -162 l 1
 82 12 l 1
 82 211 l 1
 204 211 l 1
 377 957 l 2
EndSplineSet
EndChar

StartChar: Zhecyrillic
Encoding: 1046 1046 302
Width: 1229
VWidth: 1947
GlyphClass: 2
Flags: W
HStem: 0 21G<31 263.664 511 721 967.347 1200> 1380 20G<37 270.861 960.159 1194>
VStem: 511 210<0 195 770 1350>
LayerCount: 2
Fore
SplineSet
31 0 m 1
 306 718 l 1
 37 1400 l 1
 263 1400 l 1
 511 769 l 1
 511 1350 l 1
 721 1350 l 1
 721 770 l 1
 968 1400 l 1
 1194 1400 l 1
 925 716 l 1
 1200 -0 l 1
 1125 0 1050 0 975 0 c 1
 812 426 l 1
 721 195 l 1
 721 0 l 1
 651 0 581 0 511 -0 c 1
 511 195 l 1
 420 428 l 1
 256 -0 l 1
 181 0 106 0 31 0 c 1
EndSplineSet
EndChar

StartChar: Zecyrillic
Encoding: 1047 1047 303
Width: 1229
VWidth: 1947
GlyphClass: 2
Flags: W
HStem: -25 210<419.189 792.826> 684 210<400 762.75> 1215 210<401.888 787.146>
VStem: 130 210<259.736 350> 828 210<956.246 1175.99> 889 210<280.668 602.842>
LayerCount: 2
Fore
SplineSet
828 1096 m 2xf8
 828 1208 679 1215 627 1215 c 2
 576 1215 l 2
 487 1215 390 1189 352 1122 c 1
 170 1226 l 1
 244 1356 395 1425 576 1425 c 2
 627 1425 l 2
 901 1425 1038 1271 1038 1096 c 2
 1038 1059 l 2xf8
 1038 958 1000 872 935 808 c 1
 1045 729 1099 602 1099 452 c 2
 1099 433 l 2
 1099 166 925 -25 627 -25 c 2
 576 -25 l 2
 346 -25 130 125 130 350 c 1
 340 350 l 1
 340 247 464 185 576 185 c 2
 627 185 l 2
 837 185 889 313 889 433 c 2
 889 452 l 2xf4
 889 588 827 684 627 684 c 2
 400 684 l 1
 400 894 l 1
 603 894 l 2
 729 894 828 955 828 1059 c 2
 828 1096 l 2xf8
EndSplineSet
EndChar

StartChar: Iicyrillic
Encoding: 1048 1048 304
Width: 1229
VWidth: 1947
GlyphClass: 2
Flags: W
HStem: -0 21G<130 322.228 889 1099> 1380 20G<130 340 907.764 1099>
VStem: 130 210<452 1400> 889 210<0 947>
LayerCount: 2
Fore
SplineSet
130 -0 m 1
 130 1400 l 1
 340 1400 l 1
 340 452 l 1
 920 1400 l 1
 1099 1400 l 1
 1099 0 l 1
 889 -0 l 1
 889 947 l 1
 310 -0 l 1
 250 0 190 0 130 -0 c 1
EndSplineSet
EndChar

StartChar: Elcyrillic
Encoding: 1051 1051 307
Width: 1229
VWidth: 1947
GlyphClass: 2
Flags: W
HStem: 0 21G<41 268.556 889 1099> 1190 210<740.356 889>
VStem: 889 210<0 1190>
LayerCount: 2
Fore
SplineSet
357 966 m 2
 414 1141 554 1338 795 1400 c 1
 1099 1400 l 1
 1099 -0 l 1
 889 0 l 1
 889 1190 l 1
 822 1190 l 1
 697 1152 598 1025 559 906 c 2
 262 -0 l 1
 188 0 115 0 41 0 c 1
 357 966 l 2
EndSplineSet
EndChar

StartChar: Pecyrillic
Encoding: 1055 1055 311
Width: 1229
VWidth: 1947
GlyphClass: 2
Flags: W
HStem: -0 21G<130 340 889 1099> 1190 210<340 889>
VStem: 130 210<0 1190> 889 210<0 1190>
LayerCount: 2
Fore
SplineSet
130 -0 m 1
 130 1400 l 1
 1099 1400 l 1
 1099 -0 l 1
 889 0 l 1
 889 1190 l 1
 340 1190 l 1
 340 0 l 1
 130 -0 l 1
EndSplineSet
EndChar

StartChar: Ucyrillic
Encoding: 1059 1059 315
Width: 1229
VWidth: 1947
GlyphClass: 2
Flags: W
HStem: -25 210<333.29 502.622> 1380 20G<75 324.814 933.587 1164>
LayerCount: 2
Fore
SplineSet
721 199 m 2
 673 68 592 -25 398 -25 c 2
 360 -25 l 2
 336 -25 259 -19 213 17 c 2
 173 48 l 1
 297 216 l 1
 333 190 l 2
 339 186 357 185 360 185 c 2
 396 185 l 2
 481 185 502 216 523 271 c 2
 590 450 l 1
 75 1400 l 1
 314 1400 l 1
 686 712 l 1
 941 1400 l 1
 1164 1400 l 1
 721 199 l 2
EndSplineSet
EndChar

StartChar: Efcyrillic
Encoding: 1060 1060 316
Width: 1229
VWidth: 1947
GlyphClass: 2
Flags: W
HStem: -25 21G<511 721> 126 210<443.025 511 721 794.473> 1125 210<429.887 511 721 792.242> 1405 20G<511 721>
VStem: 130 210<478.679 1008.33> 511 210<-25 126 336 1125 1335 1425> 889 210<470.391 989.743>
LayerCount: 2
Fore
SplineSet
1099 713 m 2
 1099 287 883 126 737 126 c 2
 721 126 l 1
 721 -25 l 1
 511 -25 l 1
 511 126 l 1
 497 126 l 2
 258 126 130 457 130 713 c 2
 130 765 l 2
 130 1198 349 1335 495 1335 c 2
 511 1335 l 1
 511 1425 l 1
 721 1425 l 1
 721 1335 l 1
 737 1335 l 2
 941 1335 1099 1056 1099 766 c 2
 1099 713 l 2
889 766 m 2
 889 993 775 1125 737 1125 c 2
 721 1125 l 1
 721 336 l 1
 737 336 l 2
 767 336 889 432 889 713 c 2
 889 766 l 2
340 713 m 2
 340 518 431 336 497 336 c 2
 511 336 l 1
 511 1125 l 1
 495 1125 l 2
 464 1125 340 1059 340 765 c 2
 340 713 l 2
EndSplineSet
EndChar

StartChar: Tsecyrillic
Encoding: 1062 1062 318
Width: 1229
VWidth: 1947
GlyphClass: 2
Flags: W
HStem: -0 210<340 795> 1380 20G<130 340 795 1005>
VStem: 130 210<210 1400> 795 210<210 1400>
LayerCount: 2
Fore
SplineSet
340 210 m 1
 795 210 l 1
 795 1400 l 1
 1005 1400 l 1
 1005 210 l 1
 1129 210 l 1
 1129 -6 l 1
 1009 -237 l 1
 823 -141 l 1
 896 0 l 1
 130 -0 l 1
 130 1400 l 1
 340 1400 l 1
 340 210 l 1
EndSplineSet
EndChar

StartChar: Checyrillic
Encoding: 1063 1063 319
Width: 1229
VWidth: 1947
GlyphClass: 2
Flags: W
HStem: 0 21G<889 1099> 407 210<435.857 889> 1380 20G<130 340 889 1099>
VStem: 130 210<710.081 1400> 889 210<0 407 617 1400>
LayerCount: 2
Fore
SplineSet
1099 -0 m 1
 889 0 l 1
 889 407 l 1
 604 407 l 2
 297 407 130 619 130 840 c 2
 130 1400 l 1
 340 1400 l 1
 340 840 l 2
 340 725 423 617 604 617 c 2
 889 617 l 1
 889 1400 l 1
 1099 1400 l 1
 1099 -0 l 1
EndSplineSet
EndChar

StartChar: Shacyrillic
Encoding: 1064 1064 320
Width: 1229
VWidth: 1947
GlyphClass: 2
Flags: W
HStem: -0 210<340 511 721 889> 1380 20G<130 340 889 1099>
VStem: 130 210<210 1400> 511 210<210 1169> 889 210<210 1400>
LayerCount: 2
Fore
SplineSet
721 210 m 1
 889 210 l 1
 889 1400 l 1
 1099 1400 l 1
 1099 0 l 1
 130 -0 l 1
 130 1400 l 1
 340 1400 l 1
 340 210 l 1
 511 210 l 1
 511 1169 l 1
 721 1169 l 1
 721 210 l 1
EndSplineSet
EndChar

StartChar: Shchacyrillic
Encoding: 1065 1065 321
Width: 1229
VWidth: 1947
GlyphClass: 2
Flags: W
HStem: -0 210<340 511 721 889> 1380 20G<130 340 889 1099>
VStem: 130 210<210 1400> 511 210<210 1169> 889 210<210 1400>
LayerCount: 2
Fore
SplineSet
954 0 m 1
 130 -0 l 1
 130 1400 l 1
 340 1400 l 1
 340 210 l 1
 511 210 l 1
 511 1169 l 1
 721 1169 l 1
 721 210 l 1
 889 210 l 1
 889 1400 l 1
 1099 1400 l 1
 1099 210 l 1
 1179 210 l 1
 1179 -36 l 1
 1049 -244 l 1
 871 -134 l 1
 954 0 l 1
EndSplineSet
EndChar

StartChar: Hardsigncyrillic
Encoding: 1066 1066 322
Width: 1229
VWidth: 1947
GlyphClass: 2
Flags: W
HStem: 0 210<518 828.748> 626 210<518 835.557> 1380 20G<81 518>
VStem: 308 210<210 626 836 1190> 889 210<268.069 573.237>
LayerCount: 2
Fore
SplineSet
518 626 m 1
 518 210 l 1
 691 210 l 2
 776 210 889 256 889 378 c 2
 889 478 l 2
 889 587 788 626 691 626 c 2
 518 626 l 1
691 836 m 2
 927 836 1099 693 1099 478 c 2
 1099 378 l 2
 1099 151 910 0 691 0 c 2
 308 0 l 1
 308 1190 l 1
 271 1190 l 1
 168 929 l 1
 81 929 l 1
 81 1400 l 1
 518 1400 l 1
 518 836 l 1
 691 836 l 2
EndSplineSet
EndChar

StartChar: Yericyrillic
Encoding: 1067 1067 323
Width: 1229
VWidth: 1947
GlyphClass: 2
Flags: W
HStem: 0 210<320 518.559> 673 210<320 522.11> 1380 20G<110 320 909 1119>
VStem: 110 210<210 673 883 1400> 589 210<278.066 608.266> 909 210<0 1400>
LayerCount: 2
Fore
SplineSet
346 883 m 2
 647 883 799 726 799 497 c 2
 799 415 l 2
 799 198 670 0 346 0 c 2
 110 0 l 1
 110 1400 l 1
 320 1400 l 1
 320 883 l 1
 346 883 l 2
1119 0 m 1
 909 0 l 1
 909 1400 l 1
 1119 1400 l 1
 1119 0 l 1
320 673 m 1
 320 210 l 1
 346 210 l 2
 471 210 589 251 589 415 c 2
 589 497 l 2
 589 638 476 673 346 673 c 2
 320 673 l 1
EndSplineSet
EndChar

StartChar: Softsigncyrillic
Encoding: 1068 1068 324
Width: 1229
VWidth: 1947
GlyphClass: 2
Flags: W
HStem: 0 210<340 824.933> 626 210<340 817.514> 1380 20G<130 340>
VStem: 130 210<210 626 836 1400> 889 210<269.422 561.266>
LayerCount: 2
Fore
SplineSet
627 836 m 2
 930 836 1099 679 1099 450 c 2
 1099 387 l 2
 1099 165 948 0 627 0 c 2
 130 0 l 1
 130 1400 l 1
 340 1400 l 1
 340 836 l 1
 627 836 l 2
340 626 m 1
 340 210 l 1
 627 210 l 2
 851 210 889 301 889 387 c 2
 889 450 l 2
 889 591 760 626 627 626 c 2
 340 626 l 1
EndSplineSet
EndChar

StartChar: Ereversedcyrillic
Encoding: 1069 1069 325
Width: 1229
VWidth: 1947
GlyphClass: 2
Flags: W
HStem: -25 210<474.065 759.225> 635 210<564 888> 1037 21G<302.667 387.5> 1215 210<454.807 775.11>
VStem: 888 211<351.946 635 844 1073.03>
LayerCount: 2
Fore
SplineSet
608 1425 m 2
 625 1425 l 2
 1025 1425 1099 1095 1099 748 c 2
 1099 684 l 2
 1099 66 815 -24 625 -25 c 2
 609 -25 l 2
 384 -25 249 108 185 295 c 1
 383 363 l 1
 418 262 476 185 609 185 c 2
 625 185 l 2
 799 186 880 334 888 635 c 1
 564 635 l 1
 564 845 l 1
 888 844 l 1
 875 1123 796 1215 625 1215 c 2
 608 1215 l 2
 473 1215 405 1157 370 1037 c 1
 168 1097 l 1
 226 1294 367 1425 608 1425 c 2
EndSplineSet
EndChar

StartChar: IUcyrillic
Encoding: 1070 1070 326
Width: 1229
VWidth: 1947
GlyphClass: 2
Flags: W
HStem: -25 210<696.738 816.501> 0 21G<110 320> 582 210<320 406> 1215 210<692.13 829.498> 1380 20G<110 320>
VStem: 110 210<0 582 792 1400> 406 207<323.302 582 792 1103.41> 909 210<328.277 1091.72>
LayerCount: 2
Fore
SplineSet
772 185 m 2xb7
 837 185 905 361 909 698 c 2
 909 744 l 2
 909 936 878 1215 767 1215 c 2
 754 1215 l 2
 666 1215 613 1038 613 740 c 2
 613 693 l 2
 613 406 679 185 748 185 c 2
 772 185 l 2xb7
406 792 m 1
 415 1334 614 1425 754 1425 c 2
 767 1425 l 2
 932 1425 1119 1316 1119 744 c 2
 1119 698 l 2
 1119 592 1103 -25 772 -25 c 2
 748 -25 l 2xb7
 519 -25 423 257 406 582 c 1
 320 582 l 1
 320 0 l 1
 110 0 l 1
 110 1400 l 1
 320 1400 l 1x6f
 320 792 l 1
 406 792 l 1
EndSplineSet
EndChar

StartChar: IAcyrillic
Encoding: 1071 1071 327
Width: 1229
VWidth: 1947
GlyphClass: 2
Flags: W
HStem: -0 21G<29 300.058 889 1099> 552 210<674 889> 1190 210<388.87 889>
VStem: 130 210<817.357 1141.24> 889 210<0 552 762 1190>
LayerCount: 2
Fore
SplineSet
604 1190 m 2
 354 1190 340 1102 340 1042 c 2
 340 923 l 2
 340 845 380 762 604 762 c 2
 889 762 l 1
 889 1190 l 1
 604 1190 l 2
889 552 m 1
 674 552 l 1
 286 -0 l 1
 200 0 115 0 29 -0 c 1
 430 570 l 1
 187 626 130 800 130 923 c 2
 130 1042 l 2
 130 1226 207 1400 604 1400 c 2
 1099 1400 l 1
 1099 -0 l 1
 889 0 l 1
 889 552 l 1
EndSplineSet
EndChar

StartChar: becyrillic
Encoding: 1073 1073 329
Width: 1229
VWidth: 2334
GlyphClass: 2
Flags: W
HStem: -25 210<463.338 791.858> 839 210<433.457 797.109> 1190 210<445.347 892.812>
VStem: 130 210<307.719 749.358> 889 210<287.213 748.573>
LayerCount: 2
Fore
SplineSet
604 1049 m 2
 627 1049 l 2
 945 1049 1099 843 1099 592 c 2
 1099 452 l 2
 1099 178 924 -25 627 -25 c 2
 604 -25 l 2
 343 -25 130 182 130 452 c 2
 130 923 l 2
 130 1261 367 1400 615 1400 c 3
 765 1400 851 1412 936 1468 c 1
 1052 1292 l 1
 912 1199 769 1190 615 1190 c 3
 505 1190 372 1156 345 989 c 1
 416 1028 503 1049 604 1049 c 2
340 592 m 2
 340 452 l 2
 340 302 457 185 604 185 c 2
 627 185 l 2
 837 185 889 329 889 452 c 2
 889 592 l 2
 889 716 837 839 627 839 c 2
 604 839 l 2
 406 839 340 729 340 592 c 2
EndSplineSet
EndChar

StartChar: vecyrillic
Encoding: 1074 1074 330
Width: 1229
VWidth: 2334
GlyphClass: 2
Flags: W
HStem: 0 210<340 850.56> 442 210<340 792.74> 814 210<340 805.236>
VStem: 130 210<210 442 652 814> 818 210<683.652 793.7> 889 210<247.68 405.658>
LayerCount: 2
Fore
SplineSet
818 754 m 3xf8
 818 795 753 814 556 814 c 2
 340 814 l 1
 340 652 l 1
 556 652 l 2
 719 652 818 672 818 754 c 3xf8
889 343 m 2xf4
 889 420 759 442 627 442 c 2
 340 442 l 1
 340 210 l 1
 629 210 l 2
 753 210 889 213 889 335 c 2
 889 343 l 2xf4
130 0 m 1
 130 1024 l 1
 556 1024 l 2
 805 1024 1028 966 1028 754 c 3xf8
 1028 700 1023 642 958 580 c 1
 1048 526 1099 442 1099 343 c 2
 1099 335 l 2
 1099 81 883 0 629 0 c 2
 130 0 l 1
EndSplineSet
EndChar

StartChar: gecyrillic
Encoding: 1075 1075 331
Width: 1229
VWidth: 1947
GlyphClass: 2
Flags: W
HStem: -25 210<374.466 825.737> 839 210<409.426 836.91>
VStem: 130 210<222.148 370.664> 849 210<699.008 820.575> 889 210<243.733 350>
LayerCount: 2
Fore
SplineSet
849 761 m 2xf0
 849 808 831 839 643 839 c 2
 563 839 l 2
 460 839 392 797 353 735 c 1
 175 845 l 1
 250 967 384 1049 563 1049 c 2
 643 1049 l 2
 724 1049 1059 1035 1059 761 c 2
 1059 750 l 2xf0
 1059 607 973 520 863 493 c 2
 394 376 l 2
 364 369 340 342 340 331 c 2
 340 288 l 2
 340 187 536 185 563 185 c 2
 674 185 l 2
 813 185 889 263 889 333 c 2
 889 350 l 1
 1099 350 l 1
 1099 331 l 2xe8
 1099 179 977 -25 674 -25 c 2
 563 -25 l 2
 322 -25 130 75 130 288 c 2
 130 331 l 2
 130 455 233 552 344 580 c 2
 813 697 l 2
 828 701 849 708 849 750 c 2
 849 761 l 2xf0
EndSplineSet
EndChar

StartChar: decyrillic
Encoding: 1076 1076 332
Width: 1229
VWidth: 1947
GlyphClass: 2
Flags: W
HStem: 0 211<475 788> 1004 20G<690.5 998>
VStem: 788 210<211 813>
LayerCount: 2
Fore
SplineSet
788 813 m 1
 679 797 577 658 557 575 c 2
 475 211 l 1
 788 211 l 1
 788 813 l 1
353 623 m 2
 390 787 573 1024 808 1024 c 2
 998 1024 l 1
 998 211 l 1
 1099 211 l 1
 1099 11 l 1
 1008 -162 l 1
 889 -162 l 1
 889 0 l 1
 340 0 l 1
 340 -162 l 1
 220 -162 l 1
 130 10 l 1
 130 211 l 1
 259 211 l 1
 353 623 l 2
EndSplineSet
EndChar

StartChar: zhecyrillic
Encoding: 1078 1078 334
Width: 1229
VWidth: 1947
GlyphClass: 2
Flags: W
HStem: 0 21G<86 333.34 511 721 894.538 1142> 1004 20G<511 721>
VStem: 511 210<0 152 670 1024>
LayerCount: 2
Fore
SplineSet
86 0 m 1
 349 509 l 1
 135 982 l 1
 327 1068 l 1
 511 661 l 1
 511 1024 l 1
 721 1024 l 1
 721 670 l 1
 898 1068 l 1
 1090 982 l 1
 878 505 l 1
 1142 -0 l 1
 1063 0 984 0 905 0 c 1
 769 260 l 1
 721 153 l 1
 721 0 l 1
 651 0 581 0 511 -0 c 1
 511 152 l 1
 460 265 l 1
 323 0 l 1
 244 0 165 0 86 0 c 1
EndSplineSet
EndChar

StartChar: zecyrillic
Encoding: 1079 1079 335
Width: 1229
VWidth: 1947
GlyphClass: 2
Flags: W
HStem: -25 210<393.653 836.877> 452 210<482 807.75> 840 210<405.266 810.452>
VStem: 828 210<686.809 819.003> 889 210<230.631 418.772>
LayerCount: 2
Fore
SplineSet
828 769 m 2xf0
 828 797 800 840 674 840 c 2
 557 840 l 2
 452 840 388 804 354 742 c 1
 170 844 l 1
 217 930 325 1050 557 1050 c 2
 674 1050 l 2
 951 1050 1038 881 1038 769 c 2
 1038 759 l 2xf0
 1038 719 1036 661 981 586 c 1
 1058 531 1099 448 1099 347 c 2
 1099 328 l 2
 1099 174 994 -25 683 -25 c 2
 567 -25 l 2
 206 -25 142 204 131 276 c 1
 339 308 l 1
 344 277 378 185 567 185 c 2
 683 185 l 2
 877 185 889 291 889 328 c 2
 889 347 l 2xe8
 889 444 741 452 683 452 c 2
 482 452 l 1
 482 662 l 1
 667 662 l 2
 745 662 828 684 828 759 c 2
 828 769 l 2xf0
EndSplineSet
EndChar

StartChar: iicyrillic
Encoding: 1080 1080 336
Width: 1229
VWidth: 1947
GlyphClass: 2
Flags: W
HStem: -0 21G<130 322.59 889 1099> 1004 20G<130 340 907.432 1099>
VStem: 130 210<358 1024> 889 210<0 664>
LayerCount: 2
Fore
SplineSet
130 -0 m 1
 130 1024 l 1
 340 1024 l 1
 340 358 l 1
 925 1024 l 1
 1099 1024 l 1
 1099 0 l 1
 889 -0 l 1
 889 664 l 1
 305 -0 l 1
 130 -0 l 1
EndSplineSet
EndChar

StartChar: kacyrillic
Encoding: 1082 1082 338
Width: 1229
VWidth: 1947
GlyphClass: 2
Flags: W
HStem: 0 21G<130 340 851.413 1183> 1004 20G<130 340 898.987 939.259>
VStem: 130 210<0 111 416 1024>
LayerCount: 2
Fore
SplineSet
340 0 m 1
 130 0 l 1
 130 1024 l 1
 340 1024 l 1
 340 416 l 1
 918 1024 l 1
 1070 881 l 1
 678 467 l 1
 1183 -0 l 1
 1080 0 976 0 873 0 c 1
 533 315 l 1
 340 111 l 1
 340 0 l 1
EndSplineSet
EndChar

StartChar: elcyrillic
Encoding: 1083 1083 339
Width: 1229
VWidth: 1947
GlyphClass: 2
Flags: W
HStem: -0 21G<46 281.221 889 1099> 813 211<686.438 889>
VStem: 889 210<0 813>
LayerCount: 2
Fore
SplineSet
306 634 m 2
 375 802 587 1024 808 1024 c 2
 1099 1024 l 1
 1099 -0 l 1
 889 0 l 1
 889 813 l 1
 808 813 l 2
 689 813 541 652 504 562 c 2
 273 -0 l 1
 197 0 122 0 46 -0 c 1
 306 634 l 2
EndSplineSet
EndChar

StartChar: emcyrillic
Encoding: 1084 1084 340
Width: 1229
VWidth: 1947
GlyphClass: 2
Flags: W
HStem: 0 21G<90 304.459 924.413 1139> 1004 20G<214.52 440.679 781.544 1007.62>
LayerCount: 2
Fore
SplineSet
302 0 m 1
 90 0 l 1
 217 1024 l 1
 434 1024 l 1
 614 485 l 1
 788 1024 l 1
 1005 1024 l 1
 1139 0 l 1
 927 0 l 1
 856 549 l 1
 713 106 l 1
 519 106 l 1
 370 553 l 1
 302 0 l 1
EndSplineSet
EndChar

StartChar: encyrillic
Encoding: 1085 1085 341
Width: 1229
VWidth: 1947
GlyphClass: 2
Flags: W
HStem: 0 21G<130 340 889 1099> 368 210<340 889> 1004 20G<130 340 889 1099>
VStem: 130 210<0 368 578 1024> 889 210<0 368 578 1024>
LayerCount: 2
Fore
SplineSet
340 -0 m 1
 130 0 l 1
 130 1024 l 1
 340 1024 l 1
 340 578 l 1
 889 578 l 1
 889 1024 l 1
 1099 1024 l 1
 1099 -0 l 1
 889 0 l 1
 889 368 l 1
 340 368 l 1
 340 -0 l 1
EndSplineSet
EndChar

StartChar: tecyrillic
Encoding: 1090 1090 346
Width: 1229
VWidth: 1947
GlyphClass: 2
Flags: W
HStem: -0 21G<511 721> 814 210<130 511 721 1099>
VStem: 511 210<0 814>
LayerCount: 2
Fore
SplineSet
1099 1024 m 1
 1099 814 l 1
 721 814 l 1
 721 0 l 1
 511 -0 l 1
 511 814 l 1
 130 814 l 1
 130 1024 l 1
 1099 1024 l 1
EndSplineSet
EndChar

StartChar: efcyrillic
Encoding: 1092 1092 348
Width: 1229
VWidth: 1947
GlyphClass: 2
Flags: W
HStem: -385 21G<511 721> -25 210<338.818 511 721 889.343> 762 210<329.312 511 721 896.654> 1027 20G<511 721>
VStem: 23 210<291.471 664.536> 511 210<-385 -25 185 762 972 1047> 998 210<283.953 668.08>
LayerCount: 2
Fore
SplineSet
721 -385 m 1
 511 -385 l 1
 511 -25 l 1
 201 -22 23 167 23 453 c 2
 23 510 l 2
 23 730 143 969 511 972 c 1
 511 1047 l 1
 721 1047 l 1
 721 972 l 1
 1073 967 1208 746 1208 510 c 2
 1208 452 l 2
 1208 228 1089 -18 721 -25 c 1
 721 -385 l 1
721 762 m 1
 721 185 l 1
 870 189 998 246 998 452 c 2
 998 510 l 2
 998 658 927 758 721 762 c 1
511 185 m 1
 511 762 l 1
 305 760 233 660 233 510 c 2
 233 453 l 2
 233 242 365 187 511 185 c 1
EndSplineSet
EndChar

StartChar: tsecyrillic
Encoding: 1094 1094 350
Width: 1229
VWidth: 2334
GlyphClass: 2
Flags: W
HStem: -25 210<407.831 725.514> 1004 20G<130 340 889 1099>
VStem: 130 210<252.767 1024> 889 210<371.117 1024> 981 210<-73.997 130.944>
LayerCount: 2
Fore
SplineSet
1099 267 m 1xf0
 1172 194 1191 53 1191 -6 c 3
 1191 -96 1125 -208 930 -323 c 1
 842 -133 l 1
 896 -108 981 -60 981 0 c 3xe8
 981 56 952 118 931 137 c 1
 853 54 745 -25 601 -25 c 2
 576 -25 l 2
 259 -25 130 178 130 387 c 2
 130 1024 l 1
 340 1024 l 1
 340 387 l 2
 340 225 453 185 576 185 c 2
 601 185 l 2
 774 185 889 425 889 489 c 2
 889 1024 l 1
 1099 1024 l 1
 1099 267 l 1xf0
EndSplineSet
EndChar

StartChar: checyrillic
Encoding: 1095 1095 351
Width: 1229
VWidth: 1947
GlyphClass: 2
Flags: W
HStem: 0 21G<889 1099> 300 210<410.453 749.32> 1004 20G<130 340 889 1099>
VStem: 130 210<576.051 1024> 889 210<0 395 678.251 1024>
LayerCount: 2
Fore
SplineSet
340 714 m 2
 340 608 389 510 576 510 c 2
 647 510 l 2
 787 510 889 737 889 817 c 2
 889 1024 l 1
 1099 1024 l 1
 1099 -0 l 1
 889 0 l 1
 889 395 l 1
 822 338 741 300 647 300 c 2
 576 300 l 2
 292 300 130 472 130 714 c 2
 130 1024 l 1
 340 1024 l 1
 340 714 l 2
EndSplineSet
EndChar

StartChar: shacyrillic
Encoding: 1096 1096 352
Width: 1229
VWidth: 2334
GlyphClass: 2
Flags: W
HStem: -25 210<351.106 454.168 726.622 836.972> 1004 20G<130 340 511 721 889 1099>
VStem: 130 210<190.643 1024> 511 210<247.581 1024> 889 210<240.347 1024>
LayerCount: 2
Fore
SplineSet
786 185 m 2
 823 185 889 296 889 378 c 2
 889 1024 l 1
 1099 1024 l 1
 1099 -0 l 1
 889 0 l 1
 844 -23 808 -25 786 -25 c 2
 772 -25 l 2
 695 -25 630 8 584 60 c 1
 503 -23 445 -25 406 -25 c 2
 392 -25 l 2
 243 -25 130 101 130 264 c 2
 130 1024 l 1
 340 1024 l 1
 340 264 l 2
 340 224 358 185 392 185 c 2
 406 185 l 2
 435 185 511 297 511 378 c 2
 511 1024 l 1
 721 1024 l 1
 721 264 l 2
 721 238 733 185 772 185 c 2
 786 185 l 2
EndSplineSet
EndChar

StartChar: shchacyrillic
Encoding: 1097 1097 353
Width: 1229
VWidth: 2334
GlyphClass: 2
Flags: W
HStem: -25 210<351.106 454.168 726.622 836.972> 1004 20G<130 340 511 721 889 1099>
VStem: 130 210<190.643 1024> 511 210<247.581 1024> 889 210<241.09 1024> 981 210<-68.0429 65.0117>
LayerCount: 2
Fore
SplineSet
975 67 m 1xf4
 891 -23 832 -25 786 -25 c 2
 772 -25 l 2
 695 -25 630 8 584 60 c 1
 503 -23 445 -25 406 -25 c 2
 392 -25 l 2
 243 -25 130 101 130 264 c 2
 130 1024 l 1
 340 1024 l 1
 340 264 l 2
 340 224 358 185 392 185 c 2
 406 185 l 2
 435 185 511 297 511 378 c 2
 511 1024 l 1
 721 1024 l 1
 721 264 l 2
 721 238 733 185 772 185 c 2
 786 185 l 2
 823 185 889 296 889 378 c 2
 889 1024 l 1
 1099 1024 l 1
 1099 267 l 1xf8
 1172 194 1191 62 1191 -6 c 3
 1191 -58 1172 -212 930 -323 c 1
 842 -133 l 1
 896 -108 981 -46 981 0 c 3
 981 25 979 50 975 67 c 1xf4
EndSplineSet
EndChar

StartChar: hardsigncyrillic
Encoding: 1098 1098 354
Width: 1229
VWidth: 1947
GlyphClass: 2
Flags: W
HStem: 0 210<527 837.735> 458 210<527 860.247> 1004 20G<87 527>
VStem: 317 210<210 458 668 813> 889 210<259.219 421.517>
LayerCount: 2
Fore
SplineSet
889 368 m 2
 889 404 834 458 664 458 c 2
 527 458 l 1
 527 210 l 1
 664 210 l 2
 765 210 889 249 889 324 c 2
 889 368 l 2
664 668 m 2
 1024 668 1099 488 1099 368 c 2
 1099 324 l 2
 1099 27 767 0 664 0 c 2
 317 0 l 1
 317 813 l 1
 282 813 l 1
 186 568 l 1
 87 568 l 1
 87 1024 l 1
 527 1024 l 1
 527 668 l 1
 664 668 l 2
EndSplineSet
EndChar

StartChar: yericyrillic
Encoding: 1099 1099 355
Width: 1229
VWidth: 1947
GlyphClass: 2
Flags: W
HStem: 0 210<320 572.925> 453 210<320 587.311> 1004 20G<110 320 909 1119>
VStem: 110 210<210 453 663 1024> 613 210<253.624 414.67> 909 210<0 1024>
LayerCount: 2
Fore
SplineSet
613 359 m 2
 613 430 494 453 399 453 c 2
 320 453 l 1
 320 210 l 1
 399 210 l 2
 601 210 613 301 613 324 c 2
 613 359 l 2
909 1024 m 1
 1119 1024 l 1
 1119 0 l 1
 909 0 l 1
 909 1024 l 1
320 663 m 1
 399 663 l 2
 582 663 823 612 823 359 c 2
 823 324 l 2
 823 215 762 0 399 0 c 2
 110 0 l 1
 110 1024 l 1
 320 1024 l 1
 320 663 l 1
EndSplineSet
EndChar

StartChar: softsigncyrillic
Encoding: 1100 1100 356
Width: 1229
VWidth: 1947
GlyphClass: 2
Flags: W
HStem: 0 210<340 816.818> 453 210<340 839.509> 1027 20G<130 340>
VStem: 130 210<210 453 663 1047> 889 210<267.323 405.426>
LayerCount: 2
Fore
SplineSet
889 359 m 2
 889 409 764 453 627 453 c 2
 340 453 l 1
 340 210 l 1
 627 210 l 2
 830 210 889 301 889 324 c 2
 889 359 l 2
1099 324 m 2
 1099 198 987 0 627 0 c 2
 130 0 l 1
 130 1047 l 1
 340 1047 l 1
 340 663 l 1
 627 663 l 2
 725 663 1099 620 1099 359 c 2
 1099 324 l 2
EndSplineSet
EndChar

StartChar: ereversedcyrillic
Encoding: 1101 1101 357
Width: 1229
VWidth: 1947
GlyphClass: 2
Flags: W
HStem: -25 210<395.875 767.564> 407 210<421 866> 838 210<394.241 786.798>
VStem: 866 213<291.435 407 617 754.86>
LayerCount: 2
Fore
SplineSet
583 1048 m 2
 654 1048 l 2
 906 1048 1079 859 1079 592 c 2
 1079 452 l 2
 1079 190 882 -25 654 -25 c 2
 583 -25 l 2
 287 -25 188 123 154 192 c 1
 342 286 l 1
 368 233 433 185 583 185 c 2
 654 185 l 2
 744 185 847 273 866 407 c 1
 421 407 l 1
 421 617 l 1
 866 617 l 1
 858 751 784 838 654 838 c 2
 583 838 l 2
 426 838 364 789 341 737 c 1
 149 823 l 1
 211 963 356 1048 583 1048 c 2
EndSplineSet
EndChar

StartChar: iucyrillic
Encoding: 1102 1102 358
Width: 1229
VWidth: 1947
GlyphClass: 2
Flags: W
HStem: -25 210<674.824 841.153> 0 21G<110 320> 407 210<320 410.064> 839 210<672.76 848> 1004 20G<110 320>
VStem: 110 210<0 407 617 1024> 407 206<259.355 407 617 772.541> 909 210<265.318 771.607>
LayerCount: 2
Fore
SplineSet
1119 499 m 2x37
 1119 76 911 -25 772 -25 c 2
 748 -25 l 2xb7
 722 -25 448 0 407 407 c 1
 320 407 l 1
 320 0 l 1
 110 0 l 1
 110 1024 l 1
 320 1024 l 1x6f
 320 617 l 1
 407 617 l 1
 435 961 615 1049 754 1049 c 2
 767 1049 l 2
 1080 1049 1119 705 1119 532 c 2
 1119 499 l 2x37
772 185 m 2
 854 185 909 316 909 499 c 2
 909 532 l 2
 909 786 826 839 767 839 c 2
 754 839 l 2
 698 839 613 796 613 529 c 2
 613 496 l 2
 613 477 616 185 748 185 c 2
 772 185 l 2
EndSplineSet
EndChar

StartChar: iacyrillic
Encoding: 1103 1103 359
Width: 1229
VWidth: 1947
GlyphClass: 2
Flags: W
HStem: -0 21G<889 1099> 368 210<674 889> 813 211<378.28 889>
VStem: 130 210<610.594 774.598> 889 210<0 368 578 813>
LayerCount: 2
Fore
SplineSet
586 813 m 2
 374 813 340 745 340 728 c 2
 340 681 l 2
 340 634 364 578 586 578 c 2
 889 578 l 1
 889 813 l 1
 586 813 l 2
400 387 m 1
 144 450 130 602 130 681 c 2
 130 728 l 2
 130 846 207 1024 586 1024 c 2
 1099 1024 l 1
 1099 0 l 1
 889 -0 l 1
 889 368 l 1
 674 368 l 1
 271 -45 l 1
 121 101 l 1
 400 387 l 1
EndSplineSet
EndChar

StartChar: ecyrillic
Encoding: 1108 1108 362
Width: 1229
VWidth: 1947
GlyphClass: 2
Flags: W
HStem: -25 210<459.038 845.965> 407 210<367 813> 838 210<451.937 848.833>
VStem: 154 213<279.668 407 617 748.604>
LayerCount: 2
Fore
SplineSet
650 838 m 2
 589 838 l 2
 429 838 376 730 366 617 c 1
 813 617 l 1
 813 407 l 1
 367 407 l 1
 379 305 431 185 589 185 c 2
 650 185 l 2
 809 185 876 238 899 285 c 1
 1088 193 l 1
 1019 50 861 -25 650 -25 c 2
 589 -25 l 2
 318 -25 154 185 154 461 c 2
 154 573 l 2
 154 866 328 1048 589 1048 c 2
 650 1048 l 2
 877 1048 1030 964 1093 823 c 1
 901 737 l 1
 869 808 767 838 650 838 c 2
EndSplineSet
EndChar

StartChar: numero
Encoding: 8470 8470 372
Width: 1229
VWidth: 1947
Flags: W
HStem: 0 21G<50 260 449.179 671> 1380 20G<50 271.821 461 671>
VStem: 50 210<0 670 1352.21 1400> 461 210<0 47.7867 730 1400> 698 210<682.663 1135.74> 980 210<678.685 1132.61>
LayerCount: 2
Fore
SplineSet
1190 919 m 3
 1190 765 1166 441 944 441 c 3
 826 441 698 549 698 919 c 3
 698 1295 846 1362 944 1362 c 3
 1004 1362 1190 1340 1190 919 c 3
945 677 m 3
 975 677 980 824 980 919 c 27
 980 1005 975 1136 946 1136 c 3
 914 1136 908 1005 908 919 c 27
 908 824 913 677 945 677 c 3
50 0 m 1
 50 1400 l 1
 266 1400 l 1
 461 730 l 1
 461 1400 l 1
 671 1400 l 1
 671 0 l 1
 455 0 l 1
 260 670 l 1
 260 0 l 1
 50 0 l 1
EndSplineSet
EndChar

StartChar: caroncomb
Encoding: 780 780 377
Width: 1229
VWidth: 1947
Flags: W
HStem: 1422 244
VStem: 326 580
LayerCount: 2
Fore
SplineSet
616 1546 m 1
 834 1666 l 1
 906 1534 l 1
 702 1422 l 1
 530 1422 l 1
 326 1534 l 1
 398 1666 l 1
 616 1546 l 1
EndSplineSet
EndChar

StartChar: gravecomb
Encoding: 768 768 379
Width: 1229
VWidth: 2334
Flags: MW
HStem: 1319 407
VStem: 446 398
DStem2: 586 1726 446 1591 0.688188 -0.725532<1.60044 374.897>
LayerCount: 2
Fore
SplineSet
844 1454 m 5
 704 1319 l 5
 446 1591 l 5
 586 1726 l 5
 844 1454 l 5
EndSplineSet
EndChar

StartChar: acutecomb
Encoding: 769 769 380
Width: 1229
VWidth: 2334
Flags: MW
HStem: 1319 407
VStem: 386 398
DStem2: 386 1454 526 1319 0.688188 0.725532<0 373.297>
LayerCount: 2
Fore
SplineSet
526 1319 m 5
 386 1454 l 5
 644 1726 l 5
 784 1591 l 5
 526 1319 l 5
EndSplineSet
EndChar

StartChar: tildecomb
Encoding: 771 771 381
Width: 1229
VWidth: 1947
Flags: W
HStem: 1447 150<644.194 811.389> 1537 150<420.331 586.865>
LayerCount: 2
Fore
SplineSet
290 1569 m 2x40
 360 1676 440 1687 478 1687 c 2
 494 1687 l 2x40
 515 1687 599 1682 655 1632 c 2
 674 1615 l 2
 678 1611 711 1597 735 1597 c 2
 752 1597 l 2
 766 1597 794 1610 815 1646 c 2
 829 1670 l 1
 959 1594 l 1
 945 1570 l 2
 875 1451 752 1447 752 1447 c 2
 735 1447 l 2x80
 670 1447 604 1477 574 1503 c 2
 556 1519 l 2
 547 1527 525 1537 494 1537 c 2
 478 1537 l 2
 474 1537 447 1535 416 1487 c 2
 399 1461 l 1
 273 1543 l 1
 290 1569 l 2x40
EndSplineSet
EndChar

StartChar: hookabovecomb
Encoding: 777 777 382
Width: 1229
VWidth: 1947
Flags: W
HStem: 1255 177<547 696.914> 1561 120<454.715 739.017>
VStem: 547 150<1255 1322.28> 745 150<1443.77 1545.75>
LayerCount: 2
Fore
SplineSet
895 1495 m 3
 895 1350 753 1321 697 1315 c 1
 697 1255 l 1
 547 1255 l 1
 547 1432 l 1
 622 1432 l 2
 715 1432 745 1456 745 1495 c 3
 745 1542 674 1561 634 1561 c 3
 570 1561 525 1550 474 1516 c 1
 392 1612 l 1
 465 1660 536 1681 634 1681 c 27
 759 1681 895 1620 895 1495 c 3
EndSplineSet
EndChar

StartChar: dotbelowcomb
Encoding: 803 803 383
Width: 1229
VWidth: 2334
Flags: W
HStem: -370 234<523.453 707.78>
VStem: 499 234<-343.406 -162.594>
LayerCount: 2
Fore
SplineSet
499 -253 m 0
 499 -188 550 -136 615 -136 c 0
 680 -136 733 -188 733 -253 c 0
 733 -318 680 -370 615 -370 c 0
 550 -370 499 -318 499 -253 c 0
EndSplineSet
EndChar

StartChar: commaturnedabovecmb
Encoding: 786 786 396
Width: 1229
VWidth: 1947
Flags: W
HStem: -486 130<521.786 755.194> -187 205<577 722.208>
VStem: 577 150<-73.9863 18> 766 150<-341.816 -201.526>
LayerCount: 2
Fore
SplineSet
766 -270 m 27
 766 -212 724 -187 643 -187 c 2
 563 -187 l 1
 577 3 l 1
 577 18 l 1
 727 18 l 1
 727 -3 l 1
 723 -63 l 1
 857 -86 916 -160 916 -270 c 3
 916 -424 783 -486 655 -486 c 3
 555 -486 472 -449 405 -391 c 1
 503 -297 l 1
 542 -331 591 -356 655 -356 c 3
 722 -356 766 -325 766 -270 c 27
EndSplineSet
EndChar

StartChar: Hbar
Encoding: 294 294 400
Width: 1229
VWidth: 1947
Flags: W
HStem: 0 21G<212 422 808 1018> 612 210<422 808> 1051 210<80 212 422 808 1018 1149> 1380 20G<212 422 808 1018>
VStem: 212 210<0 612 822 1051 1261 1400> 808 210<0 612 822 1051 1261 1400>
LayerCount: 2
Fore
SplineSet
422 -0 m 1
 212 0 l 1
 212 1051 l 1
 80 1051 l 1
 80 1261 l 1
 212 1261 l 1
 212 1400 l 1
 422 1400 l 1
 422 1261 l 1
 808 1261 l 1
 808 1400 l 1
 1018 1400 l 1
 1018 1261 l 1
 1149 1261 l 1
 1149 1051 l 1
 1018 1051 l 1
 1018 -0 l 1
 808 0 l 1
 808 612 l 1
 422 612 l 1
 422 -0 l 1
422 822 m 1
 808 822 l 1
 808 1051 l 1
 422 1051 l 1
 422 822 l 1
EndSplineSet
EndChar

StartChar: hbar
Encoding: 295 295 401
Width: 1229
VWidth: 1947
Flags: W
HStem: -0 21G<205 415 889 1099> 839 210<535.094 827.846> 1150 210<80 205 415 660> 1380 20G<205 415>
VStem: 205 210<0 695.945 969 1150 1360 1400> 889 210<0 778.873>
LayerCount: 2
Fore
SplineSet
889 668 m 2
 889 805 758 839 664 839 c 2
 641 839 l 2
 498 839 415 631 415 554 c 2
 415 -0 l 1
 205 -0 l 1
 205 1150 l 1
 80 1150 l 1
 80 1360 l 1
 205 1360 l 1
 205 1400 l 1
 415 1400 l 1
 415 1360 l 1
 660 1360 l 1
 660 1150 l 1
 415 1150 l 1
 415 969 l 1
 478 1017 553 1049 641 1049 c 2
 664 1049 l 2
 916 1049 1099 897 1099 668 c 2
 1099 0 l 1
 889 -0 l 1
 889 668 l 2
EndSplineSet
EndChar

StartChar: IJ
Encoding: 306 306 410
Width: 1229
VWidth: 1947
Flags: W
HStem: 0 210<80 288 498 733> 245 210<576 716.54> 1190 210<80 288 498 733 943 1149>
VStem: 288 210<210 1190> 733 210<467.412 1190>
LayerCount: 2
Fore
SplineSet
679 455 m 2
 721 455 733 538 733 592 c 2
 733 1190 l 1
 498 1190 l 1
 498 210 l 1
 733 210 l 1
 733 0 l 1
 80 0 l 1
 80 210 l 1
 288 210 l 1
 288 1190 l 1
 80 1190 l 1
 80 1400 l 1
 1149 1400 l 1
 1149 1190 l 1
 943 1190 l 1
 943 592 l 2
 943 252 703 245 679 245 c 2
 576 245 l 1
 576 455 l 1
 679 455 l 2
EndSplineSet
EndChar

StartChar: Tbar
Encoding: 358 358 430
Width: 1229
VWidth: 1947
Flags: W
HStem: -0 21G<511 721> 452 210<130 511 721 1099> 1190 210<130 511 721 1099>
VStem: 511 210<0 452 662 1190>
LayerCount: 2
Fore
SplineSet
1099 1400 m 1
 1099 1190 l 1
 721 1190 l 1
 721 662 l 1
 1099 662 l 1
 1099 452 l 1
 721 452 l 1
 721 0 l 1
 511 -0 l 1
 511 452 l 1
 130 452 l 1
 130 662 l 1
 511 662 l 1
 511 1190 l 1
 130 1190 l 1
 130 1400 l 1
 1099 1400 l 1
EndSplineSet
EndChar

StartChar: tbar
Encoding: 359 359 431
Width: 1229
VWidth: 1947
Flags: W
HStem: -25 210<599.499 819.733> 452 210<130 357 583 1099> 799 210<170 383 609 910> 1405 20G<427.51 639>
VStem: 349 210<221.239 452>
LayerCount: 2
Fore
SplineSet
700 -25 m 2
 438 -25 349 185 349 315 c 2
 349 343 l 1
 357 452 l 1
 130 452 l 1
 130 662 l 1
 373 662 l 1
 383 799 l 1
 170 799 l 1
 170 1009 l 1
 398 1009 l 1
 429 1425 l 1
 639 1425 l 1
 609 1009 l 1
 910 1009 l 1
 910 799 l 1
 593 799 l 1
 583 662 l 1
 1099 662 l 1
 1099 452 l 1
 567 452 l 1
 559 335 l 1
 560 214 645 185 700 185 c 2
 723 185 l 2
 781 188 836 237 846 261 c 1
 1050 211 l 1
 977 22 806 -25 723 -25 c 2
 700 -25 l 2
EndSplineSet
EndChar

StartChar: A
Encoding: 65 65 461
Width: 1229
VWidth: 1708
Flags: W
HStem: 0 21G<87 311.352 921.648 1146> 233 210<446 787> 1405 20G<530.684 701.33>
LayerCount: 2
Fore
SplineSet
446 443 m 1
 787 443 l 1
 616 980 l 1
 446 443 l 1
87 0 m 1
 537 1425 l 1
 695 1425 l 1
 1146 0 l 1
 928 0 l 1
 854 233 l 1
 379 233 l 1
 305 0 l 1
 87 0 l 1
EndSplineSet
EndChar

StartChar: Lambda
Encoding: 923 923 462
Width: 1229
VWidth: 1708
Flags: W
HStem: -0 21G<87 311.177 921.803 1146> 1405 20G<519.813 712.202>
LayerCount: 2
Fore
SplineSet
106 -0 m 1
 87 6 l 1
 526 1425 l 1
 706 1425 l 1
 1146 6 l 1
 1127 0 l 1
 1061 0 994 0 928 -0 c 1
 616 1007 l 1
 305 -0 l 1
 239 0 172 0 106 -0 c 1
EndSplineSet
EndChar

StartChar: Delta
Encoding: 916 916 463
Width: 1229
VWidth: 1708
Flags: W
HStem: 0 210<377 853> 1405 20G<518.937 713.007>
LayerCount: 2
Fore
SplineSet
853 211 m 1
 616 999 l 1
 377 210 l 1
 853 211 l 1
93 0 m 1
 525 1425 l 1
 707 1425 l 1
 1135 0 l 1
 93 0 l 1
EndSplineSet
EndChar

StartChar: Theta
Encoding: 920 920 464
Width: 1229
VWidth: 1947
Flags: W
HStem: -25 210<482.983 749.91> 582 210<484 748> 1215 210<486.686 738.969>
VStem: 130 210<391.381 1020.37> 484 264<582 792> 889 210<373.104 1012.83>
LayerCount: 2
Fore
SplineSet
748 792 m 1
 748 582 l 1
 484 582 l 1
 484 792 l 1
 748 792 l 1
625 1215 m 2
 608 1215 l 2
 394 1215 340 933 340 726 c 2
 340 664 l 2
 340 476 394 185 609 185 c 2
 625 185 l 2
 839 185 889 478 889 664 c 2
 889 728 l 2
 889 917 836 1215 625 1215 c 2
1099 728 m 2
 1099 664 l 2
 1099 228 909 -25 625 -25 c 2
 609 -25 l 2
 322 -25 130 235 130 664 c 2
 130 726 l 2
 130 1064 257 1425 608 1425 c 2
 625 1425 l 2
 909 1425 1099 1145 1099 728 c 2
EndSplineSet
EndChar

StartChar: Xi
Encoding: 926 926 465
Width: 1229
VWidth: 1708
Flags: W
HStem: 0 350<130 340 889 1099> 0 210<340 889> 582 210<442 791> 1047 353<130 340 889 1099> 1190 210<340 889>
VStem: 130 210<210 350 1047 1190> 442 349<582 792> 889 210<210 350 1047 1190>
LayerCount: 2
Fore
SplineSet
130 1047 m 1x37
 130 1400 l 1
 1099 1400 l 1
 1099 1047 l 1
 889 1047 l 1x37
 889 1190 l 1
 340 1190 l 1x2f
 340 1047 l 1
 130 1047 l 1x37
791 792 m 1
 791 582 l 1
 442 582 l 1
 442 792 l 1
 791 792 l 1
340 210 m 1x67
 889 210 l 1x67
 889 350 l 1
 1099 350 l 1
 1099 0 l 1
 130 0 l 1
 130 350 l 1
 340 350 l 1xa7
 340 210 l 1x67
EndSplineSet
EndChar

StartChar: Sigma
Encoding: 931 931 468
Width: 1229
VWidth: 1947
Flags: W
HStem: -25 210<383 1099> 1190 210<397 1099>
LayerCount: 2
Fore
SplineSet
130 1400 m 1
 1099 1400 l 1
 1099 1190 l 1
 397 1190 l 1
 778 722 l 1
 383 185 l 1
 1099 185 l 1
 1099 -25 l 1
 130 -25 l 1
 130 195 l 1
 512 716 l 1
 130 1185 l 1
 130 1400 l 1
EndSplineSet
EndChar

StartChar: Psi
Encoding: 936 936 473
Width: 1229
VWidth: 1947
Flags: W
HStem: -24 21G<511 721> 407 210<349.358 511 721 876.92> 1405 20G<511 721>
VStem: 91 210<665.604 1320> 511 210<-24 407 617 1425> 932 210<669.712 1320>
LayerCount: 2
Fore
SplineSet
301 770 m 2
 301 675 383 617 460 617 c 2
 511 617 l 1
 511 1425 l 1
 721 1425 l 1
 721 617 l 1
 773 617 l 2
 865 617 932 695 932 760 c 2
 932 1320 l 1
 1142 1320 l 1
 1142 760 l 2
 1142 583 985 407 773 407 c 2
 721 407 l 1
 721 -24 l 1
 511 -24 l 1
 511 407 l 1
 460 407 l 2
 201 407 91 611 91 760 c 2
 91 1320 l 1
 301 1320 l 1
 301 770 l 2
EndSplineSet
EndChar

StartChar: Omega
Encoding: 937 937 474
Width: 1229
VWidth: 1947
Flags: W
HStem: 0 210<129 352 878 1099> 1216 210<468.927 762.62>
VStem: 129 210<561.157 1068.8> 352 210<210 301.563> 668 210<210 302.684> 889 210<550.766 1067.5>
LayerCount: 2
Fore
SplineSet
352 210 m 1
 352 273 l 1
 176 385 129 629 129 787 c 2
 129 838 l 2
 129 1201 321 1426 608 1426 c 2
 625 1426 l 2
 909 1426 1099 1198 1099 840 c 2
 1099 787 l 2
 1099 549 1014 356 878 271 c 1
 878 210 l 1
 1099 210 l 1
 1099 0 l 1
 668 -0 l 1
 668 414 l 1
 742 437 l 2
 840 468 889 624 889 787 c 2
 889 840 l 2
 889 1002 836 1216 625 1216 c 2
 608 1216 l 2
 393 1216 339 1006 339 838 c 2
 339 787 l 2
 339 633 394 472 494 435 c 2
 562 410 l 1
 562 0 l 1
 129 0 l 1
 129 210 l 1
 352 210 l 1
EndSplineSet
EndChar

StartChar: alpha
Encoding: 945 945 483
Width: 1229
VWidth: 1947
Flags: W
HStem: -25 210<429.168 603.493> 839 210<426.075 603.057>
VStem: 130 210<293.938 736.951>
LayerCount: 2
Fore
SplineSet
340 497 m 2
 340 322 423 185 505 185 c 2
 523 185 l 2
 588 185 613 230 640 297 c 2
 723 513 l 1
 640 727 l 2
 604 821 576 839 523 839 c 2
 505 839 l 2
 452 839 340 753 340 528 c 2
 340 497 l 2
523 1049 m 2
 579 1049 750 1038 835 805 c 1
 933 1062 l 1
 1129 986 l 1
 948 514 l 1
 1133 38 l 1
 937 -38 l 1
 836 222 l 1
 791 112 711 -25 523 -25 c 2
 505 -25 l 2
 297 -25 130 209 130 497 c 2
 130 528 l 2
 130 861 313 1049 505 1049 c 2
 523 1049 l 2
EndSplineSet
EndChar

StartChar: beta
Encoding: 946 946 484
Width: 1229
VWidth: 2334
Flags: W
HStem: -25 210<421.293 841.734> 442 210<481 820.006> 839 210<437.037 823.707>
VStem: 130 210<-321 32 258.742 742.935> 844 210<682.789 811.799> 889 210<234.26 413.662>
LayerCount: 2
Fore
SplineSet
130 621 m 2xf4
 130 843 301 1049 606 1049 c 2
 629 1049 l 2
 985 1049 1054 871 1054 753 c 2
 1054 740 l 2xf8
 1054 711 1047 627 990 568 c 1
 1072 505 1099 417 1099 338 c 2
 1099 314 l 2
 1099 87 916 -25 648 -25 c 2
 597 -25 l 2
 494 -25 409 -4 340 32 c 1
 340 -321 l 1
 130 -321 l 1
 130 621 l 2xf4
844 753 m 2
 844 822 753 839 629 839 c 2
 606 839 l 2
 423 839 340 733 340 621 c 2
 340 352 l 2
 340 291 404 185 597 185 c 2
 648 185 l 2
 727 185 889 195 889 314 c 2
 889 338 l 2xf4
 889 400 857 442 664 442 c 2
 481 442 l 1
 481 652 l 1
 620 652 l 2
 677 652 844 657 844 740 c 2
 844 753 l 2
EndSplineSet
EndChar

StartChar: gamma
Encoding: 947 947 485
Width: 1229
VWidth: 2334
Flags: W
HStem: -385 21G<510 720> 1004 20G<105 340.41 889.59 1126>
VStem: 510 210<-385 59>
LayerCount: 2
Fore
SplineSet
510 -385 m 1
 510 59 l 1
 105 1024 l 1
 332 1024 l 1
 615 351 l 1
 898 1024 l 1
 1126 1024 l 1
 720 59 l 1
 720 -385 l 1
 510 -385 l 1
EndSplineSet
EndChar

StartChar: delta
Encoding: 948 948 486
Width: 1229
VWidth: 2334
Flags: W
HStem: -25 210<472.745 780.475> 1190 210<555 994>
VStem: 130 210<323.799 723.616> 889 210<306.726 725.712>
LayerCount: 2
Fore
SplineSet
340 554 m 2
 340 480 l 2
 340 331 455 185 604 185 c 2
 627 185 l 2
 837 185 889 362 889 480 c 2
 889 554 l 2
 889 675 837 839 627 839 c 2
 604 839 l 2
 393 839 340 670 340 554 c 2
165 1400 m 1
 994 1400 l 1
 994 1190 l 1
 555 1190 l 1
 868 990 l 1
 1019 905 1099 738 1099 554 c 2
 1099 480 l 2
 1099 202 923 -25 627 -25 c 2
 604 -25 l 2
 338 -25 130 216 130 480 c 2
 130 554 l 2
 130 764 236 951 430 1020 c 1
 165 1190 l 1
 165 1400 l 1
EndSplineSet
EndChar

StartChar: epsilon
Encoding: 949 949 487
Width: 1229
VWidth: 2334
Flags: W
HStem: -25 210<378.021 847.124> 427 210<372.24 834> 839 210<357.702 860.75>
VStem: 130 210<225.432 389.949 670.113 819.848>
LayerCount: 2
Fore
SplineSet
558 -25 m 2
 144 -25 130 249 130 310 c 2
 130 325 l 2
 130 392 158 469 225 530 c 1
 141 597 131 732 130 747 c 3
 130 989 330 1049 558 1049 c 2
 656 1049 l 2
 858 1049 979 980 1030 931 c 1
 884 779 l 1
 867 795 795 839 656 839 c 2
 558 839 l 2
 358 839 340 807 340 747 c 3
 340 699 366 637 563 637 c 2
 834 637 l 1
 834 427 l 1
 563 427 l 2
 382 427 340 366 340 325 c 2
 340 310 l 2
 340 270 360 185 558 185 c 2
 656 185 l 2
 793 185 847 225 885 258 c 1
 1023 100 l 1
 934 23 826 -25 656 -25 c 2
 558 -25 l 2
EndSplineSet
EndChar

StartChar: zeta
Encoding: 950 950 488
Width: 1229
VWidth: 2334
Flags: W
HStem: -399 210<616 876.443> -25 210<393.43 874.802>
VStem: 130 210<228.441 450.079> 889 210<-169.662 -44.1044>
LayerCount: 2
Fore
SplineSet
558 -25 m 2
 149 -25 130 237 130 350 c 2
 130 368 l 2
 130 514 249 665 439 734 c 2
 713 834 l 1
 630 858 554 894 477 937 c 2
 445 955 l 1
 545 1139 l 1
 597 1111 l 2
 656 1079 759 1024 965 1024 c 2
 1098 1024 l 1
 1098 834 l 1
 1071 813 l 2
 972 736 871 669 784 637 c 2
 511 536 l 2
 372 485 340 391 340 368 c 2
 340 350 l 2
 340 270 354 185 558 185 c 2
 711 185 l 2
 1027 185 1099 18 1099 -94 c 2
 1099 -116 l 2
 1099 -286 963 -399 728 -399 c 2
 616 -399 l 1
 616 -189 l 1
 728 -189 l 2
 816 -189 889 -171 889 -116 c 2
 889 -94 l 2
 889 -27 746 -25 711 -25 c 2
 558 -25 l 2
EndSplineSet
EndChar

StartChar: eta
Encoding: 951 951 489
Width: 1229
VWidth: 2334
Flags: W
HStem: -385 21G<889 1099> 0 21G<130 340> 839 210<464.165 838.775> 1004 20G<130 340>
VStem: 130 210<0 704.134 958 1024> 889 210<-385 790.812>
LayerCount: 2
Fore
SplineSet
604 839 m 2xec
 412 839 340 633 340 592 c 2
 340 -0 l 1
 130 0 l 1
 130 1024 l 1
 340 1024 l 1xdc
 340 958 l 1
 407 1006 494 1049 604 1049 c 2
 627 1049 l 2
 1080 1049 1099 781 1099 705 c 2
 1099 -385 l 1
 889 -385 l 1
 889 705 l 2
 889 756 879 839 627 839 c 2
 604 839 l 2xec
EndSplineSet
EndChar

StartChar: theta
Encoding: 952 952 490
Width: 1229
VWidth: 1947
Flags: W
HStem: -25 210<444.523 781.96> 407 210<345 885> 838 210<443.079 784.477>
VStem: 130 215<297.056 407 617 730.236> 885 214<290.971 407 617 735.519>
LayerCount: 2
Fore
SplineSet
640 838 m 2
 587 838 l 2
 450 838 363 749 344 617 c 1
 885 617 l 1
 870 726 809 838 640 838 c 2
1099 559 m 2
 1099 473 l 2
 1099 171 914 -25 636 -25 c 2
 589 -25 l 2
 314 -25 130 185 130 474 c 2
 130 558 l 2
 130 838 313 1048 587 1048 c 2
 640 1048 l 2
 915 1048 1099 850 1099 559 c 2
885 407 m 1
 345 407 l 1
 366 275 450 185 589 185 c 2
 636 185 l 2
 805 185 869 294 885 407 c 1
EndSplineSet
EndChar

StartChar: lambda
Encoding: 955 955 491
Width: 1229
VWidth: 2334
Flags: W
HStem: 0 21G<114 349.473 881.066 1116> 1390 20G<338 568.872>
LayerCount: 2
Fore
SplineSet
114 0 m 1
 516 951 l 1
 338 1410 l 1
 561 1410 l 1
 1116 -0 l 1
 1040 0 965 0 889 0 c 1
 624 668 l 1
 341 -0 l 1
 265 0 190 0 114 0 c 1
EndSplineSet
EndChar

StartChar: xi
Encoding: 958 958 494
Width: 1229
VWidth: 2334
Flags: W
HStem: -399 210<616 876.25> -25 210<363.746 874.802> 408 210<393.5 870>
VStem: 131 210<214.625 365.214 666.511 782.781> 889 210<-162.263 -44.1044>
LayerCount: 2
Fore
SplineSet
558 -25 m 2
 141 -25 131 231 131 287 c 2
 131 303 l 2
 131 354 145 443 237 516 c 1
 141 584 131 699 131 715 c 2
 131 740 l 2
 131 930 408 1024 462 1038 c 2
 515 1052 l 1
 453 1086 412 1126 400 1144 c 2
 381 1172 l 1
 555 1290 l 1
 574 1262 l 2
 597 1227 644 1202 808 1182 c 2
 857 1176 l 1
 857 965 l 1
 844 956 l 2
 815 937 752 906 657 878 c 2
 508 834 l 2
 371 793 341 771 341 740 c 2
 341 715 l 2
 341 670 466 618 609 618 c 2
 870 618 l 1
 870 408 l 1
 609 408 l 2
 393 408 340 345 340 303 c 2
 340 287 l 2
 340 243 351 185 558 185 c 2
 711 185 l 2
 1027 185 1099 18 1099 -94 c 2
 1099 -116 l 2
 1099 -286 942 -399 728 -399 c 2
 616 -399 l 1
 616 -189 l 1
 728 -189 l 2
 780 -189 889 -174 889 -116 c 2
 889 -94 l 2
 889 -27 746 -25 711 -25 c 2
 558 -25 l 2
EndSplineSet
EndChar

StartChar: pi
Encoding: 960 960 496
Width: 1229
VWidth: 2334
Flags: W
HStem: 0 21G<72 364 860.5 1158> 814 210<419 790>
VStem: 209 210<121.487 791> 790 210<147.064 814>
LayerCount: 2
Fore
SplineSet
72 966 m 1
 152 999 256 1024 387 1024 c 2
 845 1024 l 2
 1006 1024 1108 1087 1158 1134 c 1
 1158 883 l 1
 1111 860 1059 842 1000 830 c 1
 1000 248 l 2
 1000 192 1077 90 1158 21 c 1
 1158 0 l 1
 890 0 l 1
 831 79 790 166 790 248 c 2
 790 814 l 1
 419 814 l 1
 419 248 l 2
 419 167 389 79 339 -0 c 1
 72 0 l 1
 72 11 l 1
 153 77 209 182 209 248 c 2
 209 791 l 1
 150 775 105 752 72 729 c 1
 72 966 l 1
EndSplineSet
EndChar

StartChar: rho
Encoding: 961 961 497
Width: 1229
VWidth: 2334
Flags: W
HStem: -385 21G<130 340> -25 210<443.688 782.703> 839 210<432.578 778.896>
VStem: 130 210<-385 46 294.783 749.358> 889 210<294.061 733.693>
LayerCount: 2
Fore
SplineSet
627 -25 m 2
 604 -25 l 2
 500 -25 412 1 340 46 c 1
 340 -385 l 1
 130 -385 l 1
 130 592 l 2
 130 847 289 1049 604 1049 c 2
 627 1049 l 2
 889 1049 1099 860 1099 592 c 2
 1099 461 l 2
 1099 193 929 -25 627 -25 c 2
889 461 m 2
 889 592 l 2
 889 744 774 839 627 839 c 2
 604 839 l 2
 404 839 340 729 340 592 c 2
 340 461 l 2
 340 344 393 185 604 185 c 2
 627 185 l 2
 837 185 889 341 889 461 c 2
EndSplineSet
EndChar

StartChar: sigmafinal
Encoding: 962 962 498
Width: 1229
VWidth: 2334
Flags: W
HStem: -399 210<616 876.25> -25 210<437.074 874.802> 838 210<493.98 887.483>
VStem: 130 210<291.62 688.967> 889 210<-169.662 -44.1044>
LayerCount: 2
Fore
SplineSet
889 -94 m 2
 889 -27 746 -25 711 -25 c 2
 558 -25 l 2
 311 -25 130 175 130 471 c 2
 130 564 l 2
 130 810 354 1048 678 1048 c 2
 742 1048 l 2
 848 1048 970 990 1017 965 c 2
 1081 930 l 1
 981 746 l 1
 911 783 l 2
 881 799 792 838 742 838 c 2
 678 838 l 2
 470 838 340 694 340 564 c 2
 340 471 l 2
 340 295 427 185 558 185 c 2
 711 185 l 2
 1027 185 1099 18 1099 -94 c 2
 1099 -116 l 2
 1099 -286 942 -399 728 -399 c 2
 616 -399 l 1
 616 -189 l 1
 728 -189 l 2
 777 -189 889 -180 889 -116 c 2
 889 -94 l 2
EndSplineSet
EndChar

StartChar: sigma
Encoding: 963 963 499
Width: 1229
VWidth: 1947
Flags: W
HStem: -25 210<454.251 769.713> 799 210<1046 1149> 838 210<443.793 781.417>
VStem: 130 210<315.328 729.12> 889 210<314.851 729.76>
LayerCount: 2
Fore
SplineSet
638 838 m 2xb8
 585 838 l 2
 429 838 340 721 340 558 c 2
 340 493 l 2
 340 315 439 185 587 185 c 2
 635 185 l 2
 788 185 889 315 889 492 c 2
 889 559 l 2
 889 722 795 838 638 838 c 2xb8
1099 559 m 2
 1099 492 l 2
 1099 208 913 -25 635 -25 c 2
 587 -25 l 2
 313 -25 130 208 130 493 c 2
 130 558 l 2
 130 839 312 1048 585 1048 c 2
 638 1048 l 2xb8
 709 1048 774 1034 832 1008 c 1
 1149 1009 l 1
 1149 799 l 1
 1046 799 l 1xd8
 1080 729 1099 647 1099 559 c 2
EndSplineSet
EndChar

StartChar: tau
Encoding: 964 964 500
Width: 1229
VWidth: 2334
Flags: W
HStem: -25 21G<272 612> 814 210<273.689 511 721 913.626>
VStem: 511 210<214.451 814>
LayerCount: 2
Fore
SplineSet
433 1024 m 2
 789 1024 l 2
 867 1024 1005 1118 1099 1198 c 1
 1099 934 l 1
 999 867 887 814 789 814 c 2
 721 814 l 1
 721 369 l 2
 721 235 655 90 569 -25 c 1
 272 -25 l 1
 374 35 511 232 511 369 c 2
 511 814 l 1
 433 814 l 2
 352 814 223 753 130 692 c 1
 130 934 l 1
 229 985 339 1024 433 1024 c 2
EndSplineSet
EndChar

StartChar: upsilon
Encoding: 965 965 501
Width: 1229
VWidth: 1947
Flags: W
HStem: -25 210<457.569 762.984> 840 210<547 805.492> 1004 20G<130 340>
VStem: 130 210<305.22 1024> 889 210<316.983 747.516>
LayerCount: 2
Fore
SplineSet
665 1050 m 2xd8
 966 1050 1099 824 1099 559 c 2
 1099 478 l 2
 1099 201 902 -25 630 -25 c 2
 602 -25 l 2
 262 -25 130 241 130 513 c 2
 130 1024 l 1
 340 1024 l 1xb8
 340 513 l 2
 340 364 385 185 602 185 c 2
 630 185 l 2
 785 185 889 317 889 478 c 2
 889 559 l 2
 889 804 759 840 665 840 c 2
 547 840 l 1
 547 1050 l 1
 665 1050 l 2xd8
EndSplineSet
EndChar

StartChar: phi
Encoding: 966 966 502
Width: 1229
VWidth: 1947
Flags: W
HStem: -385 21G<511 721> -21 213<425.635 511 721 792.918> 839 210<732.641 833.195>
VStem: 130 210<289.182 943> 511 210<-385 -14.8561 194 830.086> 889 210<302.76 780.793>
LayerCount: 2
Fore
SplineSet
511 719 m 2
 511 987 665 1049 768 1049 c 2
 791 1049 l 2
 976 1049 1099 838 1099 553 c 2
 1099 505 l 2
 1098 260 992 14 721 -21 c 1
 721 -385 l 1
 511 -385 l 1
 511 -21 l 1
 229 13 130 257 130 501 c 2
 130 943 l 1
 340 943 l 1
 340 501 l 2
 340 284 424 213 511 192 c 1
 511 719 l 2
768 839 m 2
 752 839 721 814 721 719 c 2
 721 194 l 1
 860 232 888 387 889 505 c 2
 889 553 l 2
 889 720 831 839 791 839 c 2
 768 839 l 2
EndSplineSet
EndChar

StartChar: chi
Encoding: 967 967 503
Width: 1229
VWidth: 2062
Flags: W
HStem: -385 21G<84 339.773 779 1214> 1004 20G<43 368.645 901.238 1156>
LayerCount: 2
Fore
SplineSet
84 -385 m 1
 497 316 l 1
 424 523 l 2
 373 666 287 791 238 837 c 2
 43 1024 l 1
 348 1024 l 1
 380 993 l 2
 480 899 575 725 622 593 c 2
 636 553 l 1
 913 1024 l 1
 1156 1024 l 1
 728 294 l 1
 757 213 l 2
 826 20 918 -196 976 -235 c 2
 1176 -370 l 2
 1178 -372 1192 -376 1214 -385 c 1
 831 -385 l 1
 727 -287 644 -110 587 55 c 1
 328 -385 l 1
 84 -385 l 1
EndSplineSet
EndChar

StartChar: psi
Encoding: 968 968 504
Width: 1229
VWidth: 1947
Flags: W
HStem: -385 21G<511 721> -25 210<427.913 511 721 794.481> 1027 20G<511 721>
VStem: 130 210<306.41 943> 511 210<-385 -25 185 1047> 889 210<304.654 943>
LayerCount: 2
Fore
SplineSet
735 185 m 2
 793 185 889 323 889 513 c 2
 889 943 l 1
 1099 943 l 1
 1099 513 l 2
 1099 189 917 -25 735 -25 c 2
 721 -25 l 1
 721 -385 l 1
 511 -385 l 1
 511 -25 l 1
 495 -25 l 2
 190 -25 130 375 130 513 c 2
 130 943 l 1
 340 943 l 1
 340 513 l 2
 340 367 417 185 495 185 c 2
 511 185 l 1
 511 1047 l 1
 721 1047 l 1
 721 185 l 1
 735 185 l 2
EndSplineSet
EndChar

StartChar: omega
Encoding: 969 969 505
Width: 1229
VWidth: 2334
Flags: W
HStem: -25 210<364.855 501.24 730.334 869.203> 1004 20G<221 488 730 1004>
VStem: 130 210<197.918 873.167> 511 210<189.675 717> 889 210<196.811 877.803>
LayerCount: 2
Fore
SplineSet
409 -25 m 2
 297 -25 130 62 130 349 c 2
 130 719 l 2
 130 828 182 951 221 1007 c 2
 232 1024 l 1
 488 1024 l 1
 389 883 l 2
 371 857 340 768 340 719 c 2
 340 349 l 2
 340 248 376 185 409 185 c 2
 430 185 l 2
 471 185 511 192 511 292 c 2
 511 717 l 1
 721 717 l 1
 721 292 l 2
 721 230 738 185 792 185 c 2
 817 185 l 2
 854 185 889 208 889 350 c 2
 889 719 l 2
 889 790 862 857 844 880 c 2
 730 1024 l 1
 998 1024 l 1
 1004 1016 l 2
 1078 922 1099 786 1099 719 c 2
 1099 350 l 2
 1099 0 861 -25 817 -25 c 2
 792 -25 l 2
 723 -25 664 -3 618 36 c 1
 570 -3 507 -25 430 -25 c 2
 409 -25 l 2
EndSplineSet
EndChar

StartChar: dieresiscmb
Encoding: 776 776 508
Width: 1229
VWidth: 1947
Flags: W
HStem: 1250 228<285.312 456.411 763.311 934.072>
VStem: 260 223<1276.07 1454.49> 739 220<1275.15 1455.47>
LayerCount: 2
Fore
SplineSet
483 1367 m 0
 483 1306 432 1250 372 1250 c 0
 312 1250 260 1302 260 1367 c 0
 260 1434 315 1478 371 1478 c 0
 435 1478 483 1426 483 1367 c 0
959 1367 m 0
 959 1299 905 1250 849 1250 c 0
 791 1250 739 1303 739 1367 c 0
 739 1432 791 1478 849 1478 c 0
 903 1478 959 1434 959 1367 c 0
EndSplineSet
EndChar

StartChar: Djecyrillic
Encoding: 1026 1026 512
Width: 1229
VWidth: 2334
Flags: W
HStem: 0 210<713 865.991> 772 210<683.341 861.949> 1190 210<130 359 569 1099>
VStem: 359 210<0 626.968 907 1190> 888 210<231.755 750.247>
LayerCount: 2
Fore
SplineSet
752 772 m 2
 710 772 569 651 569 424 c 2
 569 -0 l 1
 359 -0 l 1
 359 1190 l 1
 130 1190 l 1
 130 1400 l 1
 1099 1400 l 1
 1099 1190 l 1
 569 1190 l 1
 569 907 l 1
 642 969 743 981 752 982 c 2
 777 982 l 2
 946 982 1098 853 1098 640 c 2
 1098 395 l 2
 1098 21 873 0 812 0 c 2
 713 0 l 1
 713 210 l 1
 812 210 l 2
 858 210 888 270 888 395 c 2
 888 640 l 2
 888 684 873 772 777 772 c 2
 752 772 l 2
EndSplineSet
EndChar

StartChar: Ljecyrillic
Encoding: 1033 1033 513
Width: 1229
VWidth: 1947
Flags: W
HStem: 0 210<720 837.178> 673 210<720 849.42> 1380 20G<402 720>
VStem: 510 210<210 673 883 1190> 889 210<261.86 628.083>
LayerCount: 2
Fore
SplineSet
720 673 m 1
 720 210 l 1
 732 210 l 2
 816 210 889 251 889 424 c 2
 889 497 l 2
 889 638 815 673 732 673 c 2
 720 673 l 1
225 1085 m 2
 240 1185 315 1400 489 1400 c 2
 720 1400 l 1
 720 883 l 1
 732 883 l 2
 957 883 1099 729 1099 497 c 2
 1099 424 l 2
 1099 149 948 0 732 0 c 2
 510 -0 l 1
 510 1190 l 1
 489 1190 l 2
 478 1190 447 1153 433 1057 c 2
 280 -0 l 1
 209 0 139 0 68 0 c 1
 225 1085 l 2
EndSplineSet
EndChar

StartChar: Njecyrillic
Encoding: 1034 1034 514
Width: 1229
VWidth: 1947
Flags: W
HStem: 0 210<720 835.303> 673 210<340 510 720 851.335> 1380 20G<130 340 510 720>
VStem: 130 210<0 673 883 1400> 510 210<210 673 883 1400> 889 210<262.005 633.032>
LayerCount: 2
Fore
SplineSet
741 883 m 2
 786 883 1099 867 1099 497 c 2
 1099 424 l 2
 1099 174 955 0 740 0 c 2
 510 0 l 1
 510 673 l 1
 340 673 l 1
 340 -0 l 1
 130 0 l 1
 130 1400 l 1
 340 1400 l 1
 340 883 l 1
 510 883 l 1
 510 1400 l 1
 720 1400 l 1
 720 883 l 1
 741 883 l 2
889 497 m 2
 889 660 801 673 741 673 c 2
 720 673 l 1
 720 210 l 1
 740 210 l 2
 880 210 889 377 889 424 c 2
 889 497 l 2
EndSplineSet
EndChar

StartChar: Tshecyrillic
Encoding: 1035 1035 515
Width: 1229
VWidth: 2334
Flags: W
HStem: -0 21G<336 546 889 1099> 839 210<650.981 863.077> 1190 210<130 336 546 1099>
VStem: 336 210<0 711.168 978 1190> 889 210<0 810.398>
LayerCount: 2
Fore
SplineSet
738 839 m 2
 678 839 546 737 546 499 c 2
 546 -0 l 1
 336 -0 l 1
 336 1190 l 1
 130 1190 l 1
 130 1400 l 1
 1099 1400 l 1
 1099 1190 l 1
 546 1190 l 1
 546 978 l 1
 636 1046 696 1049 738 1049 c 2
 763 1049 l 2
 949 1049 1099 919 1099 724 c 2
 1099 0 l 1
 889 -0 l 1
 889 724 l 2
 889 749 881 839 763 839 c 2
 738 839 l 2
EndSplineSet
EndChar

StartChar: Dzhecyrillic
Encoding: 1039 1039 516
Width: 1229
VWidth: 2334
Flags: W
HStem: -385 21G<511 721> 0 210<340 511 721 889> 1380 20G<130 340 889 1099>
VStem: 130 210<210 1400> 511 210<-385 0> 889 210<210 1400>
LayerCount: 2
Fore
SplineSet
340 210 m 1
 889 210 l 1
 889 1400 l 1
 1099 1400 l 1
 1099 0 l 1
 721 0 l 1
 721 -385 l 1
 511 -385 l 1
 511 0 l 1
 130 -0 l 1
 130 1400 l 1
 340 1400 l 1
 340 210 l 1
EndSplineSet
EndChar

StartChar: djecyrillic
Encoding: 1106 1106 517
Width: 1229
VWidth: 2334
Flags: W
HStem: -399 210<511.658 809.34> -0 21G<218 428> 727 210<549.966 840.391> 1064 210<130 218 428 811> 1404 20G<218 428>
VStem: 218 210<0 579.511 856 1064 1274 1424> 889 210<-100.725 678.012>
LayerCount: 2
Fore
SplineSet
635 -189 m 2
 704 -189 l 2
 820 -189 889 -58 889 53 c 2
 889 513 l 2
 889 674 836 727 696 727 c 2
 652 727 l 2
 517 727 428 514 428 430 c 2
 428 -0 l 1
 218 -0 l 1
 218 1064 l 1
 130 1064 l 1
 130 1274 l 1
 218 1274 l 1
 218 1424 l 1
 428 1424 l 1
 428 1274 l 1
 811 1274 l 1
 811 1064 l 1
 428 1064 l 1
 428 856 l 1
 490 905 565 937 652 937 c 2
 696 937 l 2
 889 937 1099 852 1099 513 c 2
 1099 53 l 2
 1099 -173 942 -399 704 -399 c 2
 635 -399 l 2
 548 -399 445 -375 368 -305 c 1
 510 -151 l 1
 545 -183 604 -189 635 -189 c 2
EndSplineSet
EndChar

StartChar: dzhecyrillic
Encoding: 1119 1119 519
Width: 1229
VWidth: 2334
Flags: W
HStem: -385 21G<511 721> 0 211<340 511 721 889> 1004 20G<130 340 889 1099>
VStem: 130 210<211 1024> 511 210<-385 0> 889 210<211 1024>
LayerCount: 2
Fore
SplineSet
340 211 m 1
 889 211 l 1
 889 1024 l 1
 1099 1024 l 1
 1099 0 l 1
 721 0 l 1
 721 -385 l 1
 511 -385 l 1
 511 0 l 1
 130 0 l 1
 130 1024 l 1
 340 1024 l 1
 340 211 l 1
EndSplineSet
EndChar

StartChar: ljecyrillic
Encoding: 1113 1113 520
Width: 1229
VWidth: 1947
Flags: W
HStem: 0 210<720 866.155> 453 210<720 868.432> 813 211<417.72 510>
VStem: 510 210<210 453 663 813> 889 210<233.941 426.9>
LayerCount: 2
Fore
SplineSet
889 368 m 2
 889 407 826 453 759 453 c 2
 720 453 l 1
 720 210 l 1
 759 210 l 2
 862 210 889 278 889 324 c 2
 889 368 l 2
156 619 m 2
 198 950 360 1024 496 1024 c 2
 720 1024 l 1
 720 663 l 1
 759 663 l 2
 828 663 1099 638 1099 368 c 2
 1099 324 l 2
 1099 229 1045 0 759 0 c 2
 510 0 l 1
 510 813 l 1
 496 813 l 2
 391 813 374 677 364 597 c 2
 288 -0 l 1
 217 0 148 0 77 0 c 1
 156 619 l 2
EndSplineSet
EndChar

StartChar: njecyrillic
Encoding: 1114 1114 521
Width: 1229
VWidth: 1947
Flags: W
HStem: 0 210<721 860.987> 453 210<340 511 721 857.205> 1004 20G<130 340 511 721>
VStem: 130 210<0 453 663 1024> 511 210<210 453 663 1024> 889 210<236.762 417.578>
LayerCount: 2
Fore
SplineSet
889 365 m 2
 889 393 830 453 750 453 c 2
 721 453 l 1
 721 210 l 1
 750 210 l 2
 866 210 889 284 889 320 c 2
 889 365 l 2
340 -0 m 1
 130 0 l 1
 130 1024 l 1
 340 1024 l 1
 340 663 l 1
 511 663 l 1
 511 1024 l 1
 721 1024 l 1
 721 663 l 1
 750 663 l 2
 858 663 1099 603 1099 365 c 2
 1099 320 l 2
 1099 226 1046 0 750 0 c 2
 511 0 l 1
 511 453 l 1
 340 453 l 1
 340 -0 l 1
EndSplineSet
EndChar

StartChar: apostrophereverse
Encoding: 8219 8219 523
Width: 1229
VWidth: 1708
Flags: W
HStem: 933 74<713.994 764.875>
VStem: 420 239<1112.02 1376>
LayerCount: 2
Fore
SplineSet
696 1194 m 0
 676 1188 659 1147 659 1126 c 3
 659 1070 732 1025 781 1007 c 1
 761 933 l 1
 499 961 420 1127 420 1323 c 3
 420 1429 501 1519 615 1519 c 3
 732 1519 809 1425 809 1323 c 3
 809 1263 741 1207 696 1194 c 0
EndSplineSet
EndChar

StartChar: arrowleft
Encoding: 8592 8592 526
Width: 1229
VWidth: 1708
Flags: W
HStem: 520 160<430 1026> 1027 20G<538.072 578.091>
LayerCount: 2
Fore
SplineSet
1026 680 m 1
 1026 520 l 1
 430 520 l 1
 673 263 l 1
 557 153 l 1
 204 526 l 1
 204 674 l 1
 557 1047 l 1
 673 937 l 1
 430 680 l 1
 1026 680 l 1
EndSplineSet
Validated: 3073
EndChar

StartChar: arrowright
Encoding: 8594 8594 527
Width: 1229
VWidth: 1708
Flags: W
HStem: 520 160<204 800> 1027 20G<651.909 691.928>
LayerCount: 2
Fore
SplineSet
204 520 m 1
 204 680 l 1
 800 680 l 1
 557 937 l 1
 673 1047 l 1
 1026 674 l 1
 1026 526 l 1
 673 153 l 1
 557 263 l 1
 800 520 l 1
 204 520 l 1
EndSplineSet
Validated: 3073
EndChar

StartChar: lthorizform
Encoding: 9472 9472 528
Width: 1229
Flags: W
HStem: 443 160<0 1229>
LayerCount: 2
Fore
SplineSet
0 443 m 1
 -0 603 l 1
 1229 603 l 1
 1229 443 l 1
 0 443 l 1
EndSplineSet
Validated: 3073
EndChar

StartChar: ltvertform
Encoding: 9474 9474 529
Width: 1229
Flags: W
VStem: 535 160<-615 1775>
LayerCount: 2
Fore
SplineSet
695 -615 m 1
 535 -615 l 1
 535 1775 l 1
 695 1775 l 1
 695 -615 l 1
EndSplineSet
Validated: 3073
EndChar

StartChar: rightanglenw
Encoding: 9484 9484 530
Width: 1229
Flags: W
HStem: 443 160<695 1229>
VStem: 535 160<-615 443>
LayerCount: 2
Fore
SplineSet
535 -615 m 1
 535 603 l 1
 1229 603 l 1
 1229 443 l 1
 695 443 l 1
 695 -615 l 1
 535 -615 l 1
EndSplineSet
Validated: 3073
EndChar

StartChar: rightanglene
Encoding: 9488 9488 531
Width: 1229
Flags: W
HStem: 443 160<0 535>
VStem: 535 160<-615 443>
LayerCount: 2
Fore
SplineSet
535 443 m 1
 0 443 l 1
 -0 603 l 1
 695 603 l 1
 695 -615 l 1
 535 -615 l 1
 535 443 l 1
EndSplineSet
Validated: 3073
EndChar

StartChar: rightanglesw
Encoding: 9492 9492 532
Width: 1229
Flags: W
HStem: 443 160<695 1229>
VStem: 535 160<603 1775>
LayerCount: 2
Fore
SplineSet
695 603 m 1
 1229 603 l 1
 1229 443 l 1
 535 443 l 1
 535 1775 l 1
 695 1775 l 1
 695 603 l 1
EndSplineSet
Validated: 3073
EndChar

StartChar: rightanglese
Encoding: 9496 9496 533
Width: 1229
Flags: W
HStem: 443 160<0 535>
VStem: 535 160<603 1775>
LayerCount: 2
Fore
SplineSet
695 1775 m 1
 695 443 l 1
 0 443 l 1
 -0 603 l 1
 535 603 l 1
 535 1775 l 1
 695 1775 l 1
EndSplineSet
Validated: 3073
EndChar

StartChar: ltvertrightform
Encoding: 9500 9500 534
Width: 1229
Flags: W
HStem: 443 160<695 1229>
VStem: 535 160<-615 443 603 1775>
LayerCount: 2
Fore
SplineSet
695 -615 m 1
 535 -615 l 1
 535 1775 l 1
 695 1775 l 1
 695 603 l 1
 1229 603 l 1
 1229 443 l 1
 695 443 l 1
 695 -615 l 1
EndSplineSet
Validated: 3073
EndChar

StartChar: ltvertleftform
Encoding: 9508 9508 535
Width: 1229
Flags: W
HStem: 443 160<0 535>
VStem: 535 160<-615 443 603 1775>
LayerCount: 2
Fore
SplineSet
0 443 m 1
 -0 603 l 1
 535 603 l 1
 535 1775 l 1
 695 1775 l 1
 695 -615 l 1
 535 -615 l 1
 535 443 l 1
 0 443 l 1
EndSplineSet
Validated: 3073
EndChar

StartChar: ltdnhorizform
Encoding: 9516 9516 536
Width: 1229
Flags: W
HStem: 443 160<0 535 695 1229>
VStem: 535 160<-615 443>
LayerCount: 2
Fore
SplineSet
0 443 m 1
 -0 603 l 1
 1229 603 l 1
 1229 443 l 1
 695 443 l 1
 695 -615 l 1
 535 -615 l 1
 535 443 l 1
 0 443 l 1
EndSplineSet
Validated: 3073
EndChar

StartChar: ltuphorizform
Encoding: 9524 9524 537
Width: 1229
Flags: W
HStem: 443 160<0 535 695 1229>
VStem: 535 160<603 1775>
LayerCount: 2
Fore
SplineSet
0 443 m 1
 -0 603 l 1
 535 603 l 1
 535 1775 l 1
 695 1775 l 1
 695 603 l 1
 1229 603 l 1
 1229 443 l 1
 0 443 l 1
EndSplineSet
Validated: 3073
EndChar

StartChar: ltverthorizform
Encoding: 9532 9532 538
Width: 1229
Flags: W
HStem: 443 160<0 535 695 1229>
VStem: 535 160<-615 443 603 1775>
LayerCount: 2
Fore
SplineSet
0 443 m 1
 -0 603 l 1
 535 603 l 1
 535 1775 l 1
 695 1775 l 1
 695 603 l 1
 1229 603 l 1
 1229 443 l 1
 695 443 l 1
 695 -615 l 1
 535 -615 l 1
 535 443 l 1
 0 443 l 1
EndSplineSet
Validated: 3073
EndChar

StartChar: horizdblbar
Encoding: 9552 9552 539
Width: 1229
Flags: W
HStem: 283 160<0 1229> 635 160<0 1229>
LayerCount: 2
Fore
SplineSet
0 635 m 1
 -0 795 l 1
 1229 795 l 1
 1229 635 l 1
 0 635 l 1
0 283 m 1
 -0 443 l 1
 1229 443 l 1
 1229 283 l 1
 0 283 l 1
EndSplineSet
Validated: 3073
EndChar

StartChar: vertdblbar
Encoding: 9553 9553 540
Width: 1229
Flags: W
VStem: 375 160<-615 1775> 695 160<-615 1775>
LayerCount: 2
Fore
SplineSet
855 -615 m 1
 695 -615 l 1
 695 1775 l 1
 855 1775 l 1
 855 -615 l 1
535 -615 m 1
 375 -615 l 1
 375 1775 l 1
 535 1775 l 1
 535 -615 l 1
EndSplineSet
Validated: 3073
EndChar

StartChar: dnrtdblform
Encoding: 9554 9554 541
Width: 1229
Flags: W
HStem: 283 160<695 1229> 635 160<695 1229>
VStem: 535 160<-615 283 443 635>
LayerCount: 2
Fore
SplineSet
695 283 m 1
 695 -615 l 1
 535 -615 l 1
 535 795 l 1
 1229 795 l 1
 1229 635 l 1
 695 635 l 1
 695 443 l 1
 1229 443 l 1
 1229 283 l 1
 695 283 l 1
EndSplineSet
Validated: 3073
EndChar

StartChar: dndblrtform
Encoding: 9555 9555 542
Width: 1229
Flags: W
HStem: 443 160<535 695 855 1229>
VStem: 375 160<-615 443> 695 160<-615 443>
LayerCount: 2
Fore
SplineSet
855 -615 m 1
 695 -615 l 1
 695 443 l 1
 535 443 l 1
 535 -615 l 1
 375 -615 l 1
 375 603 l 1
 1229 603 l 1
 1229 443 l 1
 855 443 l 1
 855 -615 l 1
EndSplineSet
Validated: 3073
EndChar

StartChar: dbldnrtform
Encoding: 9556 9556 543
Width: 1229
Flags: W
HStem: 283 160<855 1229> 635 160<535 1229>
VStem: 375 160<-615 635> 695 160<-615 283>
LayerCount: 2
Fore
SplineSet
535 635 m 1
 535 -615 l 1
 375 -615 l 1
 375 795 l 1
 1229 795 l 1
 1229 635 l 1
 535 635 l 1
855 283 m 1
 855 -615 l 1
 695 -615 l 1
 695 443 l 1
 1229 443 l 1
 1229 283 l 1
 855 283 l 1
EndSplineSet
Validated: 3073
EndChar

StartChar: dnleftdblform
Encoding: 9557 9557 544
Width: 1229
Flags: W
HStem: 283 160<0 535> 635 160<0 535>
VStem: 535 160<-615 283 443 635>
LayerCount: 2
Fore
SplineSet
0 795 m 1
 695 795 l 1
 695 -615 l 1
 535 -615 l 1
 535 283 l 1
 0 283 l 1
 -0 443 l 1
 535 443 l 1
 535 635 l 1
 -0 635 l 1
 0 795 l 1
EndSplineSet
Validated: 3073
EndChar

StartChar: dndblleftform
Encoding: 9558 9558 545
Width: 1229
Flags: W
HStem: 443 160<0 375 535 695>
VStem: 375 160<-615 443> 695 160<-615 443>
LayerCount: 2
Fore
SplineSet
535 -615 m 1
 375 -615 l 1
 375 443 l 1
 0 443 l 1
 -0 603 l 1
 855 603 l 1
 855 -615 l 1
 695 -615 l 1
 695 443 l 1
 535 443 l 1
 535 -615 l 1
EndSplineSet
Validated: 3073
EndChar

StartChar: dbldnleftform
Encoding: 9559 9559 546
Width: 1229
Flags: W
HStem: 283 160<0 375> 635 160<0 695>
VStem: 375 160<-615 283> 695 160<-615 635>
LayerCount: 2
Fore
SplineSet
0 795 m 1
 855 795 l 1
 855 -615 l 1
 695 -615 l 1
 695 635 l 1
 -0 635 l 1
 0 795 l 1
0 443 m 1
 535 443 l 1
 535 -615 l 1
 375 -615 l 1
 375 283 l 1
 -0 283 l 1
 0 443 l 1
EndSplineSet
Validated: 3073
EndChar

StartChar: uprtdblform
Encoding: 9560 9560 547
Width: 1229
Flags: W
HStem: 283 160<695 1229> 603 160<695 1229>
VStem: 535 160<443 603 763 1775>
LayerCount: 2
Fore
SplineSet
1229 283 m 1
 535 283 l 1
 535 1775 l 1
 695 1775 l 1
 695 763 l 1
 1229 763 l 1
 1229 603 l 1
 695 603 l 1
 695 443 l 1
 1229 443 l 1
 1229 283 l 1
EndSplineSet
Validated: 3073
EndChar

StartChar: updblrtform
Encoding: 9561 9561 548
Width: 1229
Flags: W
HStem: 443 160<535 695 855 1229>
VStem: 375 160<603 1775> 695 160<603 1775>
LayerCount: 2
Fore
SplineSet
855 603 m 1
 1229 603 l 1
 1229 443 l 1
 375 443 l 1
 375 1775 l 1
 535 1775 l 1
 535 603 l 1
 695 603 l 1
 695 1775 l 1
 855 1775 l 1
 855 603 l 1
EndSplineSet
Validated: 3073
EndChar

StartChar: dbluprtform
Encoding: 9562 9562 549
Width: 1229
Flags: W
HStem: 283 160<535 1229> 635 160<855 1229>
VStem: 375 160<443 1775> 695 160<795 1775>
LayerCount: 2
Fore
SplineSet
1229 635 m 1
 695 635 l 1
 695 1775 l 1
 855 1775 l 1
 855 795 l 1
 1229 795 l 1
 1229 635 l 1
1229 283 m 1
 375 283 l 1
 375 1775 l 1
 535 1775 l 1
 535 443 l 1
 1229 443 l 1
 1229 283 l 1
EndSplineSet
Validated: 3073
EndChar

StartChar: upleftdblform
Encoding: 9563 9563 550
Width: 1229
Flags: W
HStem: 283 160<0 535> 603 160<0 535>
VStem: 535 160<443 603 763 1775>
LayerCount: 2
Fore
SplineSet
0 603 m 1
 -0 763 l 1
 535 763 l 1
 535 1775 l 1
 695 1775 l 1
 695 283 l 1
 -0 283 l 1
 0 443 l 1
 535 443 l 1
 535 603 l 1
 0 603 l 1
EndSplineSet
Validated: 3073
EndChar

StartChar: updblleftform
Encoding: 9564 9564 551
Width: 1229
Flags: W
HStem: 443 160<0 375 535 695>
VStem: 375 160<603 1775> 695 160<603 1775>
LayerCount: 2
Fore
SplineSet
855 1775 m 1
 855 443 l 1
 0 443 l 1
 -0 603 l 1
 375 603 l 1
 375 1775 l 1
 535 1775 l 1
 535 603 l 1
 695 603 l 1
 695 1775 l 1
 855 1775 l 1
EndSplineSet
Validated: 3073
EndChar

StartChar: dblupleftform
Encoding: 9565 9565 552
Width: 1229
Flags: W
HStem: 283 160<0 695> 635 160<0 375>
VStem: 375 160<795 1775> 695 160<443 1775>
LayerCount: 2
Fore
SplineSet
375 795 m 1
 375 1775 l 1
 535 1775 l 1
 535 635 l 1
 -0 635 l 1
 0 795 l 1
 375 795 l 1
695 443 m 1
 695 1775 l 1
 855 1775 l 1
 855 283 l 1
 -0 283 l 1
 0 443 l 1
 695 443 l 1
EndSplineSet
Validated: 3073
EndChar

StartChar: vertrtdblform
Encoding: 9566 9566 553
Width: 1229
Flags: W
HStem: 283 160<695 1229> 603 160<695 1229>
VStem: 535 160<-615 283 443 603 763 1775>
LayerCount: 2
Fore
SplineSet
695 -615 m 1
 535 -615 l 1
 535 1775 l 1
 695 1775 l 1
 695 763 l 1
 1229 763 l 1
 1229 603 l 1
 695 603 l 1
 695 443 l 1
 1229 443 l 1
 1229 283 l 1
 695 283 l 1
 695 -615 l 1
EndSplineSet
Validated: 3073
EndChar

StartChar: vertdblrtform
Encoding: 9567 9567 554
Width: 1229
Flags: W
HStem: 443 160<855 1229>
VStem: 375 160<-615 1775> 695 160<-615 443 603 1775>
LayerCount: 2
Fore
SplineSet
855 -615 m 1
 695 -615 l 1
 695 1775 l 1
 855 1775 l 1
 855 603 l 1
 1229 603 l 1
 1229 443 l 1
 855 443 l 1
 855 -615 l 1
535 -615 m 1
 375 -615 l 1
 375 1775 l 1
 535 1775 l 1
 535 -615 l 1
EndSplineSet
Validated: 3073
EndChar

StartChar: dblvertrtform
Encoding: 9568 9568 555
Width: 1229
Flags: W
HStem: 283 160<855 1229> 635 160<855 1229>
VStem: 375 160<-615 1775> 695 160<-615 283 795 1775>
LayerCount: 2
Fore
SplineSet
535 -615 m 1
 375 -615 l 1
 375 1775 l 1
 535 1775 l 1
 535 -615 l 1
1229 635 m 1
 695 635 l 1
 695 1775 l 1
 855 1775 l 1
 855 795 l 1
 1229 795 l 1
 1229 635 l 1
855 283 m 1
 855 -615 l 1
 695 -615 l 1
 695 443 l 1
 1229 443 l 1
 1229 283 l 1
 855 283 l 1
EndSplineSet
Validated: 3073
EndChar

StartChar: vertleftdblform
Encoding: 9569 9569 556
Width: 1229
Flags: W
HStem: 283 160<0 535> 603 160<0 535>
VStem: 535 160<-615 283 443 603 763 1775>
LayerCount: 2
Fore
SplineSet
695 -615 m 1
 535 -615 l 1
 535 283 l 1
 0 283 l 1
 -0 443 l 1
 535 443 l 1
 535 603 l 1
 0 603 l 1
 -0 763 l 1
 535 763 l 1
 535 1775 l 1
 695 1775 l 1
 695 -615 l 1
EndSplineSet
Validated: 3073
EndChar

StartChar: vertdblleftform
Encoding: 9570 9570 557
Width: 1229
Flags: W
HStem: 443 160<0 375>
VStem: 375 160<-615 443 603 1775> 695 160<-615 1775>
LayerCount: 2
Fore
SplineSet
0 443 m 1
 -0 603 l 1
 375 603 l 1
 375 1775 l 1
 535 1775 l 1
 535 -615 l 1
 375 -615 l 1
 375 443 l 1
 0 443 l 1
855 -615 m 1
 695 -615 l 1
 695 1775 l 1
 855 1775 l 1
 855 -615 l 1
EndSplineSet
Validated: 3073
EndChar

StartChar: dblvertleftform
Encoding: 9571 9571 558
Width: 1229
Flags: W
HStem: 283 160<0 375> 635 160<0 375>
VStem: 375 160<-615 283 795 1775> 695 160<-615 1775>
LayerCount: 2
Fore
SplineSet
855 -615 m 1
 695 -615 l 1
 695 1775 l 1
 855 1775 l 1
 855 -615 l 1
375 795 m 1
 375 1775 l 1
 535 1775 l 1
 535 635 l 1
 -0 635 l 1
 0 795 l 1
 375 795 l 1
0 443 m 1
 535 443 l 1
 535 -615 l 1
 375 -615 l 1
 375 283 l 1
 -0 283 l 1
 0 443 l 1
EndSplineSet
Validated: 3073
EndChar

StartChar: dnhorizdblform
Encoding: 9572 9572 559
Width: 1229
Flags: W
HStem: 283 160<0 535 695 1229> 635 160<0 1229>
VStem: 535 160<-615 283>
LayerCount: 2
Fore
SplineSet
695 -615 m 1
 535 -615 l 1
 535 283 l 1
 0 283 l 1
 -0 443 l 1
 1229 443 l 1
 1229 283 l 1
 695 283 l 1
 695 -615 l 1
0 635 m 1
 -0 795 l 1
 1229 795 l 1
 1229 635 l 1
 0 635 l 1
EndSplineSet
Validated: 3073
EndChar

StartChar: dndblhorizform
Encoding: 9573 9573 560
Width: 1229
Flags: W
HStem: 443 160<0 375 535 695 855 1229>
VStem: 375 160<-615 443> 695 160<-615 443>
LayerCount: 2
Fore
SplineSet
0 443 m 1
 -0 603 l 1
 1229 603 l 1
 1229 443 l 1
 855 443 l 1
 855 -615 l 1
 695 -615 l 1
 695 443 l 1
 535 443 l 1
 535 -615 l 1
 375 -615 l 1
 375 443 l 1
 0 443 l 1
EndSplineSet
Validated: 3073
EndChar

StartChar: dbldnhorizform
Encoding: 9574 9574 561
Width: 1229
Flags: W
HStem: 283 160<0 375 855 1229> 635 160<0 1229>
VStem: 375 160<-615 283> 695 160<-615 283>
LayerCount: 2
Fore
SplineSet
0 635 m 1
 -0 795 l 1
 1229 795 l 1
 1229 635 l 1
 0 635 l 1
0 443 m 1
 535 443 l 1
 535 -615 l 1
 375 -615 l 1
 375 283 l 1
 -0 283 l 1
 0 443 l 1
855 283 m 1
 855 -615 l 1
 695 -615 l 1
 695 443 l 1
 1229 443 l 1
 1229 283 l 1
 855 283 l 1
EndSplineSet
Validated: 3073
EndChar

StartChar: uphorizdblform
Encoding: 9575 9575 562
Width: 1229
Flags: W
HStem: 283 160<0 1229> 635 160<0 535 695 1229>
VStem: 535 160<795 1775>
LayerCount: 2
Fore
SplineSet
0 635 m 1
 -0 795 l 1
 535 795 l 1
 535 1775 l 1
 695 1775 l 1
 695 795 l 1
 1229 795 l 1
 1229 635 l 1
 0 635 l 1
0 283 m 1
 -0 443 l 1
 1229 443 l 1
 1229 283 l 1
 0 283 l 1
EndSplineSet
Validated: 3073
EndChar

StartChar: updblhorizform
Encoding: 9576 9576 563
Width: 1229
Flags: W
HStem: 443 160<0 375 535 695 855 1229>
VStem: 375 160<603 1775> 695 160<603 1775>
LayerCount: 2
Fore
SplineSet
0 443 m 1
 -0 603 l 1
 375 603 l 1
 375 1775 l 1
 535 1775 l 1
 535 603 l 1
 695 603 l 1
 695 1775 l 1
 855 1775 l 1
 855 603 l 1
 1229 603 l 1
 1229 443 l 1
 0 443 l 1
EndSplineSet
Validated: 3073
EndChar

StartChar: dbluphorizform
Encoding: 9577 9577 564
Width: 1229
Flags: W
HStem: 283 160<0 1229> 635 160<0 375 855 1229>
VStem: 375 160<795 1775> 695 160<795 1775>
LayerCount: 2
Fore
SplineSet
375 795 m 1
 375 1775 l 1
 535 1775 l 1
 535 635 l 1
 -0 635 l 1
 0 795 l 1
 375 795 l 1
1229 635 m 1
 695 635 l 1
 695 1775 l 1
 855 1775 l 1
 855 795 l 1
 1229 795 l 1
 1229 635 l 1
0 283 m 1
 -0 443 l 1
 1229 443 l 1
 1229 283 l 1
 0 283 l 1
EndSplineSet
Validated: 3073
EndChar

StartChar: verthorizdblform
Encoding: 9578 9578 565
Width: 1229
Flags: W
HStem: 283 160<0 535 695 1229> 635 160<0 535 695 1229>
VStem: 535 160<-615 283 795 1775>
LayerCount: 2
Fore
SplineSet
695 -615 m 1
 535 -615 l 1
 535 283 l 1
 0 283 l 1
 -0 443 l 1
 1229 443 l 1
 1229 283 l 1
 695 283 l 1
 695 -615 l 1
0 635 m 1
 -0 795 l 1
 535 795 l 1
 535 1775 l 1
 695 1775 l 1
 695 795 l 1
 1229 795 l 1
 1229 635 l 1
 0 635 l 1
EndSplineSet
Validated: 3073
EndChar

StartChar: vertdblhorizform
Encoding: 9579 9579 566
Width: 1229
Flags: W
HStem: 443 160<0 375 855 1229>
VStem: 375 160<-615 443 603 1775> 695 160<-615 443 603 1775>
LayerCount: 2
Fore
SplineSet
0 443 m 1
 -0 603 l 1
 375 603 l 1
 375 1775 l 1
 535 1775 l 1
 535 -615 l 1
 375 -615 l 1
 375 443 l 1
 0 443 l 1
855 -615 m 1
 695 -615 l 1
 695 1775 l 1
 855 1775 l 1
 855 603 l 1
 1229 603 l 1
 1229 443 l 1
 855 443 l 1
 855 -615 l 1
EndSplineSet
Validated: 3073
EndChar

StartChar: dblverthorizform
Encoding: 9580 9580 567
Width: 1229
Flags: W
HStem: 283 160<0 375 855 1229> 635 160<0 375 855 1229>
VStem: 375 160<-615 283 795 1775> 695 160<-615 283 795 1775>
LayerCount: 2
Fore
SplineSet
375 795 m 1
 375 1775 l 1
 535 1775 l 1
 535 635 l 1
 -0 635 l 1
 0 795 l 1
 375 795 l 1
1229 635 m 1
 695 635 l 1
 695 1775 l 1
 855 1775 l 1
 855 795 l 1
 1229 795 l 1
 1229 635 l 1
0 443 m 1
 535 443 l 1
 535 -615 l 1
 375 -615 l 1
 375 283 l 1
 -0 283 l 1
 0 443 l 1
855 283 m 1
 855 -615 l 1
 695 -615 l 1
 695 443 l 1
 1229 443 l 1
 1229 283 l 1
 855 283 l 1
EndSplineSet
Validated: 3073
EndChar

StartChar: upblock
Encoding: 9600 9600 568
Width: 1229
Flags: W
HStem: 523 1252<0 1229>
VStem: -0 1229<523 1775>
LayerCount: 2
Fore
SplineSet
1229 523 m 1
 -0 523 l 1
 0 1775 l 1
 1229 1775 l 1
 1229 523 l 1
EndSplineSet
Validated: 3073
EndChar

StartChar: dnblock
Encoding: 9604 9604 569
Width: 1229
Flags: W
HStem: -615 1138<0 1229>
VStem: -0 1229<-615 523>
LayerCount: 2
Fore
SplineSet
1229 -615 m 1
 -0 -615 l 1
 -0 523 l 1
 1229 523 l 1
 1229 -615 l 1
EndSplineSet
Validated: 3073
EndChar

StartChar: block
Encoding: 9608 9608 570
Width: 1229
Flags: W
VStem: -0 1229<-615 1775>
LayerCount: 2
Fore
SplineSet
-0 -615 m 1
 0 1775 l 1
 1229 1775 l 1
 1229 -615 l 1
 -0 -615 l 1
EndSplineSet
Validated: 3073
EndChar

StartChar: lfblock
Encoding: 9612 9612 571
Width: 1229
Flags: W
VStem: -0 615<-615 1775>
LayerCount: 2
Fore
SplineSet
-0 -615 m 1
 0 1775 l 1
 615 1775 l 1
 615 -615 l 1
 -0 -615 l 1
EndSplineSet
Validated: 3073
EndChar

StartChar: rtblock
Encoding: 9616 9616 572
Width: 1229
Flags: W
VStem: 615 614<-615 1775>
LayerCount: 2
Fore
SplineSet
615 -615 m 1
 615 1775 l 1
 1229 1775 l 1
 1229 -615 l 1
 615 -615 l 1
EndSplineSet
Validated: 3073
EndChar

StartChar: shadelight
Encoding: 9617 9617 573
Width: 1229
Flags: W
HStem: -514 100<205 308 616 721 1026 1129> -315 100<0 103 410 514 823 924> -115 99<205 308 616 721 1026 1129> 83 100<0 103 410 514 823 924> 283 99<205 308 616 721 1026 1129> 482 99<0 103 410 514 823 924> 681 100<205 308 616 721 1026 1129> 881 99<0 103 410 514 823 924> 1080 99<205 308 616 721 1026 1129> 1278 100<0 103 410 514 823 924> 1477 100<205 308 616 721 1026 1129> 1677 98<0 103 410 514 823 924>
VStem: 0 103<-315 -215 83 183 482 581 881 980 1278 1378 1677 1775> 205 103<-514 -414 -115 -16 283 382 681 781 1080 1179 1477 1577> 410 104<-315 -215 83 183 482 581 881 980 1278 1378 1677 1775> 616 105<-514 -414 -115 -16 283 382 681 781 1080 1179 1477 1577> 823 101<-315 -215 83 183 482 581 881 980 1278 1378 1677 1775> 1026 103<-514 -414 -115 -16 283 382 681 781 1080 1179 1477 1577>
LayerCount: 2
Fore
SplineSet
0 1378 m 1
 103 1378 l 1
 103 1278 l 1
 0 1278 l 1
 0 1378 l 1
410 1378 m 1
 514 1378 l 1
 514 1278 l 1
 410 1278 l 1
 410 1378 l 1
823 1378 m 1
 924 1378 l 1
 924 1278 l 1
 823 1278 l 1
 823 1378 l 1
205 1179 m 1
 308 1179 l 1
 308 1080 l 1
 205 1080 l 1
 205 1179 l 1
616 1179 m 1
 721 1179 l 1
 721 1080 l 1
 616 1080 l 1
 616 1179 l 1
1026 1179 m 1
 1129 1179 l 1
 1129 1080 l 1
 1026 1080 l 1
 1026 1179 l 1
823 980 m 1
 924 980 l 1
 924 881 l 1
 823 881 l 1
 823 980 l 1
410 980 m 1
 514 980 l 1
 514 881 l 1
 410 881 l 1
 410 980 l 1
0 980 m 1
 103 980 l 1
 103 881 l 1
 0 881 l 1
 0 980 l 1
1026 781 m 1
 1129 781 l 1
 1129 681 l 1
 1026 681 l 1
 1026 781 l 1
616 781 m 1
 721 781 l 1
 721 681 l 1
 616 681 l 1
 616 781 l 1
205 781 m 1
 308 781 l 1
 308 681 l 1
 205 681 l 1
 205 781 l 1
0 581 m 1
 103 581 l 1
 103 482 l 1
 0 482 l 1
 0 581 l 1
410 581 m 1
 514 581 l 1
 514 482 l 1
 410 482 l 1
 410 581 l 1
823 581 m 1
 924 581 l 1
 924 482 l 1
 823 482 l 1
 823 581 l 1
1026 382 m 1
 1129 382 l 1
 1129 283 l 1
 1026 283 l 1
 1026 382 l 1
616 382 m 1
 721 382 l 1
 721 283 l 1
 616 283 l 1
 616 382 l 1
205 382 m 1
 308 382 l 1
 308 283 l 1
 205 283 l 1
 205 382 l 1
0 183 m 1
 103 183 l 1
 103 83 l 1
 0 83 l 1
 0 183 l 1
410 183 m 1
 514 183 l 1
 514 83 l 1
 410 83 l 1
 410 183 l 1
823 183 m 1
 924 183 l 1
 924 83 l 1
 823 83 l 1
 823 183 l 1
205 -16 m 1
 308 -16 l 1
 308 -115 l 1
 205 -115 l 1
 205 -16 l 1
616 -16 m 1
 721 -16 l 1
 721 -115 l 1
 616 -115 l 1
 616 -16 l 1
1026 -16 m 1
 1129 -16 l 1
 1129 -115 l 1
 1026 -115 l 1
 1026 -16 l 1
823 -215 m 1
 924 -215 l 1
 924 -315 l 1
 823 -315 l 1
 823 -215 l 1
410 -215 m 1
 514 -215 l 1
 514 -315 l 1
 410 -315 l 1
 410 -215 l 1
0 -215 m 1
 103 -215 l 1
 103 -315 l 1
 0 -315 l 1
 0 -215 l 1
205 -414 m 1
 308 -414 l 1
 308 -514 l 1
 205 -514 l 1
 205 -414 l 1
616 -414 m 1
 721 -414 l 1
 721 -514 l 1
 616 -514 l 1
 616 -414 l 1
1026 -414 m 1
 1129 -414 l 1
 1129 -514 l 1
 1026 -514 l 1
 1026 -414 l 1
205 1577 m 1
 308 1577 l 1
 308 1477 l 1
 205 1477 l 1
 205 1577 l 1
616 1577 m 1
 721 1577 l 1
 721 1477 l 1
 616 1477 l 1
 616 1577 l 1
1026 1577 m 1
 1129 1577 l 1
 1129 1477 l 1
 1026 1477 l 1
 1026 1577 l 1
0 1775 m 1
 103 1775 l 1
 103 1677 l 1
 0 1677 l 1
 0 1775 l 1
410 1775 m 1
 514 1775 l 1
 514 1677 l 1
 410 1677 l 1
 410 1775 l 1
823 1775 m 1
 924 1775 l 1
 924 1677 l 1
 823 1677 l 1
 823 1775 l 1
EndSplineSet
Validated: 3073
EndChar

StartChar: shademedium
Encoding: 9618 9618 574
Width: 1229
Flags: W
HStem: -514 100<0 103 205 308 410 513 616 720 823 923 1026 1129> -315 100<103 205 308 410 513 616 720 823 923 1026 1129 1229> -115 99<0 103 205 308 410 513 616 720 823 923 1026 1129> 83 100<103 205 308 410 513 616 720 823 923 1026 1129 1229> 283 99<0 103 205 308 410 513 616 720 823 923 1026 1129> 482 99<103 205 308 410 513 616 720 823 923 1026 1129 1229> 681 100<0 103 205 308 410 513 616 720 823 923 1026 1129> 881 99<103 205 308 410 513 616 720 823 923 1026 1129 1229> 1080 99<0 103 205 308 410 513 616 720 823 923 1026 1129> 1278 100<103 205 308 410 513 616 720 823 923 1026 1129 1229> 1477 100<0 103 205 308 410 513 616 720 823 923 1026 1129> 1677 98<103 205 308 410 513 616 720 823 923 1026 1129 1229>
VStem: 0 103<-514 -414 -115 -16 283 382 681 781 1080 1179 1477 1577> 103 102<-315 -215 83 183 482 581 881 980 1278 1378 1677 1775> 205 103<-514 -414 -115 -16 283 382 681 781 1080 1179 1477 1577> 308 102<-315 -215 83 183 482 581 881 980 1278 1378 1677 1775> 410 103<-514 -414 -115 -16 283 382 681 781 1080 1179 1477 1577> 513 103<-315 -215 83 183 482 581 881 980 1278 1378 1677 1775> 616 104<-514 -414 -115 -16 283 382 681 781 1080 1179 1477 1577> 720 103<-315 -215 83 183 482 581 881 980 1278 1378 1677 1775> 823 100<-514 -414 -115 -16 283 382 681 781 1080 1179 1477 1577> 923 103<-315 -215 83 183 482 581 881 980 1278 1378 1677 1775> 1026 103<-514 -414 -115 -16 283 382 681 781 1080 1179 1477 1577> 1129 100<-315 -215 83 183 482 581 881 980 1278 1378 1677 1775>
LayerCount: 2
Fore
SplineSet
103 1378 m 1
 205 1378 l 1
 205 1278 l 1
 103 1278 l 1
 103 1378 l 1
308 1378 m 1
 410 1378 l 1
 410 1278 l 1
 308 1278 l 1
 308 1378 l 1
513 1378 m 1
 616 1378 l 1
 616 1278 l 1
 513 1278 l 1
 513 1378 l 1
720 1378 m 1
 823 1378 l 1
 823 1278 l 1
 720 1278 l 1
 720 1378 l 1
923 1378 m 1
 1026 1378 l 1
 1026 1278 l 1
 923 1278 l 1
 923 1378 l 1
1129 1378 m 1
 1229 1378 l 1
 1229 1278 l 1
 1129 1278 l 1
 1129 1378 l 1
0 1179 m 1
 103 1179 l 1
 103 1080 l 1
 0 1080 l 1
 0 1179 l 1
205 1179 m 1
 308 1179 l 1
 308 1080 l 1
 205 1080 l 1
 205 1179 l 1
410 1179 m 1
 513 1179 l 1
 513 1080 l 1
 410 1080 l 1
 410 1179 l 1
616 1179 m 1
 720 1179 l 1
 720 1080 l 1
 616 1080 l 1
 616 1179 l 1
823 1179 m 1
 923 1179 l 1
 923 1080 l 1
 823 1080 l 1
 823 1179 l 1
1026 1179 m 1
 1129 1179 l 1
 1129 1080 l 1
 1026 1080 l 1
 1026 1179 l 1
103 980 m 1
 205 980 l 1
 205 881 l 1
 103 881 l 1
 103 980 l 1
308 980 m 1
 410 980 l 1
 410 881 l 1
 308 881 l 1
 308 980 l 1
513 980 m 1
 616 980 l 1
 616 881 l 1
 513 881 l 1
 513 980 l 1
720 980 m 1
 823 980 l 1
 823 881 l 1
 720 881 l 1
 720 980 l 1
923 980 m 1
 1026 980 l 1
 1026 881 l 1
 923 881 l 1
 923 980 l 1
1129 980 m 1
 1229 980 l 1
 1229 881 l 1
 1129 881 l 1
 1129 980 l 1
0 781 m 1
 103 781 l 1
 103 681 l 1
 0 681 l 1
 0 781 l 1
205 781 m 1
 308 781 l 1
 308 681 l 1
 205 681 l 1
 205 781 l 1
410 781 m 1
 513 781 l 1
 513 681 l 1
 410 681 l 1
 410 781 l 1
616 781 m 1
 720 781 l 1
 720 681 l 1
 616 681 l 1
 616 781 l 1
823 781 m 1
 923 781 l 1
 923 681 l 1
 823 681 l 1
 823 781 l 1
1026 781 m 1
 1129 781 l 1
 1129 681 l 1
 1026 681 l 1
 1026 781 l 1
103 581 m 1
 205 581 l 1
 205 482 l 1
 103 482 l 1
 103 581 l 1
308 581 m 1
 410 581 l 1
 410 482 l 1
 308 482 l 1
 308 581 l 1
513 581 m 1
 616 581 l 1
 616 482 l 1
 513 482 l 1
 513 581 l 1
720 581 m 1
 823 581 l 1
 823 482 l 1
 720 482 l 1
 720 581 l 1
923 581 m 1
 1026 581 l 1
 1026 482 l 1
 923 482 l 1
 923 581 l 1
1129 581 m 1
 1229 581 l 1
 1229 482 l 1
 1129 482 l 1
 1129 581 l 1
0 382 m 1
 103 382 l 1
 103 283 l 1
 0 283 l 1
 0 382 l 1
410 382 m 1
 513 382 l 1
 513 283 l 1
 410 283 l 1
 410 382 l 1
616 382 m 1
 720 382 l 1
 720 283 l 1
 616 283 l 1
 616 382 l 1
823 382 m 1
 923 382 l 1
 923 283 l 1
 823 283 l 1
 823 382 l 1
1026 382 m 1
 1129 382 l 1
 1129 283 l 1
 1026 283 l 1
 1026 382 l 1
205 382 m 1
 308 382 l 1
 308 283 l 1
 205 283 l 1
 205 382 l 1
1129 183 m 1
 1229 183 l 1
 1229 83 l 1
 1129 83 l 1
 1129 183 l 1
923 183 m 1
 1026 183 l 1
 1026 83 l 1
 923 83 l 1
 923 183 l 1
720 183 m 1
 823 183 l 1
 823 83 l 1
 720 83 l 1
 720 183 l 1
513 183 m 1
 616 183 l 1
 616 83 l 1
 513 83 l 1
 513 183 l 1
308 183 m 1
 410 183 l 1
 410 83 l 1
 308 83 l 1
 308 183 l 1
103 183 m 1
 205 183 l 1
 205 83 l 1
 103 83 l 1
 103 183 l 1
0 -16 m 1
 103 -16 l 1
 103 -115 l 1
 0 -115 l 1
 0 -16 l 1
205 -16 m 1
 308 -16 l 1
 308 -115 l 1
 205 -115 l 1
 205 -16 l 1
410 -16 m 1
 513 -16 l 1
 513 -115 l 1
 410 -115 l 1
 410 -16 l 1
616 -16 m 1
 720 -16 l 1
 720 -115 l 1
 616 -115 l 1
 616 -16 l 1
823 -16 m 1
 923 -16 l 1
 923 -115 l 1
 823 -115 l 1
 823 -16 l 1
1026 -16 m 1
 1129 -16 l 1
 1129 -115 l 1
 1026 -115 l 1
 1026 -16 l 1
1129 -215 m 1
 1229 -215 l 1
 1229 -315 l 1
 1129 -315 l 1
 1129 -215 l 1
923 -215 m 1
 1026 -215 l 1
 1026 -315 l 1
 923 -315 l 1
 923 -215 l 1
720 -215 m 1
 823 -215 l 1
 823 -315 l 1
 720 -315 l 1
 720 -215 l 1
513 -215 m 1
 616 -215 l 1
 616 -315 l 1
 513 -315 l 1
 513 -215 l 1
308 -215 m 1
 410 -215 l 1
 410 -315 l 1
 308 -315 l 1
 308 -215 l 1
103 -215 m 1
 205 -215 l 1
 205 -315 l 1
 103 -315 l 1
 103 -215 l 1
0 -414 m 1
 103 -414 l 1
 103 -514 l 1
 0 -514 l 1
 0 -414 l 1
205 -414 m 1
 308 -414 l 1
 308 -514 l 1
 205 -514 l 1
 205 -414 l 1
410 -414 m 1
 513 -414 l 1
 513 -514 l 1
 410 -514 l 1
 410 -414 l 1
616 -414 m 1
 720 -414 l 1
 720 -514 l 1
 616 -514 l 1
 616 -414 l 1
823 -414 m 1
 923 -414 l 1
 923 -514 l 1
 823 -514 l 1
 823 -414 l 1
1026 -414 m 1
 1129 -414 l 1
 1129 -514 l 1
 1026 -514 l 1
 1026 -414 l 1
0 1577 m 1
 103 1577 l 1
 103 1477 l 1
 0 1477 l 1
 0 1577 l 1
205 1577 m 1
 308 1577 l 1
 308 1477 l 1
 205 1477 l 1
 205 1577 l 1
410 1577 m 1
 513 1577 l 1
 513 1477 l 1
 410 1477 l 1
 410 1577 l 1
616 1577 m 1
 720 1577 l 1
 720 1477 l 1
 616 1477 l 1
 616 1577 l 1
823 1577 m 1
 923 1577 l 1
 923 1477 l 1
 823 1477 l 1
 823 1577 l 1
1026 1577 m 1
 1129 1577 l 1
 1129 1477 l 1
 1026 1477 l 1
 1026 1577 l 1
103 1775 m 1
 205 1775 l 1
 205 1677 l 1
 103 1677 l 1
 103 1775 l 1
308 1775 m 1
 410 1775 l 1
 410 1677 l 1
 308 1677 l 1
 308 1775 l 1
513 1775 m 1
 616 1775 l 1
 616 1677 l 1
 513 1677 l 1
 513 1775 l 1
720 1775 m 1
 823 1775 l 1
 823 1677 l 1
 720 1677 l 1
 720 1775 l 1
923 1775 m 1
 1026 1775 l 1
 1026 1677 l 1
 923 1677 l 1
 923 1775 l 1
1129 1775 m 1
 1229 1775 l 1
 1229 1677 l 1
 1129 1677 l 1
 1129 1775 l 1
EndSplineSet
Validated: 3073
EndChar

StartChar: shadedark
Encoding: 9619 9619 575
Width: 1229
Flags: W
HStem: -615 300<0 103 205 308 410 513 616 720 823 923 1026 1129> -615 101<103 205 308 410 513 616 720 823 923 1026 1129 1229> -414 299<103 205 308 410 513 616 720 823 923 1026 1129 1229> -215 299<0 103 205 308 410 513 616 720 823 923 1026 1129> -16 299<103 205 308 410 513 616 720 823 923 1026 1129 1229> 183 299<0 103 205 308 410 513 616 720 823 923 1026 1129> 382 299<103 205 308 410 513 616 720 823 923 1026 1129 1229> 581 299<0 103 205 308 410 513 616 720 823 923 1026 1129> 781 299<103 205 308 410 513 616 720 823 923 1026 1129 1229> 980 299<0 103 205 308 410 513 616 720 823 923 1026 1129> 1179 299<103 205 308 410 513 616 720 823 923 1026 1129 1229> 1378 299<0 103 205 308 410 513 616 720 823 923 1026 1129> 1577 198<103 205 308 410 513 616 720 823 923 1026 1129 1229>
VStem: 0 103<-514 -414 -115 -16 283 382 681 781 1080 1179 1478 1577> 103 102<-315 -215 84 183 482 581 881 980 1279 1378 1677 1775> 205 103<-514 -414 -115 -16 283 382 681 781 1080 1179 1478 1577> 308 102<-315 -215 84 183 482 581 880 980 1279 1378 1677 1775> 410 103<-514 -414 -115 -16 283 382 681 781 1080 1179 1478 1577> 513 103<-315 -215 84 183 482 581 880 980 1279 1378 1677 1775> 616 104<-514 -414 -115 -16 283 382 681 781 1080 1179 1478 1577> 720 103<-315 -215 84 183 482 581 880 980 1279 1378 1677 1775> 823 100<-514 -414 -115 -16 283 382 681 781 1080 1179 1478 1577> 923 103<-315 -215 84 183 482 581 880 980 1279 1378 1677 1775> 1026 103<-514 -414 -115 -16 283 382 681 781 1080 1179 1478 1577> 1129 100<-315 -215 84 183 482 581 880 980 1279 1378 1677 1775>
LayerCount: 2
Fore
SplineSet
1229 1577 m 1x000fff80
 1129 1577 l 1
 1129 1478 l 1
 1229 1478 l 1
 1229 1179 l 1
 1129 1179 l 1
 1129 1080 l 1
 1229 1080 l 1
 1229 781 l 1
 1129 781 l 1
 1129 681 l 1
 1229 681 l 1
 1229 382 l 1
 1129 382 l 1
 1129 283 l 1
 1229 283 l 1
 1229 -16 l 1
 1129 -16 l 1
 1129 -115 l 1
 1229 -115 l 1
 1229 -414 l 1
 1129 -414 l 1
 1129 -514 l 1
 1229 -514 l 1
 1229 -615 l 1x6aafff80
 0 -615 l 1
 0 -315 l 1
 103 -315 l 1
 103 -215 l 1
 0 -215 l 1
 0 83 l 1
 103 83 l 1
 103 183 l 1
 0 183 l 1
 0 482 l 1
 103 482 l 1
 103 581 l 1
 0 581 l 1
 0 881 l 1
 103 881 l 1
 103 980 l 1
 0 980 l 1
 0 1279 l 1
 103 1279 l 1
 103 1378 l 1
 0 1378 l 1
 0 1677 l 1
 103 1677 l 1x9557ff80
 103 1775 l 1
 205 1775 l 1x000fff80
 205 1677 l 1
 308 1677 l 1x0017ff80
 308 1775 l 1
 410 1775 l 1x000fff80
 410 1677 l 1
 513 1677 l 1x0017ff80
 513 1775 l 1
 616 1775 l 1x000fff80
 616 1677 l 1
 720 1677 l 1x0017ff80
 720 1775 l 1
 823 1775 l 1x000fff80
 823 1677 l 1
 923 1677 l 1x0017ff80
 923 1775 l 1
 1026 1775 l 1x000fff80
 1026 1677 l 1
 1129 1677 l 1x0017ff80
 1129 1775 l 1
 1229 1775 l 1
 1229 1577 l 1x000fff80
103 1179 m 1
 103 1080 l 1
 205 1080 l 1
 205 1179 l 1
 103 1179 l 1
308 1179 m 1
 308 1080 l 1
 410 1080 l 1
 410 1179 l 1
 308 1179 l 1
513 1179 m 1
 513 1080 l 1
 616 1080 l 1
 616 1179 l 1
 513 1179 l 1
720 1179 m 1
 720 1080 l 1
 823 1080 l 1
 823 1179 l 1
 720 1179 l 1
923 1179 m 1
 923 1080 l 1
 1026 1080 l 1
 1026 1179 l 1
 923 1179 l 1
1129 980 m 1x0147ff80
 1026 980 l 1
 1026 880 l 1
 1129 880 l 1
 1129 980 l 1x0147ff80
923 980 m 1
 823 980 l 1
 823 880 l 1
 923 880 l 1
 923 980 l 1
720 980 m 1
 616 980 l 1
 616 880 l 1
 720 880 l 1
 720 980 l 1
513 980 m 1
 410 980 l 1
 410 880 l 1
 513 880 l 1
 513 980 l 1
308 980 m 1
 205 980 l 1
 205 880 l 1
 308 880 l 1
 308 980 l 1
103 781 m 1x0287ff80
 103 681 l 1
 205 681 l 1
 205 781 l 1
 103 781 l 1x0287ff80
308 781 m 1
 308 681 l 1
 410 681 l 1
 410 781 l 1
 308 781 l 1
513 781 m 1
 513 681 l 1
 616 681 l 1
 616 781 l 1
 513 781 l 1
720 781 m 1
 720 681 l 1
 823 681 l 1
 823 781 l 1
 720 781 l 1
923 781 m 1
 923 681 l 1
 1026 681 l 1
 1026 781 l 1
 923 781 l 1
308 581 m 1x0507ff80
 205 581 l 1
 205 482 l 1
 308 482 l 1
 308 581 l 1x0507ff80
410 581 m 1
 410 482 l 1
 513 482 l 1
 513 581 l 1
 410 581 l 1
616 581 m 1
 616 482 l 1
 720 482 l 1
 720 581 l 1
 616 581 l 1
823 581 m 1
 823 482 l 1
 923 482 l 1
 923 581 l 1
 823 581 l 1
1026 581 m 1
 1026 482 l 1
 1129 482 l 1
 1129 581 l 1
 1026 581 l 1
103 382 m 1x0a07ff80
 103 283 l 1
 205 283 l 1
 205 382 l 1
 103 382 l 1x0a07ff80
513 382 m 1
 513 283 l 1
 616 283 l 1
 616 382 l 1
 513 382 l 1
410 283 m 1
 410 382 l 1
 308 382 l 1
 308 283 l 1
 410 283 l 1
720 382 m 1
 720 283 l 1
 823 283 l 1
 823 382 l 1
 720 382 l 1
923 382 m 1
 923 283 l 1
 1026 283 l 1
 1026 382 l 1
 923 382 l 1
1129 84 m 1x1407ff80
 1129 183 l 1
 1026 183 l 1
 1026 84 l 1
 1129 84 l 1x1407ff80
923 84 m 1
 923 183 l 1
 823 183 l 1
 823 84 l 1
 923 84 l 1
720 84 m 1
 720 183 l 1
 616 183 l 1
 616 84 l 1
 720 84 l 1
513 84 m 1
 513 183 l 1
 410 183 l 1
 410 84 l 1
 513 84 l 1
308 84 m 1
 308 183 l 1
 205 183 l 1
 205 84 l 1
 308 84 l 1
103 -16 m 1x2807ff80
 103 -115 l 1
 205 -115 l 1
 205 -16 l 1
 103 -16 l 1x2807ff80
308 -16 m 1
 308 -115 l 1
 410 -115 l 1
 410 -16 l 1
 308 -16 l 1
513 -16 m 1
 513 -115 l 1
 616 -115 l 1
 616 -16 l 1
 513 -16 l 1
720 -16 m 1
 720 -115 l 1
 823 -115 l 1
 823 -16 l 1
 720 -16 l 1
923 -16 m 1
 923 -115 l 1
 1026 -115 l 1
 1026 -16 l 1
 923 -16 l 1
1129 -315 m 1x9007ff80
 1129 -215 l 1
 1026 -215 l 1
 1026 -315 l 1
 1129 -315 l 1x9007ff80
923 -315 m 1
 923 -215 l 1
 823 -215 l 1
 823 -315 l 1
 923 -315 l 1
720 -315 m 1
 720 -215 l 1
 616 -215 l 1
 616 -315 l 1
 720 -315 l 1
513 -315 m 1
 513 -215 l 1
 410 -215 l 1
 410 -315 l 1
 513 -315 l 1
308 -315 m 1
 308 -215 l 1
 205 -215 l 1
 205 -315 l 1
 308 -315 l 1
103 -414 m 1x6007ff80
 103 -514 l 1
 205 -514 l 1
 205 -414 l 1
 103 -414 l 1x6007ff80
308 -414 m 1
 308 -514 l 1
 410 -514 l 1
 410 -414 l 1
 308 -414 l 1
513 -414 m 1
 513 -514 l 1
 616 -514 l 1
 616 -414 l 1
 513 -414 l 1
720 -414 m 1
 720 -514 l 1
 823 -514 l 1
 823 -414 l 1
 720 -414 l 1
923 -414 m 1
 923 -514 l 1
 1026 -514 l 1
 1026 -414 l 1
 923 -414 l 1
1129 1378 m 1x0057ff80
 1026 1378 l 1
 1026 1279 l 1
 1129 1279 l 1
 1129 1378 l 1x0057ff80
923 1378 m 1
 823 1378 l 1
 823 1279 l 1
 923 1279 l 1
 923 1378 l 1
720 1378 m 1
 616 1378 l 1
 616 1279 l 1
 720 1279 l 1
 720 1378 l 1
513 1378 m 1
 410 1378 l 1
 410 1279 l 1
 513 1279 l 1
 513 1378 l 1
308 1378 m 1
 205 1378 l 1
 205 1279 l 1
 308 1279 l 1
 308 1378 l 1
1026 1577 m 1x002fff80
 923 1577 l 1
 923 1478 l 1
 1026 1478 l 1
 1026 1577 l 1x002fff80
823 1577 m 1
 720 1577 l 1
 720 1478 l 1
 823 1478 l 1
 823 1577 l 1
616 1577 m 1
 513 1577 l 1
 513 1478 l 1
 616 1478 l 1
 616 1577 l 1
410 1577 m 1
 308 1577 l 1
 308 1478 l 1
 410 1478 l 1
 410 1577 l 1
205 1577 m 1
 103 1577 l 1
 103 1478 l 1
 205 1478 l 1
 205 1577 l 1
EndSplineSet
Validated: 3073
EndChar

StartChar: blacksquare
Encoding: 9632 9632 576
Width: 1229
Flags: W
HStem: 113 1229<0 1229>
VStem: 0 1229<113 1342>
LayerCount: 2
Fore
SplineSet
0 1342 m 1
 1229 1342 l 1
 1229 113 l 1
 0 113 l 1
 0 1342 l 1
EndSplineSet
Validated: 3073
EndChar

StartChar: whitesquare
Encoding: 9633 9633 577
Width: 1229
Flags: W
HStem: 113 299<251 979> 1086 256<251 979>
VStem: 0 251<412 1086> 979 250<412 1086>
LayerCount: 2
Fore
SplineSet
0 1342 m 1
 1229 1342 l 1
 1229 113 l 1
 0 113 l 1
 0 1342 l 1
251 1086 m 1
 251 412 l 1
 979 412 l 1
 979 1086 l 1
 251 1086 l 1
EndSplineSet
Validated: 3073
EndChar

StartChar: blacksmallsquare
Encoding: 9642 9642 578
Width: 1229
Flags: W
HStem: 534 630<300 930>
VStem: 300 630<534 1164>
LayerCount: 2
Fore
SplineSet
930 534 m 1
 300 534 l 1
 300 1164 l 1
 930 1164 l 1
 930 534 l 1
EndSplineSet
Validated: 3073
EndChar

StartChar: whitesmallsquare
Encoding: 9643 9643 579
Width: 1229
Flags: W
HStem: 534 152<457 773> 1012 152<457 773>
VStem: 300 157<686 1012> 773 157<686 1012>
LayerCount: 2
Fore
SplineSet
930 534 m 1
 300 534 l 1
 300 1164 l 1
 930 1164 l 1
 930 534 l 1
773 686 m 1
 773 1012 l 1
 457 1012 l 1
 457 686 l 1
 773 686 l 1
EndSplineSet
Validated: 3073
EndChar

StartChar: blackrectangle
Encoding: 9644 9644 580
Width: 1229
Flags: W
HStem: 528 307<0 1229>
LayerCount: 2
Fore
SplineSet
0 835 m 1
 1229 835 l 1
 1229 528 l 1
 0 528 l 1
 0 835 l 1
EndSplineSet
Validated: 3073
EndChar

StartChar: triagup
Encoding: 9650 9650 581
Width: 1229
Flags: W
LayerCount: 2
Fore
SplineSet
0 110 m 1
 614 1262 l 1
 1229 110 l 1
 0 110 l 1
EndSplineSet
Validated: 3073
EndChar

StartChar: triagrt
Encoding: 9658 9658 582
Width: 1229
Flags: W
LayerCount: 2
Fore
SplineSet
85 -83 m 1
 83 1191 l 1
 1148 532 l 1
 85 -83 l 1
EndSplineSet
Validated: 3073
EndChar

StartChar: triagdn
Encoding: 9660 9660 583
Width: 1229
Flags: W
LayerCount: 2
Fore
SplineSet
1229 1262 m 1
 617 110 l 1
 0 1262 l 1
 1229 1262 l 1
EndSplineSet
Validated: 3073
EndChar

StartChar: triaglf
Encoding: 9668 9668 584
Width: 1229
Flags: W
LayerCount: 2
Fore
SplineSet
84 532 m 1
 1147 1192 l 1
 1147 -83 l 1
 84 532 l 1
EndSplineSet
Validated: 3073
EndChar

StartChar: lozenge
Encoding: 9674 9674 585
Width: 1229
Flags: W
LayerCount: 2
Fore
SplineSet
669 1694 m 1
 1113 985 l 1
 669 204 l 1
 549 204 l 1
 119 985 l 1
 549 1694 l 1
 669 1694 l 1
612 1375 m 1
 349 988 l 1
 612 519 l 1
 877 988 l 1
 612 1375 l 1
EndSplineSet
Validated: 3073
EndChar

StartChar: whitecircle
Encoding: 9675 9675 586
Width: 1229
Flags: W
HStem: 294 202<468.855 761.329> 1047 201<465.808 761.631>
VStem: 140 200<624.413 919.107> 891 200<623.521 916.83>
LayerCount: 2
Fore
SplineSet
616 1248 m 3
 885 1248 1091 1007 1091 771 c 3
 1091 525 879 294 616 294 c 3
 345 294 140 530 140 771 c 3
 140 998 335 1248 616 1248 c 3
616 1047 m 3
 456 1047 340 919 340 771 c 3
 340 605 474 496 616 496 c 259
 770 496 891 618 891 771 c 3
 891 912 779 1047 616 1047 c 3
EndSplineSet
Validated: 3073
EndChar

StartChar: blackcircle
Encoding: 9679 9679 587
Width: 1229
Flags: W
HStem: 253 1036<433.998 801.172>
VStem: 140 951<568.174 971.247>
LayerCount: 2
Fore
SplineSet
616 1289 m 0
 885 1289 1091 1027 1091 771 c 0
 1091 504 879 253 616 253 c 0
 345 253 140 509 140 771 c 0
 140 1018 335 1289 616 1289 c 0
EndSplineSet
Validated: 3073
EndChar

StartChar: bulletinverse
Encoding: 9688 9688 588
Width: 1229
Flags: W
HStem: 83 353<482.923 744.623> 873 353<485.388 745.912>
VStem: 85 312<524.494 787.201> 833 311<522.879 785.482>
LayerCount: 2
Fore
SplineSet
85 83 m 1
 85 1226 l 1
 1144 1226 l 1
 1144 83 l 1
 85 83 l 1
614 873 m 256
 497 873 397 780 397 654 c 0
 397 526 501 436 614 436 c 0
 734 436 833 532 833 654 c 0
 833 776 737 873 614 873 c 256
EndSplineSet
Validated: 3073
EndChar

StartChar: whitecircleinverse
Encoding: 9689 9689 589
Width: 1229
Flags: W
HStem: 105 148<405.193 825.948> 496 551<470.199 763.654> 1289 105<407.771 825.948>
VStem: 0 141<537.373 1002.58> 341 550<619.806 918.865> 1091 138<541.296 999.961>
LayerCount: 2
Fore
SplineSet
0 105 m 1
 0 1394 l 1
 1229 1394 l 1
 1229 105 l 1
 0 105 l 1
616 1289 m 3
 324 1289 141 1074 141 770 c 3
 141 465 318 253 616 253 c 3
 912 253 1091 474 1091 770 c 3
 1091 1068 912 1289 616 1289 c 3
617 1047 m 3
 770 1047 891 922 891 770 c 3
 891 613 766 496 617 496 c 3
 466 496 341 613 341 770 c 3
 341 928 469 1047 617 1047 c 3
EndSplineSet
Validated: 3073
EndChar

StartChar: whitebullet
Encoding: 9702 9702 590
Width: 1229
Flags: W
HStem: 542 151<507.206 723.272> 1007 149<507.006 723.618>
VStem: 308 150<740.708 958.376> 773 149<743.509 957.403>
LayerCount: 2
Fore
SplineSet
922 850 m 0
 922 666 774 542 614 542 c 256
 445 542 308 677 308 850 c 0
 308 1020 444 1156 614 1156 c 0
 789 1156 922 1019 922 850 c 0
773 850 m 0
 773 940 699 1007 614 1007 c 256
 533 1007 458 944 458 850 c 0
 458 755 533 693 614 693 c 256
 702 693 773 762 773 850 c 0
EndSplineSet
Validated: 3073
EndChar

StartChar: smileface
Encoding: 9786 9786 591
Width: 1229
Flags: W
HStem: 124 168<439.58 785.366> 452 72<496.41 731.857> 811 152<347.885 484.01 746.193 883.089> 1268 155<436.441 787.383>
VStem: 0 171<575.184 977.241> 340 152<818.876 956.017> 739 151<818.058 956.328> 1060 168<575.257 978.266>
LayerCount: 2
Fore
SplineSet
1228 779 m 3
 1228 437 960 124 614 124 c 3
 270 124 0 440 0 779 c 3
 0 1185 240 1423 614 1423 c 3
 1005 1423 1228 1146 1228 779 c 3
1060 779 m 3
 1060 1028 866 1268 614 1268 c 3
 364 1268 171 1027 171 779 c 3
 171 521 377 292 614 292 c 3
 857 292 1060 524 1060 779 c 3
492 889 m 259
 492 847 458 811 414 811 c 259
 372 811 340 849 340 889 c 259
 340 927 370 963 414 963 c 259
 460 963 492 928 492 889 c 259
890 889 m 259
 890 847 859 811 817 811 c 259
 771 811 739 847 739 889 c 259
 739 929 770 963 817 963 c 259
 859 963 890 929 890 889 c 259
374 612 m 1
 426 641 l 1
 469 564 532 524 614 524 c 259
 698 524 761 564 803 641 c 1
 856 612 l 1
 801 505 720 452 614 452 c 3
 485 452 414 536 374 612 c 1
EndSplineSet
Validated: 3073
EndChar

StartChar: invsmileface
Encoding: 9787 9787 592
Width: 1229
Flags: W
HStem: 124 270<457.299 771.533> 985 409<309 928.5>
VStem: 0 302<609.5 972.714> 458 315<836.876 976.783> 928 300<608 977.665>
LayerCount: 2
Fore
SplineSet
1228 779 m 0
 1228 437 960 124 614 124 c 0
 270 124 0 440 0 779 c 0
 0 1135 284 1394 614 1394 c 0
 960 1394 1228 1122 1228 779 c 0
458 907 m 256
 458 947 425 985 380 985 c 256
 334 985 302 946 302 907 c 256
 302 867 335 829 380 829 c 256
 424 829 458 865 458 907 c 256
928 907 m 256
 928 948 897 985 851 985 c 256
 805 985 773 948 773 907 c 256
 773 865 806 829 851 829 c 256
 896 829 928 865 928 907 c 256
332 582 m 1
 378 493 462 394 614 394 c 0
 768 394 850 492 898 582 c 1
 837 617 l 1
 786 525 713 478 614 478 c 256
 517 478 444 525 393 617 c 1
 332 582 l 1
EndSplineSet
Validated: 3073
EndChar

StartChar: compass
Encoding: 9788 9788 593
Width: 1229
Flags: W
HStem: 603 55<0 217 1015 1229> 946 80<649 765.722>
VStem: 217 81<658 782.415> 582 67<78 238.515 1026 1222> 930 85<656 787.294>
LayerCount: 2
Fore
SplineSet
582 1222 m 1
 649 1222 l 1
 649 1026 l 1
 741 1026 809 990 873 946 c 1
 1060 1110 l 1
 1105 1068 l 1
 921 902 l 1
 979 833 1015 725 1015 656 c 1
 1229 656 l 1
 1229 603 l 1
 1015 603 l 1
 1004 531 975 423 922 364 c 1
 1105 192 l 1
 1058 154 l 1
 873 318 l 1
 798 268 742 244 649 235 c 1
 649 78 l 1
 582 78 l 1
 582 235 l 1
 498 246 425 273 359 315 c 1
 171 155 l 1
 127 194 l 1
 310 361 l 1
 257 422 227 528 217 603 c 1
 0 603 l 1
 0 658 l 1
 217 658 l 1
 217 736 255 842 309 900 c 1
 127 1067 l 1
 167 1111 l 1
 358 946 l 1
 434 994 510 1019 582 1026 c 1
 582 1222 l 1
614 946 m 256
 432 946 298 801 298 629 c 0
 298 453 434 312 614 312 c 256
 796 312 930 457 930 629 c 0
 930 807 791 946 614 946 c 256
EndSplineSet
Validated: 3073
EndChar

StartChar: female
Encoding: 9792 9792 594
Width: 1229
Flags: W
HStem: 458 92<235 569 666 996> 770 109<473.03 569 666 759.957> 1426 110<470.923 760.129>
VStem: 245 105<1002.66 1299.99> 569 97<65 458 550 777.615> 882 106<1002.95 1305.35>
LayerCount: 2
Fore
SplineSet
569 770 m 1
 383 797 245 952 245 1149 c 0
 245 1382 424 1536 617 1536 c 0
 811 1536 988 1380 988 1149 c 0
 988 939 839 793 666 770 c 1
 666 550 l 1
 996 550 l 1
 996 458 l 1
 666 458 l 1
 666 65 l 1
 569 65 l 1
 569 458 l 1
 235 458 l 1
 235 550 l 1
 569 550 l 1
 569 770 l 1
616 1426 m 0
 469 1426 350 1306 350 1153 c 256
 350 996 470 879 616 879 c 256
 758 879 882 993 882 1153 c 256
 882 1312 760 1426 616 1426 c 0
EndSplineSet
Validated: 3073
EndChar

StartChar: male
Encoding: 9794 9794 595
Width: 1229
Flags: W
HStem: 327 107<289.885 580.613> 1001 110<284.457 581.549> 1040 21G<1140.5 1166.96>
VStem: 57 101<567.303 873.211> 709 100<563.533 874.885>
LayerCount: 2
Fore
SplineSet
633 1054 m 1xd8
 968 1359 l 1
 898 1435 689 1509 689 1515 c 1
 717 1547 l 9
 887 1547 1153 1547 1153 1547 c 0
 1175 1528 l 0
 1175 1528 1175 1247 1175 1067 c 273
 1144 1040 l 1xb8
 1137 1040 1060 1227 1028 1296 c 1
 701 997 l 1
 773 925 809 831 809 731 c 0
 809 505 638 327 432 327 c 256
 217 327 57 509 57 714 c 0
 57 927 220 1111 434 1111 c 0
 496 1111 561 1091 633 1054 c 1xd8
434 1001 m 0xd8
 279 1001 158 877 158 718 c 256
 158 554 289 434 434 434 c 256
 576 434 709 545 709 718 c 0
 709 885 580 1001 434 1001 c 0xd8
EndSplineSet
Validated: 3073
EndChar

StartChar: spade
Encoding: 9824 9824 596
Width: 1229
Flags: W
HStem: 161 37<225 352.978 893.198 1007>
VStem: 609 18<554.89 672>
LayerCount: 2
Fore
SplineSet
616 1440 m 1
 710 1047 1103 984 1103 704 c 0
 1103 572 1002 480 883 480 c 0
 779 480 694 544 627 672 c 1
 627 326 818 198 1007 198 c 1
 1012 161 l 1
 217 161 l 1
 225 198 l 1
 533 198 609 446 609 672 c 1
 546 536 452 480 348 480 c 0
 228 480 127 577 127 699 c 0
 127 995 525 1027 616 1440 c 1
EndSplineSet
Validated: 3073
EndChar

StartChar: club
Encoding: 9827 9827 597
Width: 1229
Flags: W
HStem: 159 34<201 261.353 968.486 1032> 474 598<132.559 384.114 842.449 1101.92>
VStem: 337 553<1058.92 1335.48> 605 20<580.434 712>
LayerCount: 2
Fore
SplineSet
1040 159 m 1xd0
 195 159 l 1
 201 193 l 1
 228 198 605 273 605 665 c 0
 605 675 605 690 605 712 c 1xd0
 530 558 407 474 277 474 c 0
 135 474 0 580 0 753 c 0
 0 935 139 1072 239 1072 c 0
 281 1072 335 1055 404 1019 c 1
 348 1113 337 1146 337 1202 c 0
 337 1350 449 1428 613 1428 c 0
 773 1428 890 1352 890 1204 c 0xe0
 890 1145 867 1083 821 1019 c 1
 915 1064 929 1072 984 1072 c 0
 1114 1072 1229 917 1229 757 c 0
 1229 593 1104 474 956 474 c 0
 749 474 645 678 625 712 c 1
 625 326 840 231 1032 193 c 1
 1040 159 l 1xd0
EndSplineSet
Validated: 3073
EndChar

StartChar: heart
Encoding: 9829 9829 598
Width: 1229
Flags: W
LayerCount: 2
Fore
SplineSet
618 121 m 1
 509 525 107 864 107 1131 c 0
 107 1276 213 1332 348 1332 c 0
 456 1332 558 1315 618 1143 c 1
 666 1315 778 1334 882 1334 c 0
 1024 1334 1123 1266 1123 1144 c 0
 1123 833 723 525 618 121 c 1
EndSplineSet
Validated: 3073
EndChar

StartChar: diamond
Encoding: 9830 9830 599
Width: 1229
Flags: W
HStem: 1405 20G<549.5 664>
LayerCount: 2
Fore
SplineSet
614 1425 m 1
 714 1188 901 953 1074 801 c 1
 929 689 726 377 614 132 c 1
 524 337 305 689 158 801 c 1
 333 953 485 1153 614 1425 c 1
EndSplineSet
Validated: 3073
EndChar

StartChar: musicalnote
Encoding: 9834 9834 600
Width: 1229
Flags: W
HStem: 140 358<347.918 489.878>
VStem: 560 81<478 1067 1329 1395> 835 89<535.598 909.909>
LayerCount: 2
Fore
SplineSet
560 478 m 1
 560 1395 l 1
 641 1395 l 1
 641 1329 l 1
 808 1123 l 2
 868 1037 924 874 924 737 c 0
 924 626 890 529 823 444 c 1
 771 444 l 1
 814 538 835 628 835 713 c 256
 835 899 724 1053 641 1067 c 1
 641 478 l 2
 641 345 526 140 369 140 c 0
 291 140 245 177 245 246 c 0
 245 354 338 498 462 498 c 0
 491 498 523 492 560 478 c 1
EndSplineSet
Validated: 3073
EndChar

StartChar: musicalnotedbl
Encoding: 9835 9835 601
Width: 1229
Flags: W
HStem: 53 356<151.754 320.586> 155 355<827.471 978.707>
VStem: 364 81<348 816 953 1076> 1040 80<492 1019 1114 1238>
LayerCount: 2
Fore
SplineSet
1120 492 m 2xb0
 1120 299 987 155 849 155 c 0
 745 155 725 219 725 261 c 0
 725 367 817 510 943 510 c 0x70
 978 510 1010 502 1040 492 c 1
 1040 1019 l 1
 445 816 l 1
 445 348 l 2
 445 155 313 53 173 53 c 0
 69 53 49 117 49 159 c 0
 49 265 141 409 268 409 c 0
 303 409 338 359 364 348 c 1
 364 1243 l 1
 1120 1394 l 1
 1120 492 l 2xb0
445 953 m 1
 1040 1114 l 1
 1040 1238 l 1
 445 1076 l 1
 445 953 l 1
EndSplineSet
Validated: 3073
EndChar

StartChar: arrowboth
Encoding: 8596 8596 602
Width: 1229
VWidth: 1708
Flags: W
HStem: 520 160<373 857> 1023 20G<446.651 487.314 742.686 783.349>
LayerCount: 2
Fore
SplineSet
1076 535 m 1
 767 157 l 1
 643 259 l 1
 857 520 l 1
 373 520 l 1
 587 259 l 1
 463 157 l 1
 154 535 l 1
 154 665 l 1
 463 1043 l 1
 587 941 l 1
 373 680 l 1
 857 680 l 1
 643 941 l 1
 767 1043 l 1
 1076 665 l 1
 1076 535 l 1
EndSplineSet
Validated: 3073
EndChar

StartChar: arrowbothv
Encoding: 8597 8597 603
Width: 1229
VWidth: 1708
Flags: W
VStem: 535 160<317 906>
LayerCount: 2
Fore
SplineSet
554 55 m 1
 195 457 l 1
 315 563 l 1
 535 317 l 1
 535 906 l 1
 310 694 l 1
 200 810 l 1
 556 1145 l 1
 674 1145 l 1
 1030 810 l 1
 920 694 l 1
 695 906 l 1
 695 317 l 1
 915 563 l 1
 1035 457 l 1
 676 55 l 1
 554 55 l 1
EndSplineSet
Validated: 3073
EndChar

StartChar: updownarrowbar
Encoding: 8616 8616 604
Width: 1229
VWidth: 1708
Flags: W
HStem: -74 160<204 526 704 1026>
VStem: 535 160<317 906>
LayerCount: 2
Fore
SplineSet
1026 86 m 1
 1026 -74 l 1
 204 -74 l 1
 204 86 l 1
 526 86 l 1
 195 457 l 1
 315 563 l 1
 535 317 l 1
 535 906 l 1
 310 694 l 1
 200 810 l 1
 556 1145 l 1
 674 1145 l 1
 1030 810 l 1
 920 694 l 1
 695 906 l 1
 695 317 l 1
 915 563 l 1
 1035 457 l 1
 704 86 l 1
 1026 86 l 1
EndSplineSet
Validated: 3073
EndChar

StartChar: nsuperior
Encoding: 8319 8319 605
Width: 1229
VWidth: 1947
Flags: W
HStem: 1214 210<512.465 776.27>
VStem: 222 210<542 1119.7 1374 1424> 800 210<542 1187.11>
LayerCount: 2
Fore
SplineSet
627 1424 m 2
 999 1424 1010 1146 1010 1098 c 2
 1010 542 l 1
 800 542 l 1
 800 1098 l 2
 800 1149 786 1214 627 1214 c 2
 605 1214 l 2
 495 1214 432 1054 432 977 c 2
 432 542 l 1
 222 542 l 1
 222 1424 l 1
 432 1424 l 1
 432 1374 l 1
 481 1405 539 1424 605 1424 c 2
 627 1424 l 2
EndSplineSet
EndChar

StartChar: radical
Encoding: 8730 8730 606
Width: 1229
VWidth: 1708
Flags: W
HStem: -25 21G<527.832 741.58> 870 210<130 258>
LayerCount: 2
Fore
SplineSet
534 -25 m 1
 258 870 l 1
 130 870 l 1
 130 1080 l 1
 412 1080 l 1
 630 377 l 1
 982 1638 l 1
 1200 1638 l 1
 736 -25 l 1
 534 -25 l 1
EndSplineSet
EndChar

StartChar: intersection
Encoding: 8745 8745 608
Width: 1229
VWidth: 1947
Flags: W
HStem: 0 21G<130 340 889 1099> 1215 210<433.197 795.029>
VStem: 130 210<0 1126.77> 889 210<0 1127.15>
LayerCount: 2
Fore
SplineSet
889 1004 m 2
 889 1123 807 1215 626 1215 c 2
 603 1215 l 2
 422 1215 340 1124 340 1004 c 2
 340 -0 l 1
 130 0 l 1
 130 1004 l 2
 130 1230 295 1425 603 1425 c 2
 626 1425 l 2
 932 1425 1099 1231 1099 1004 c 2
 1099 0 l 1
 889 -0 l 1
 889 1004 l 2
EndSplineSet
EndChar

StartChar: infinity
Encoding: 8734 8734 609
Width: 1229
Flags: W
HStem: 268 210<271.76 481.598 751.652 968.862> 743 210<274.742 479.673 757.125 964.62>
VStem: 31 210<507.158 708.102> 510 210<508.061 706.516> 998 210<508.102 710.902>
LayerCount: 2
Fore
SplineSet
366 478 m 3
 470 478 510 535 510 611 c 27
 510 687 459 743 366 743 c 3
 299 743 241 682 241 611 c 3
 241 532 295 478 366 478 c 3
366 268 m 3
 198 268 31 369 31 611 c 3
 31 857 205 953 366 953 c 3
 478 953 561 913 618 857 c 1
 676 913 755 952 851 952 c 3
 1085 952 1208 790 1208 611 c 3
 1208 405 1070 268 851 268 c 3
 753 268 673 303 616 359 c 1
 545 292 470 268 366 268 c 3
720 611 m 3
 720 568 748 477 851 477 c 3
 951 477 998 523 998 611 c 3
 998 690 948 743 851 743 c 3
 756 743 720 649 720 611 c 3
EndSplineSet
EndChar

StartChar: almostequal
Encoding: 8776 8776 610
Width: 1229
VWidth: 1947
Flags: W
HStem: 239 210<736.018 948.611> 421 210<288.233 525.135> 656 210<735.023 940.874> 840 210<286.923 500.041>
LayerCount: 2
Fore
SplineSet
44 397 m 1x40
 93 485 189 631 365 631 c 2
 431 631 l 2x40
 495 631 573 624 649 550 c 2
 736 465 l 2
 736 465 761 449 815 449 c 2
 866 449 l 2
 904 449 943 458 997 564 c 1
 1185 470 l 1
 1075 244 902 239 866 239 c 2
 815 239 l 2x80
 690 239 634 269 586 317 c 2
 501 402 l 2
 489 414 461 421 431 421 c 2
 365 421 l 2
 348 421 290 409 234 307 c 1
 44 397 l 1x40
44 814 m 1
 88 896 186 1050 365 1050 c 2
 431 1050 l 2x10
 450 1050 566 1050 649 967 c 2
 735 881 l 2
 735 881 766 866 815 866 c 2
 866 866 l 2
 925 866 980 953 1000 987 c 1
 1182 883 l 1
 1064 665 891 656 866 656 c 2
 815 656 l 2x20
 705 656 635 685 587 733 c 2
 501 819 l 2
 481 839 431 840 431 840 c 2
 365 840 l 2x10
 339 840 286 818 234 724 c 1
 44 814 l 1
EndSplineSet
EndChar

StartChar: equivalence
Encoding: 8801 8801 611
Width: 1229
Flags: W
HStem: 190 210<130 1099> 489 210<130 1099> 787 210<130 1099>
LayerCount: 2
Fore
SplineSet
1099 400 m 1
 1099 190 l 1
 130 190 l 1
 130 400 l 1
 1099 400 l 1
1099 699 m 1
 1099 489 l 1
 130 489 l 1
 130 699 l 1
 1099 699 l 1
1099 997 m 1
 1099 787 l 1
 130 787 l 1
 130 997 l 1
 1099 997 l 1
EndSplineSet
EndChar

StartChar: lessequal
Encoding: 8804 8804 612
Width: 1229
VWidth: 1708
Flags: W
LayerCount: 2
Fore
SplineSet
130 930 m 1
 1099 1260 l 1
 1099 1038 l 1
 502 835 l 1
 1099 631 l 1
 1099 409 l 1
 130 740 l 1
 130 930 l 1
130 606 m 1
 1099 270 l 1
 1099 48 l 1
 130 384 l 1
 130 606 l 1
EndSplineSet
EndChar

StartChar: greaterequal
Encoding: 8805 8805 613
Width: 1229
VWidth: 1708
Flags: W
LayerCount: 2
Fore
SplineSet
130 1038 m 1
 130 1260 l 1
 1099 929 l 1
 1099 741 l 1
 130 409 l 1
 130 631 l 1
 724 835 l 1
 130 1038 l 1
130 45 m 1
 130 265 l 1
 1099 581 l 1
 1099 360 l 1
 130 45 l 1
EndSplineSet
EndChar

StartChar: revlogicalnot
Encoding: 8976 8976 614
Width: 1229
VWidth: 1708
Flags: W
HStem: 489 210<340 1099>
VStem: 130 210<235 489>
LayerCount: 2
Fore
SplineSet
340 489 m 1
 340 235 l 1
 130 235 l 1
 130 699 l 1
 1099 699 l 1
 1099 489 l 1
 340 489 l 1
EndSplineSet
EndChar

